<?xml version="1.0" encoding="UTF-8"?><svg id="a" xmlns="http://www.w3.org/2000/svg" width="119.9588" height="119.9588" viewBox="0 0 119.9588 119.9588"><defs><style>.b{fill:#28445b;}</style></defs><path class="b" d="M94.022,64.2692h-22.4959l-.2293-1.0655c-.1888-.8497-.6608-1.6319-1.3352-2.1714l-2.4546-2.0095c-1.5375-1.2408-2.9537-2.6435-4.2349-4.1404l-5.1385-6.0556,1.2273-1.497c.7148-.8766,1.6454-1.551,2.6839-1.9691V24.9553c0-2.9941,2.4411-5.4351,5.4351-5.4351,1.6184,0,3.0884,.7148,4.0864,1.8477,.998-1.1329,2.4546-1.8477,4.0731-1.8477,1.6049,0,3.075,.7148,4.0864,1.8612,.998-1.1464,2.4681-1.8612,4.0731-1.8612s3.075,.6878,4.0864,1.8342c1.0115-1.1464,2.4814-1.8342,4.0731-1.8342,1.8881,0,3.6684,1.0115,4.6529,2.6299,.5125,.8497,.7822,1.8072,.7822,2.8052v17.8835c0,1.7128-.1618,3.4257-.472,5.1116-.2967,1.6184-.7418,3.2232-1.3352,4.7742l-1.0115,2.6839c-.7822,2.0635-1.0655,4.3022-.8092,6.5005l.2563,2.3601Zm-20.4189-2.6975h17.4115c-.1753-2.4006,.1753-4.8418,1.025-7.1074l1.0115-2.6839c.526-1.3891,.9306-2.8457,1.2003-4.3158,.2832-1.524,.4316-3.075,.4316-4.626V24.9551c0-.499-.1349-.9845-.3911-1.4026-.499-.8227-1.3756-1.3217-2.3332-1.3217-1.1868,0-2.2253,.7553-2.5895,1.8747-.0944,.2832-.1349,.5665-.1349,.8497h-2.6975c0-.2832-.0405-.553-.1214-.8227-.3641-1.1329-1.4026-1.9016-2.603-1.9016-1.4161,0-2.6163,1.1059-2.7243,2.5086v.027c0,.0539-.0135,.1214-.0135,.1888h-2.6975c0-.0674,0-.1349-.0135-.1888v-.027c-.1079-1.4026-1.3082-2.5086-2.7243-2.5086-1.5105,0-2.7379,1.2273-2.7379,2.7379h-2.6975c0-1.5105-1.2273-2.7379-2.7243-2.7379-1.5105,0-2.7379,1.2273-2.7379,2.7379v22.5092l-1.0789,.2158c-.7687,.1618-1.4835,.553-2.023,1.1194l3.682,4.3426c1.1599,1.3756,2.4681,2.6568,3.8706,3.7897l2.4546,1.9961c.8766,.6878,1.551,1.6049,1.9556,2.6299l.0006,.0002Z"/><path class="b" d="M99.5659,113.2936h-30.4791l.9306-19.7851,1.524,.2832c1.497,.2832,3.0346,.4181,4.572,.4181h17.8835c.5125,0,.998-.1349,1.4296-.4046l1.8072-1.1194,2.3322,20.6078Zm-27.6603-2.6975h24.6402l-1.5645-13.7835c-.3237,.0674-.6608,.0944-.998,.0944h-17.8835c-1.1868,0-2.3737-.0809-3.5471-.2293l-.6472,13.9184Z"/><path class="b" d="M86.5249,24.9563h2.6975v8.6046h-2.6975v-8.6046Z"/><path class="b" d="M78.3645,24.9563h2.6975v8.6046h-2.6975v-8.6046Z"/><path class="b" d="M70.2065,24.9563h2.6975v8.6046h-2.6975v-8.6046Z"/><path class="b" d="M93.9949,96.9086h-17.8968c-1.6993,0-3.3986-.1618-5.0709-.4586-1.6454-.2967-3.2637-.7553-4.8282-1.3352l-2.6839-1.0115c-2.0635-.7822-4.3022-1.0655-6.5005-.8092l-2.3332,.2697v-22.0777l.9441-.6474,.2293-.0539c.7957-.2023,1.524-.6608,2.05-1.3082l1.9961-2.4546c1.2408-1.5375,2.6435-2.9537,4.1404-4.2349l6.0421-5.1249,1.5645,1.2677c.8632,.7013,1.524,1.6184,1.9421,2.6299h20.3921c2.9941,0,5.4351,2.4411,5.4351,5.4351,0,1.6184-.7148,3.0884-1.8477,4.0864,1.1329,.998,1.8477,2.4546,1.8477,4.0731,0,1.6049-.7148,3.0615-1.8477,4.0595,1.1464,.998,1.8477,2.4546,1.8477,4.1,0,1.6049-.7013,3.075-1.8477,4.0864,1.1464,1.0115,1.8477,2.4814,1.8477,4.0731,0,1.9016-.9576,3.6279-2.5759,4.626-.8497,.526-1.8342,.8092-2.8457,.8092l-.0005-.0002Zm-35.4163-6.4196c2.0095,0,4.0191,.3641,5.8936,1.0789l2.6839,1.0115c1.4161,.526,2.8726,.9441,4.3562,1.2138,1.497,.2832,3.0479,.4181,4.572,.4181h17.8835c.5125,0,.998-.1349,1.4296-.4046,.8092-.499,1.2947-1.3756,1.2947-2.3197,0-1.1733-.7418-2.2118-1.8477-2.5895-.2832-.0944-.5799-.1484-.8766-.1484v-2.6975c.2967,0,.5799-.0405,.8497-.1349,1.1329-.3641,1.8881-1.4161,1.8881-2.603,0-1.4026-1.0924-2.603-2.4814-2.7243h-.0135c-.0674-.0135-.1484-.0135-.2293-.0135v-2.6975c.0809,0,.1618,0,.2293-.0135h.0135c1.3891-.1214,2.4814-1.3217,2.4814-2.7108,0-1.5105-1.2273-2.7379-2.7379-2.7379v-2.6975c1.5105,0,2.7379-1.2273,2.7379-2.7243,0-1.5105-1.2273-2.7379-2.7379-2.7379h-22.4419l-.2293-1.0655c-.1618-.7822-.5799-1.497-1.1599-2.023l-4.3293,3.682c-1.3756,1.1599-2.6568,2.4681-3.7897,3.8706l-1.9961,2.4546c-.6878,.8497-1.6049,1.524-2.6163,1.9421v17.4115c.3776-.027,.7822-.0405,1.1733-.0405v.0005Z"/><path class="b" d="M85.3905,86.0501h8.6046v2.6975h-8.6046v-2.6975Z"/><path class="b" d="M85.3905,77.8921h8.6046v2.6975h-8.6046v-2.6975Z"/><path class="b" d="M85.3905,69.7317h8.6046v2.6975h-8.6046v-2.6975Z"/><path class="b" d="M6.8685,96.2329l16.9402-1.9161,.3035,2.68-16.9402,1.9161-.3035-2.68Z"/><path class="b" d="M6.9573,71.3642l.1262-2.6945,16.8401,.789-.1262,2.6945-16.8401-.789Z"/><path class="b" d="M49.2738,60.8437l-1.497-1.2138c-.8766-.7148-1.551-1.6454-1.9691-2.6975H25.3752c-2.9941,0-5.4351-2.4411-5.4351-5.4351,0-1.6184,.7148-3.0884,1.8477-4.0864-1.1329-.998-1.8477-2.4546-1.8477-4.0731s.7148-3.075,1.8612-4.0864c-1.1329-.998-1.8612-2.4681-1.8612-4.0731s.6878-3.075,1.8342-4.0864c-1.1464-1.0115-1.8342-2.4814-1.8342-4.0731,0-1.9016,1.0115-3.6953,2.6568-4.6664,.8362-.499,1.7937-.7687,2.7784-.7687h17.8835c1.7128,0,3.4526,.1618,5.1385,.472,1.6049,.2967,3.2099,.7418,4.7473,1.3217l2.6839,1.0115c2.0635,.7822,4.3022,1.0654,6.5005,.8092l2.4006-.2697v22.5092l-1.0789,.2158c-.8632,.1753-1.6589,.6474-2.2118,1.3487l-1.9961,2.4546c-1.2408,1.5375-2.6435,2.9537-4.1404,4.2349l-6.0285,5.1522Zm-23.8984-14.768v2.6975c-1.5105,0-2.7379,1.2273-2.7379,2.7243,0,1.5105,1.2273,2.7379,2.7379,2.7379h22.1184l.5799,.8497,.0539,.2697c.1618,.7553,.553,1.4431,1.1059,1.9826l4.3293-3.6684c1.3756-1.1599,2.6568-2.4681,3.7897-3.8706l1.9961-2.4546c.7148-.8766,1.6454-1.551,2.6839-1.9691V27.9768c-2.4276,.1888-4.8822-.1618-7.1614-1.025l-2.6839-1.0115c-1.3891-.526-2.8457-.9306-4.2889-1.2003-1.524-.2832-3.0884-.4316-4.6393-.4316H25.3756c-.499,0-.971,.1349-1.3891,.3776-.8362,.499-1.3352,1.3756-1.3352,2.3467,0,1.1868,.7553,2.2388,1.8881,2.603,.2697,.0809,.553,.1349,.8362,.1349v2.6975c-.2697,0-.553,.0405-.8092,.1214-1.1464,.3507-1.9286,1.4026-1.9286,2.603,0,1.4296,1.1059,2.6163,2.5221,2.7243h.027c.0539,0,.1079,.0135,.1753,.0135v2.6975c-.0674,0-.1349,0-.1888,.0135-1.4296,.1079-2.5354,1.2947-2.5354,2.7243,.0135,1.4835,1.2408,2.7108,2.7379,2.7108l-.0004-.0007Z"/><path class="b" d="M25.3769,29.7579h8.6046v2.6975h-8.6046v-2.6975Z"/><path class="b" d="M25.3769,37.9184h8.6046v2.6975h-8.6046v-2.6975Z"/><path class="b" d="M25.3769,46.0764h8.6046v2.6975h-8.6046v-2.6975Z"/><path class="b" d="M95.5264,49.0506l.1262-2.6945,16.7592,.7851-.1262,2.6945-16.7592-.7851Z"/><path class="b" d="M95.3044,21.5136l16.8997-1.9113,.3035,2.68-16.8998,1.9113-.3035-2.68Z"/><path class="b" d="M51.957,99.0393c-1.6184,0-3.0884-.7148-4.0864-1.8477-.998,1.1329-2.4546,1.8477-4.0731,1.8477s-3.075-.7148-4.0864-1.8477c-.998,1.1329-2.4681,1.8477-4.0731,1.8477-1.5914,0-3.0615-.7013-4.0731-1.8477-1.0115,1.1464-2.4814,1.8477-4.0864,1.8477-1.9286,0-3.7357-1.0385-4.6933-2.7108-.472-.8227-.7283-1.7668-.7283-2.7243v-17.8835c0-1.7263,.1618-3.4662,.4855-5.1653,.2967-1.6049,.7418-3.1964,1.3217-4.7204l1.0115-2.6975c.7822-2.0635,1.052-4.3158,.8092-6.5005l-.2697-2.4006h22.0912l.5799,.8497,.0539,.2697c.1888,.8632,.6608,1.6319,1.3352,2.1849l2.4546,1.9961c1.5375,1.2408,2.9537,2.6435,4.2349,4.1404l5.0709,5.988-1.2273,1.524c-.6878,.8497-1.6049,1.524-2.6163,1.9421v20.4998c0,2.967-2.4411,5.4083-5.4351,5.4083h0Zm-2.7243-5.435c0,1.5105,1.2273,2.7379,2.7243,2.7379,1.5105,0,2.7379-1.2273,2.7379-2.7379v-22.1184l.9441-.6474,.2293-.0539c.7148-.1753,1.3622-.5665,1.8612-1.0924l-3.6279-4.2753c-1.1599-1.3756-2.4681-2.6568-3.8706-3.7897l-2.4546-1.9961c-.8766-.7148-1.551-1.6454-1.9691-2.6975H28.4093c.1888,2.4276-.1618,4.8822-1.025,7.1614l-1.0115,2.6975c-.5125,1.3756-.9171,2.8188-1.1868,4.2617-.2832,1.5375-.4316,3.1019-.4316,4.6664v17.8835c0,.4855,.1214,.9576,.3641,1.3622,.4855,.8497,1.3891,1.3622,2.3602,1.3622,1.2003,0,2.2523-.7687,2.6163-1.9286,.0809-.2563,.1214-.526,.1214-.8092h2.6975c0,.2697,.0405,.526,.1079,.7822,.3372,1.1464,1.4161,1.9556,2.6163,1.9556,1.4431,0,2.6299-1.1194,2.7244-2.549v-.1888h2.6975v.1888c.0944,1.4296,1.2812,2.549,2.7243,2.549,1.5105,0,2.7379-1.2273,2.7379-2.7379h2.7108l-.0004,.0137Z"/><path class="b" d="M30.2179,85.0119h2.6975v8.6046h-2.6975v-8.6046Z"/><path class="b" d="M38.3759,85.0119h2.6975v8.6046h-2.6975v-8.6046Z"/><path class="b" d="M46.5364,85.0119h2.6975v8.6046h-2.6975v-8.6046Z"/><path class="b" d="M46.8052,23.3459l.7861-16.7861,2.6945,.1262-.7861,16.7861-2.6945-.1262Z"/><path class="b" d="M20.0476,6.7648l2.68-.3035,1.9132,16.9133-2.68,.3035-1.9132-16.9133Z"/></svg>