<?xml version="1.0" encoding="utf-8"?>
<!-- Generator: Adobe Illustrator 26.2.1, SVG Export Plug-In . SVG Version: 6.00 Build 0)  -->
<svg version="1.1" id="Layer_1" xmlns="http://www.w3.org/2000/svg" xmlns:xlink="http://www.w3.org/1999/xlink" x="0px" y="0px"
	 viewBox="0 0 1130 175.3" style="enable-background:new 0 0 1130 175.3;" xml:space="preserve">
<style type="text/css">
	.st0{fill:#28445B;}
	.st1{fill:#ED0061;}
</style>
<g>
	<path class="st0" d="M163.7,112.1v59.5h-20.8v-54c0-14.5-8.3-23.5-22.8-23.5c-16.6,0.7-26.3,13.1-26.3,29.7v47H73.1v-54
		c0-14.5-8.3-23.5-22.1-23.5c-16.6,0.7-26.3,13.1-26.3,29.7v47H3.9V75.4h20.8v18.7c6.9-13.8,18.7-19.4,34.6-19.4
		c17.3,0,29.1,8.3,33.2,22.8c6.2-15.9,18.7-22.8,36.7-22.8C150.5,74.7,163.7,89.2,163.7,112.1z"/>
	<path class="st0" d="M248.7,171.5v-11.8c-6.9,8.3-18,12.5-31.8,12.5c-20.8,0-33.9-12.5-33.9-29.7s13.1-28.4,36-29.1H248v-2.8
		c0-11.8-7.6-19.4-22.8-19.4c-9,0-18.7,3.5-28.4,9.7l-7.6-13.8c13.1-7.6,22.8-11.8,41.5-11.8c24.9,0,38.7,12.5,38.7,33.9v62.9h-20.8
		V171.5z M248.7,137.6v-9h-25.6c-13.8,0-20.1,3.5-20.1,12.5c0,8.3,6.9,14.5,18.7,14.5C236.3,155.6,247.4,148,248.7,137.6z"/>
	<path class="st0" d="M351.1,165.3c-7.6,4.8-15.2,6.9-23.5,6.9c-14.5,0-27-8.3-27-27.7V94.8h-13.1V79.5h13.1V53.3h20.8v26.3h28.4
		v15.2h-29.1v45.7c0,9.7,3.5,13.1,10.4,13.1c4.2,0,9-1.4,14.5-4.2L351.1,165.3z"/>
	<path class="st0" d="M409.2,93.4c-16.6,0-28.4,12.5-28.4,30.4s11.8,30.4,28.4,30.4c11.8,0,21.4-4.2,28.4-11.8l11.8,11.8
		c-8.3,11.1-22.1,18-40.8,18c-28.4,0-48.4-19.4-48.4-48.4s20.1-48.4,48.4-48.4c17.3,0,30.4,5.5,39.4,15.9l-11.1,13.1
		C429.3,96.8,420.3,92.7,409.2,93.4z"/>
	<path class="st0" d="M562.8,112.1v59.5H542v-54c0-14.5-8.3-23.5-22.8-23.5c-17.3,0-27.7,13.1-27.7,29.7v47h-20.8V38h20.8v56.7
		c6.9-13.8,19.4-19.4,35.3-19.4C549.6,74.7,562.8,89.2,562.8,112.1z"/>
	<path class="st1" d="M645.8,45.7l-41.5,76.1H643V92H663v29.7h18.7v18.7H663v31.1H643v-31.1h-61.6v-15.9L625.7,45h20.1V45.7z"/>
	<path class="st0" d="M741.9,93.4c-16.6,0-28.4,12.5-28.4,30.4s11.8,30.4,28.4,30.4c11.8,0,21.4-4.2,28.4-11.8l11.8,11.8
		c-8.3,11.1-22.1,18-40.8,18c-28.4,0-48.4-19.4-48.4-48.4s20.1-48.4,48.4-48.4c17.3,0,30.4,5.5,39.4,15.9l-11.1,13.1
		C762,96.8,753,92.7,741.9,93.4z"/>
	<path class="st0" d="M856.7,74.7v20.1c-19.4-1.4-31.1,10.4-33.2,26.3v49.8h-20.8V75.4h20.8v19.4C829.7,81.6,841.5,74.7,856.7,74.7z
		"/>
	<path class="st0" d="M896.1,48.4c0,6.9-5.5,12.5-11.8,12.5s-11.8-5.5-11.8-12.5S878.2,36,884.4,36S896.1,41.5,896.1,48.4z
		 M894.1,75.4v95.5h-20.8V75.4H894.1z"/>
	<path class="st0" d="M951.5,91.3c-8.3,0-13.8,2.8-13.8,9.7c0,17.3,51.2,8.3,50.5,42.9c0,19.4-17.3,28.4-36.7,28.4
		c-13.8,0-29.1-4.8-38.7-13.1l7.6-14.5c8.3,7.6,21.4,11.8,31.8,11.8c9,0,15.9-2.8,15.9-10.4c0-19.4-50.5-8.3-50.5-42.9
		c0-19.4,16.6-27.7,35.3-27.7c11.8,0,24.9,3.5,33.2,9.7l-7.6,15.2C970.8,94.8,960.5,91.3,951.5,91.3z"/>
	<path class="st0" d="M1031.7,48.4c0,6.9-5.5,12.5-11.8,12.5c-6.2,0-11.8-5.5-11.8-12.5S1013.7,36,1020,36
		C1026.2,36,1031.7,41.5,1031.7,48.4z M1029.6,75.4v95.5h-20.8V75.4H1029.6z"/>
	<path class="st0" d="M1087.7,91.3c-8.3,0-13.8,2.8-13.8,9.7c0,17.3,51.2,8.3,50.5,42.9c0,19.4-17.3,28.4-36.7,28.4
		c-13.8,0-29.1-4.8-38.7-13.1l7.6-14.5c8.3,7.6,21.4,11.8,31.8,11.8c9,0,15.9-2.8,15.9-10.4c0-19.4-50.5-8.3-50.5-42.9
		c0-19.4,16.6-27.7,35.3-27.7c11.8,0,24.9,3.5,33.2,9.7l-7.6,15.2C1106.4,94.8,1096,91.3,1087.7,91.3z"/>
</g>
</svg>
