<?xml version="1.0" encoding="UTF-8"?><svg id="a" xmlns="http://www.w3.org/2000/svg" width="252.7638" height="33.7304" viewBox="0 0 252.7638 33.7304"><defs><style>.b{fill:#fff;}.c{fill:#fefefd;}</style></defs><path class="b" d="M72.5616,5.1923l-9.5974,16.5483L53.2712,5.1923h-1.945V27.5118h2.2638V9.7519l8.7684,14.9222h1.116l8.7684-15.0178V27.5118h2.2638V5.1923h-1.945Zm14.6059,5.4205c-2.6465,0-5.1335,.829-6.8234,2.2638l1.0203,1.6899c1.3711-1.2116,3.4117-1.9769,5.5799-1.9769,3.1247,0,4.7509,1.5624,4.7509,4.432v1.0203h-5.3248c-4.8146,0-6.4727,2.1682-6.4727,4.7509,0,2.9015,2.3276,4.8784,6.1219,4.8784,2.774,0,4.7509-1.0522,5.7712-2.774v2.6146h2.1682v-10.3945c0-4.3364-2.4551-6.5045-6.7915-6.5045Zm-.7971,15.2729c-2.6783,0-4.2409-1.2116-4.2409-3.1566,0-1.7218,1.0524-2.9972,4.3047-2.9972h5.261v2.7421c-.8928,2.2001-2.774,3.4117-5.3248,3.4117Zm21.7725-1.0203c-.6377,.5739-1.5624,.8609-2.487,.8609-1.8812,0-2.9015-1.0841-2.9015-3.061V12.6534h5.1016v-1.9131h-5.1016v-3.6668h-2.2638v3.6668h-2.9972v1.9131h2.9972v10.1394c0,3.0928,1.7537,4.8784,4.9103,4.8784,1.3073,0,2.6465-.3826,3.5392-1.1797l-.7971-1.6261Zm11.2775,2.8059c2.8378,0,5.2291-1.1479,6.5683-3.316l-1.6899-1.1479c-1.1479,1.6899-2.9334,2.4551-4.8784,2.4551-3.6668,0-6.3451-2.5827-6.3451-6.5364,0-3.9219,2.6783-6.5364,6.3451-6.5364,1.945,0,3.7305,.7971,4.8784,2.487l1.6899-1.1479c-1.3392-2.2001-3.7306-3.316-6.5683-3.316-5.006,0-8.6408,3.5074-8.6408,8.5133s3.6349,8.5452,8.6408,8.5452Zm19.3116-17.0585c-2.8378,0-5.0378,1.116-6.2814,3.061V3.8532h-2.2638V27.5118h2.2638v-8.8003c0-3.8262,2.2638-6.0582,5.8668-6.0582,3.1885,0,5.0378,1.8174,5.0378,5.3567v9.5017h2.2638v-9.7249c0-4.8146-2.8059-7.1741-6.8872-7.1741Zm30.5062,8.9916h-4.4639v-5.1654h-2.232v5.1654h-9.693l11.4148-14.412h-2.5508l-11.8293,14.7947v1.658h12.5946v5.8668h2.2957v-5.8668h4.4639v-2.0406Zm14.09,8.0988c3.2841,0,6.2176-1.116,8.1944-3.2842l-1.4986-1.4986c-1.8174,1.8812-4.0494,2.6783-6.6002,2.6783-5.3886,0-9.438-3.9537-9.438-9.2467s4.0494-9.2467,9.438-9.2467c2.5508,0,4.7828,.7971,6.6002,2.6465l1.4986-1.4986c-1.9769-2.1682-4.9103-3.2523-8.1626-3.2523-6.7277,0-11.7018,4.8146-11.7018,11.3511s4.9741,11.3511,11.6699,11.3511Zm14.9142-13.6787v-3.2842h-2.1682V27.5118h2.2638v-8.5452c0-3.9537,2.1363-6.1857,5.6437-6.1857,.1594,0,.3507,.0319,.542,.0319v-2.2001c-3.0928,0-5.2291,1.1797-6.2814,3.4117Zm11.5282-6.9509c.9565,0,1.658-.7334,1.658-1.658,0-.8609-.7334-1.5624-1.658-1.5624s-1.658,.7334-1.658,1.5943c0,.8928,.7333,1.6261,1.658,1.6261Zm-1.1479,20.4383h2.2638V10.7403h-2.2638V27.5118Zm13.0587,.1594c4.3683,0,6.9191-1.8812,6.9191-4.7828,0-6.4408-10.8728-3.0291-10.8728-7.5568,0-1.5943,1.3392-2.774,4.3683-2.774,1.7218,0,3.4755,.4145,4.9422,1.4348l.9884-1.8174c-1.4029-.9566-3.7624-1.5624-5.9306-1.5624-4.2726,0-6.6321,2.0406-6.6321,4.7828,0,6.6321,10.8728,3.1885,10.8728,7.5568,0,1.658-1.3073,2.7421-4.4958,2.7421-2.3595,0-4.6233-.829-5.9625-1.8812l-1.0203,1.7856c1.371,1.1797,4.0494,2.0725,6.8234,2.0725Zm12.252-20.5977c.9565,0,1.658-.7334,1.658-1.658,0-.8609-.7334-1.5624-1.658-1.5624s-1.658,.7334-1.658,1.5943c0,.8928,.7333,1.6261,1.658,1.6261Zm-1.1479,20.4383h2.2638V10.7403h-2.2638V27.5118Zm13.0587,.1594c4.3686,0,6.9194-1.8812,6.9194-4.7828,0-6.4408-10.8732-3.0291-10.8732-7.5568,0-1.5943,1.3392-2.774,4.3683-2.774,1.7218,0,3.4759,.4145,4.9426,1.4348l.9884-1.8174c-1.4029-.9566-3.7628-1.5624-5.931-1.5624-4.2726,0-6.6321,2.0406-6.6321,4.7828,0,6.6321,10.8732,3.1885,10.8732,7.5568,0,1.658-1.3073,2.7421-4.4962,2.7421-2.3595,0-4.6233-.829-5.9625-1.8812l-1.0203,1.7856c1.371,1.1797,4.0494,2.0725,6.8234,2.0725Z"/><path class="c" d="M29.2123,25.2151c-.0236-.087-.0665-.036-.0952-.0088-.6256,.5925-1.2499,1.1863-1.8745,1.7798l-.1786,.17c-.6268,.551-1.2353,1.1215-1.8234,1.7137l-.2755,.2477-1.6616,1.5715c-.1709,.1193-.3147,.2675-.4523,.4225l-1.5492,1.4499-.0594,.0584-.5115,.4774-.0647,.0557c-.3996,.3155-.834,.5491-1.3558,.5776h-.0585c-.5571-.0224-1.0108-.2806-1.4265-.6255l-.451-.4078c-.5226-.538-1.078-1.0414-1.6326-1.5458l-.3676-.3386c-.5927-.5902-1.1998-1.165-1.8294-1.7157-.0414-.0718-.0968-.1295-.1704-.1687l-1.9438-1.8258-.0637-.0563-1.9912-1.8727c-.0046-.0168-.0156-.0259-.0328-.0276-.6349-.632-1.2891-1.2435-1.9573-1.8401l-.0605-.0632c0-.0206-.0103-.0309-.031-.0309l-.0709-.0579-1.7791-1.6757-.0605-.0628-.2244-.1989-.0634-.0564c-.528-.5447-1.09-1.0536-1.6517-1.5627l-.0598-.0587-.3159-.3252-.0626-.0603c-.5263-.6111-1.0102-1.2537-1.4414-1.9355l-.1785-.3168c-.2614-.5336-.5131-1.0714-.7238-1.6275l-.0277-.0517c-.2017-.6597-.3661-1.3289-.5045-2.0045l.0002,.0008C.0689,12.5738-.0029,11.9304,0,11.2821l.0007-.0587c.0268-.6478,.1041-1.2904,.2009-1.931l.0019-.0018c.1535-.6772,.3407-1.3445,.5821-1.9961l.0207-.0694,.5792-1.2314,.4643-.7629,1.423-1.8848,.0554-.0592,.0514-.053,.0559-.0662c.6049-.6426,1.2719-1.2124,2.002-1.7083l.2631-.1581c.5269-.2789,1.0626-.5393,1.6169-.7599l.0587-.012C8.6543,.0909,9.9697-.0583,11.3147,.021l.0587,.0023c.6526,.0743,1.2948,.2054,1.9329,.3579h0c.6886,.2358,1.3586,.5153,2.0053,.8498l.0488,.0358,.0468,.0246,.1087,.0631c.6384,.4006,1.2162,.8808,1.7923,1.3634l-.0004-.0005c.2218,.1586,.1996,.2929,.0248,.5046-.5397,.6535-1.0475,1.3332-1.5678,2.0027l-.049,.0602c-.1285,.1395-.257,.279-.3485,.4474l-.0556,.0657c-.3891,.458-.7627,.9281-1.1111,1.418l-.0461,.0626c-.2919,.3397-.5442,.706-.7411,1.1091-.1956,.4004-.1552,.5969,.183,.8984l-.0007-.0006c.506,.4783,1.1052,.8188,1.707,1.1555l.0007,.0011,1.3794,.8329c.0087,.0141,.0211,.0194,.0373,.016,.1807,.138,.3728,.257,.581,.3493l.0008,.0011,1.9501,1.1814,.0488,.0387,.5642,.3667,.075,.0528c.5241,.4075,1.0058,.8528,1.302,1.4633l.0211,.0782,.1133,.3995c-.002,.008-.0074,.017-.0054,.0238,.0046,.0152,.013,.0293,.0198,.0438,.0758,.4648,.003,.9156-.1279,1.3609l-.0228,.0898-.1789,.4118-.0029,.0027c-.3663,.6964-.82,1.3392-1.2311,2.0082l-.0384,.0495-.5331,.8086-.0016,.0035c-.2715,.3632-.5236,.7393-.7523,1.131l.0002-.0003c-.1824,.1429-.2038,.5016-.4391,.4954-.193-.0051-.38-.2246-.5704-.3479-.0394-.0255-.082-.046-.1231-.0688l-.0477-.0295,.0045,.0042-.0733-.0466c-.2094-.1466-.4125-.3035-.6303-.4363-.1456-.0888-.1399-.1628-.0526-.2915,.2554-.3763,.4987-.7608,.7468-1.1422l.0527-.0775c.4591-.6499,.9053-1.3082,1.3182-1.9887l-.0006,.0007c.2738-.3751,.5126-.7702,.6799-1.2053,.124-.3223,.0607-.5934-.2274-.7994l-.0005-.0005c-.5249-.4935-1.1572-.8269-1.7701-1.1893l-.052-.0283c-.3973-.2615-.8015-.5115-1.2236-.7315-.2452-.1777-.5062-.3293-.775-.4678l-1.9461-1.1797-.0486-.0387-.5228-.3563c-.0054-.0135-.0152-.0184-.0292-.015-.5985-.4732-1.1333-.9972-1.3877-1.7443-.0101-.0862,.0064-.1772-.0472-.2554-.0349-.3215-.0351-.6422,.0207-.9618,.074-.3397,.2278-.6498,.3596-.9681,.4325-.698,.9427-1.3404,1.4304-1.9989l.0492-.0603,.1214-.1576,.0554-.067,1.3095-1.6594,.0012-.0018c.1052-.0754,.0402-.1233-.0293-.1654-.4093-.2477-.8211-.4904-1.2816-.6345h0c-.6362-.2882-1.3084-.4328-1.9998-.5005l-.0586-.0041c-.6497-.0871-1.2962-.0638-1.94,.0556l-.0586,.005c-.6783,.1047-1.3331,.2849-1.9434,.6073l-.0551,.0222c-.3488,.1432-.6756,.3249-.9736,.5568l-.0837,.053c-.3061,.1888-.5846,.4116-.8318,.6733l-.0596,.0561c-.3906,.3403-.7191,.7348-1.0109,1.1611l-.0419,.0505c-.3236,.3896-.6446,.7812-.8875,1.2292-.168,.2151-.2903,.4561-.4012,.7037-.5312,.9814-.8346,2.0332-.9624,3.1379-.0336,.2904-.0799,.5811-.0512,.8757v.0587c-.032,.6544,.018,1.3017,.1684,1.9403l.0057,.0587c.1251,.6731,.3136,1.3258,.6213,1.9404l.0173,.0585c.1474,.3628,.3224,.7107,.5496,1.0309l.0529,.084c.1403,.2869,.3339,.5369,.5391,.7788l.0406,.0486c.3862,.5425,.8664,.9952,1.3657,1.4297l-.0002-.0002,.5493,.5181,.0707,.0551c.4181,.4417,.8712,.8463,1.3231,1.2521l.0006,.0006,.7965,.7453-.0007-.0006c.3859,.3921,.7845,.7705,1.2029,1.1279l.0477,.0499,.8236,.7731,.053,.0454c.3379,.3496,.6877,.6866,1.063,.9963,.001,.0168,.0098,.0267,.0264,.0297l1.0148,.9579c.0029,.0165,.0126,.0252,.0293,.0261l.9291,.8726,.0603,.0625,1.0109,.9452,.0658,.0569c.2714,.2886,.5597,.5592,.8643,.8125l.0583,.062,1.2026,1.1216-.0007-.0006c.2292,.2503,.4736,.4844,.7419,.6928l.0585,.0569c.4189,.4348,.8639,.8419,1.3159,1.2415,.0791,.08,.1566,.1617,.2376,.2397q.345,.3326,.6923,.0084c.1025-.0959,.2017-.1954,.3024-.2932l1.3983-1.3176-.0006,.0007c.2361-.1993,.4691-.4018,.6735-.6348l.0054-.0049c.4566-.3978,.9014-.8082,1.3212-1.2451l-.0008,.0009c.2878-.2254,.5457-.4829,.7997-.7445l-.0005,.0005c.3926-.3465,.7817-.6966,1.1423-1.077l.0575-.0598c.3095-.2442,.5939-.5152,.8607-.8051l.0608-.0571c.361-.2961,.6934-.6229,1.0225-.9533l.0585-.0588,.9858-.9243,.0672-.0588,.8306-.783,.0604-.0535,1.1751-1.1128,.0531-.0474,.7107-.6625,.0598-.0624,1.3063-1.2249,.0609-.0571c.1981-.172,.4036-.3362,.5714-.5403l.0501-.0463c.4733-.4056,.9188-.8377,1.2832-1.3471l.0558-.0607c.2319-.279,.4389-.575,.6084-.8965l.0626-.113c.1945-.2694,.3383-.565,.4536-.8754l-.0003,.0005c.3143-.633,.5261-1.299,.6412-1.996l.0017-.0016c.29-1.3412,.2715-2.6766-.0748-4.0058l-.0104-.0587c-.1375-.685-.3906-1.328-.7067-1.9482-.1034-.2279-.2188-.449-.3669-.6517-.2653-.4886-.603-.9251-.9656-1.3437l-.0451-.0626c-.2725-.3937-.567-.7684-.9337-1.0806l.0005,.0006c-.2804-.3157-.6052-.5777-.9636-.7993-.0172-.0439-.054-.0579-.0965-.0633-.284-.2332-.6087-.3963-.9417-.5447l-.0583-.0206c-.6092-.3227-1.2636-.5022-1.94-.6118l-.0585-.0063c-.625-.1052-1.2518-.1538-1.8831-.0587l-.0584,.0025c-.6704,.0488-1.319,.191-1.9402,.4514l-.0584,.012c-.5295,.1995-1.0373,.4406-1.4926,.7818l-.0783,.0544-.3796,.2537c-.0117-.007-.0238-.0081-.0365-.0033l-.2099-.2505-.0436-.0509c-.2765-.3585-.5455-.7232-.8333-1.0723-.1157-.1404-.0938-.2105,.0464-.3024,.2754-.1805,.5424-.3738,.8129-.5618l.0889-.0494,.1268-.0721,.0649-.0371c.6225-.3232,1.2739-.5777,1.9335-.8125l.0588-.0118c.6395-.1551,1.284-.2821,1.94-.3441l.0584-.0033c1.3268-.0755,2.6218,.0891,3.8818,.516l.0586,.0148c.5675,.2292,1.1194,.4909,1.6546,.7878l.2903,.1773c.7274,.5015,1.3851,1.0833,1.989,1.7271l.0476,.0628-.0043-.0039,.0489,.0526,1.4563,1.9287,.0014,.0026,.4497,.7521c-.0033,.0188,.0021,.0347,.016,.0478l.5415,1.1475,.022,.0529c.2252,.6366,.4174,1.283,.5713,1.9406l.0067,.0582c.1151,.6421,.1621,1.2917,.2146,1.9407v.0587c-.0104,1.343-.2275,2.6525-.6365,3.9309l-.0005,.0004c-.2324,.5394-.447,1.0868-.719,1.6085l-.1846,.3398c-.4456,.7035-.9286,1.3791-1.4862,1.9993l.0005-.0004-.2924,.3065-.0482,.0509-1.7412,1.6352-.0613,.0591-.1477,.1401-.048,.05c-.6423,.567-1.2655,1.1545-1.8727,1.7589l-.0518,.047c-.0409,.0042-.0679,.0239-.0744,.0665l-.0003,.0003c-.6574,.6117-1.315,1.2231-1.9711,1.8361-.0182,.017-.0213,.05-.0311,.0754l.0006,.0095,.0387,.0187h-.0112Z"/></svg>