<?xml version="1.0" encoding="utf-8"?>
<!-- Generator: Adobe Illustrator 26.2.1, SVG Export Plug-In . SVG Version: 6.00 Build 0)  -->
<svg version="1.1" id="a" xmlns="http://www.w3.org/2000/svg" xmlns:xlink="http://www.w3.org/1999/xlink" x="0px" y="0px"
	 viewBox="0 0 216.5 42" style="enable-background:new 0 0 216.5 42;" xml:space="preserve">
<style type="text/css">
	.st0{fill:#28445B;}
	.st1{fill:#ED0061;}
</style>
<polygon class="st0" points="55.6,12.5 55.6,30.3 58.4,30.3 58.4,17 64.1,28.5 66,28.5 71.7,17 71.7,30.3 74.5,30.3 74.5,12.5 
	71,12.5 65.1,24.3 59.2,12.5 "/>
<path class="st0" d="M90.1,30.3l0-8.9c0-3-2-4.8-5.5-4.8c-2.6,0-4,0.6-5.9,1.7l1.2,2c1.4-0.9,2.7-1.4,4-1.4c2.1,0,3.2,1,3.2,2.7v0.4
	h-4.1c-3.3,0-5.1,1.6-5.1,4.1c0,2.4,1.8,4.2,4.8,4.2c2,0,3.5-0.6,4.5-1.8v1.7L90.1,30.3L90.1,30.3z M87.2,25.6
	c-0.2,1.5-1.8,2.6-3.9,2.6c-1.6,0-2.6-0.8-2.6-2c0-1.3,0.9-1.8,2.8-1.8h3.7L87.2,25.6L87.2,25.6z"/>
<path class="st0" d="M101,27.2c-0.8,0.4-1.4,0.6-2,0.6c-0.9,0-1.5-0.4-1.5-1.8v-6.5h4v-2.2h-4v-3.7h-2.9v3.7h-1.9v2.2h1.9v7.1
	c0,2.8,1.8,4,3.8,4c1.2,0,2.3-0.4,3.3-1C101.7,29.5,101,27.2,101,27.2z"/>
<path class="st0" d="M113.9,20.8l1.6-1.9c-1.3-1.4-3.2-2.2-5.6-2.2c-4,0-6.9,2.8-6.9,6.9c0,4.1,2.8,6.9,6.9,6.9
	c2.6,0,4.6-0.9,5.8-2.5l-1.6-1.6c-0.9,1.1-2.3,1.6-4,1.6c-2.4,0-4-1.8-4-4.3s1.7-4.3,4-4.3C111.6,19.2,112.9,19.8,113.9,20.8z"/>
<path class="st0" d="M126.8,16.6c-2.3,0-4.1,0.8-5,2.8v-8h-2.9v19h2.9v-6.7c0-2.4,1.5-4.2,3.9-4.2c2,0,3.3,1.3,3.3,3.3v7.6h2.9v-8.5
	C131.9,18.6,130,16.6,126.8,16.6L126.8,16.6z"/>
<path class="st0" d="M164.8,17.3l1.8-2.2c-1.7-1.7-4.3-2.8-6.8-2.8c-5.3,0-9.4,3.9-9.4,9c0,5.1,4.1,9.1,9.3,9.1
	c2.5,0,5.1-1.2,6.9-2.9l-1.8-2c-1.4,1.3-3.2,2.1-5,2.1c-3.6,0-6.4-2.8-6.4-6.3s2.8-6.3,6.4-6.3C161.6,15.1,163.4,15.9,164.8,17.3
	L164.8,17.3z"/>
<path class="st0" d="M172.4,19.5v-2.7h-2.9v13.6h2.9v-7.1c0.2-2.3,2-3.9,4.7-3.8v-2.8C174.9,16.6,173.3,17.6,172.4,19.5L172.4,19.5z
	"/>
<path class="st0" d="M181,11.1c-1,0-1.7,0.7-1.7,1.8c0,1,0.7,1.7,1.7,1.7s1.7-0.7,1.7-1.7C182.7,11.8,181.9,11.1,181,11.1z"/>
<rect x="179.5" y="16.7" class="st0" width="2.9" height="13.6"/>
<path class="st0" d="M194.5,20.2l1.1-2.2c-1.2-0.9-3-1.4-4.8-1.4c-2.6,0-5,1.2-5,3.9c0,4.9,7.1,3.3,7.1,6.1c0,1-1,1.5-2.2,1.5
	c-1.5,0-3.4-0.6-4.6-1.7l-1,2.1c1.4,1.2,3.5,1.9,5.5,1.9c2.7,0,5.2-1.3,5.2-4c0-4.9-7.2-3.6-7.2-6.1c0-1,0.8-1.4,2-1.4
	C191.8,19,193.3,19.4,194.5,20.2L194.5,20.2z"/>
<path class="st0" d="M200.2,11.1c-1,0-1.7,0.7-1.7,1.8c0,1,0.7,1.7,1.7,1.7s1.7-0.7,1.7-1.7C201.9,11.8,201.2,11.1,200.2,11.1z"/>
<rect x="198.8" y="16.7" class="st0" width="2.9" height="13.6"/>
<path class="st0" d="M213.8,20.2l1.1-2.2c-1.2-0.9-3-1.4-4.8-1.4c-2.6,0-5,1.2-5,3.9c0,4.9,7.1,3.3,7.1,6.1c0,1-1,1.5-2.2,1.5
	c-1.5,0-3.4-0.6-4.6-1.7l-1,2.1c1.4,1.2,3.5,1.9,5.5,1.9c2.7,0,5.2-1.3,5.2-4c0-4.9-7.2-3.6-7.2-6.1c0-1,0.8-1.4,2-1.4
	C211.1,19,212.6,19.4,213.8,20.2L213.8,20.2z"/>
<path class="st0" d="M28.4,8.9c4.4,4.4,8.7,8.8,13.1,13.2l0.1,0.1c4.7-4.9,4.6-12.7-0.1-17.5c-4.8-4.8-12.5-4.9-17.4-0.1l-1.1,1.1
	l-3.5,3.5c-1.2,1.2-1.2,3.1,0,4.3c1.2,1.2,3.1,1.2,4.3,0C25.3,12,26.9,10.4,28.4,8.9L28.4,8.9L28.4,8.9z"/>
<path class="st0" d="M23.6,35l-2.7,2.8c-1.7,1.8,0.9,4.4,2.6,2.6l2.7-2.8C27.9,35.9,25.3,33.3,23.6,35z"/>
<path class="st0" d="M19.9,31.3L17.2,34c-1.2,1.2-0.3,3.2,1.3,3.2c0.5,0,0.9-0.2,1.3-0.5l2.7-2.8C24.2,32.2,21.6,29.5,19.9,31.3z"/>
<path class="st0" d="M16.2,27.5l-2.7,2.8c-1.2,1.2-0.3,3.2,1.3,3.2c0.5,0,0.9-0.2,1.3-0.5l2.7-2.8C20.5,28.4,17.9,25.8,16.2,27.5
	L16.2,27.5z"/>
<path class="st1" d="M19.7,26.2c2.9,3,5.9,6,8.8,8.9c2.3,2.3,5.1-1.4,3.2-3.3l-7.5-7.6l-1.6-1.7c-0.7-0.7,0.4-1.8,1.1-1.1l1.6,1.7
	l5.5,5.6l2,2c0.4,0.4,1,0.7,1.6,0.7c2,0,3.1-2.5,1.6-3.9l-9.2-9.2c-0.7-0.7,0.4-1.8,1.1-1.1l9.2,9.3c0.4,0.4,1,0.7,1.6,0.7
	c2,0,3.1-2.5,1.6-3.9c-4-4-8-8.1-12-12.1l-3.5,3.5c-1.8,1.8-4.7,1.8-6.4,0c-1.8-1.8-1.8-4.7,0-6.5L22,4.6C17.1-0.1,9.4-0.1,4.7,4.7
	c-4.8,4.9-4.8,12.7,0,17.6l3.6,3.6l0.4-0.5l2.7-2.8c2.2-2.2,6.1-0.4,5.8,2.8C18.5,25.3,19.2,25.7,19.7,26.2L19.7,26.2z"/>
<path class="st1" d="M140.8,12.4l-6.3,11.3V26h8.7v4.4h2.8V26h2.7v-2.7h-2.6l0-4.2h-2.8l0,4.2h-5.5l5.9-10.8L140.8,12.4L140.8,12.4z
	"/>
<path class="st0" d="M12.5,23.5l-2.7,2.8c-1.2,1.2-0.3,3.2,1.3,3.2c0.5,0,0.9-0.2,1.3-0.5l2.7-2.8C16.8,24.4,14.2,21.8,12.5,23.5
	C12.5,23.5,12.5,23.5,12.5,23.5z"/>
</svg>
