<?xml version="1.0" encoding="utf-8"?>
<!-- Generator: Adobe Illustrator 26.2.1, SVG Export Plug-In . SVG Version: 6.00 Build 0)  -->
<svg version="1.1" id="a" xmlns="http://www.w3.org/2000/svg" xmlns:xlink="http://www.w3.org/1999/xlink" x="0px" y="0px"
	 viewBox="0 0 216.5 42" style="enable-background:new 0 0 216.5 42;" xml:space="preserve">
<style type="text/css">
	.st0{fill:#28445B;}
	.st1{fill:#ED0061;}
</style>
<path class="st0" d="M28.4,8.9c4.4,4.4,8.7,8.8,13.1,13.2l0.1,0.1c4.7-4.9,4.6-12.7-0.1-17.5C36.7-0.1,29-0.2,24.1,4.6L23,5.7
	l-3.5,3.5c-1.2,1.2-1.2,3.1,0,4.3s3.1,1.2,4.3,0C25.3,12,26.9,10.4,28.4,8.9L28.4,8.9L28.4,8.9z"/>
<path class="st0" d="M23.6,35l-2.7,2.8c-1.7,1.8,0.9,4.4,2.6,2.6l2.7-2.8C27.9,35.9,25.3,33.3,23.6,35z"/>
<path class="st0" d="M19.9,31.3L17.2,34c-1.2,1.2-0.3,3.2,1.3,3.2c0.5,0,0.9-0.2,1.3-0.5l2.7-2.8C24.2,32.2,21.6,29.5,19.9,31.3z"/>
<path class="st0" d="M16.2,27.5l-2.7,2.8c-1.2,1.2-0.3,3.2,1.3,3.2c0.5,0,0.9-0.2,1.3-0.5l2.7-2.8C20.5,28.4,17.9,25.8,16.2,27.5
	L16.2,27.5z"/>
<path class="st1" d="M19.7,26.2c2.9,3,5.9,6,8.8,8.9c2.3,2.3,5.1-1.4,3.2-3.3l-7.5-7.6l-1.6-1.7c-0.7-0.7,0.4-1.8,1.1-1.1l1.6,1.7
	l5.5,5.6l2,2c0.4,0.4,1,0.7,1.6,0.7c2,0,3.1-2.5,1.6-3.9l-9.2-9.2c-0.7-0.7,0.4-1.8,1.1-1.1l9.2,9.3c0.4,0.4,1,0.7,1.6,0.7
	c2,0,3.1-2.5,1.6-3.9c-4-4-8-8.1-12-12.1l-3.5,3.5c-1.8,1.8-4.7,1.8-6.4,0c-1.8-1.8-1.8-4.7,0-6.5L22,4.6C17.1-0.1,9.4-0.1,4.7,4.7
	c-4.8,4.9-4.8,12.7,0,17.6l3.6,3.6l0.4-0.5l2.7-2.8c2.2-2.2,6.1-0.4,5.8,2.8C18.5,25.3,19.2,25.7,19.7,26.2L19.7,26.2z"/>
<path class="st0" d="M12.5,23.5l-2.7,2.8c-1.2,1.2-0.3,3.2,1.3,3.2c0.5,0,0.9-0.2,1.3-0.5l2.7-2.8C16.8,24.4,14.2,21.8,12.5,23.5
	L12.5,23.5z"/>
<g>
	<path class="st0" d="M77.3,20.9v8.6h-3v-7.8c0-2.1-1.2-3.4-3.3-3.4c-2.4,0.1-3.8,1.9-3.8,4.3v6.8h-3v-7.8c0-2.1-1.2-3.4-3.2-3.4
		c-2.4,0.1-3.8,1.9-3.8,4.3v6.8h-3V15.6h3v2.7c1-2,2.7-2.8,5-2.8c2.5,0,4.2,1.2,4.8,3.3c0.9-2.3,2.7-3.3,5.3-3.3
		C75.4,15.5,77.3,17.6,77.3,20.9z"/>
	<path class="st0" d="M89.6,29.5v-1.7c-1,1.2-2.6,1.8-4.6,1.8c-3,0-4.9-1.8-4.9-4.3c0-2.5,1.9-4.1,5.2-4.2h4.2v-0.4
		c0-1.7-1.1-2.8-3.3-2.8c-1.3,0-2.7,0.5-4.1,1.4L81,17.3c1.9-1.1,3.3-1.7,6-1.7c3.6,0,5.6,1.8,5.6,4.9l0,9.1H89.6z M89.6,24.6v-1.3
		h-3.7c-2,0-2.9,0.5-2.9,1.8c0,1.2,1,2.1,2.7,2.1C87.8,27.2,89.4,26.1,89.6,24.6z"/>
	<path class="st0" d="M104.4,28.6c-1.1,0.7-2.2,1-3.4,1c-2.1,0-3.9-1.2-3.9-4v-7.2h-1.9v-2.2h1.9v-3.8h3v3.8h4.1v2.2H100V25
		c0,1.4,0.5,1.9,1.5,1.9c0.6,0,1.3-0.2,2.1-0.6L104.4,28.6z"/>
	<path class="st0" d="M112.8,18.2c-2.4,0-4.1,1.8-4.1,4.4c0,2.6,1.7,4.4,4.1,4.4c1.7,0,3.1-0.6,4.1-1.7l1.7,1.7
		c-1.2,1.6-3.2,2.6-5.9,2.6c-4.1,0-7-2.8-7-7c0-4.2,2.9-7,7-7c2.5,0,4.4,0.8,5.7,2.3l-1.6,1.9C115.7,18.7,114.4,18.1,112.8,18.2z"/>
	<path class="st0" d="M135,20.9v8.6h-3v-7.8c0-2.1-1.2-3.4-3.3-3.4c-2.5,0-4,1.9-4,4.3v6.8h-3V10.2h3v8.2c1-2,2.8-2.8,5.1-2.8
		C133.1,15.5,135,17.6,135,20.9z"/>
	<path class="st1" d="M147,11.3l-6,11h5.6l0-4.3h2.9l0,4.3h2.7V25h-2.7v4.5h-2.9V25h-8.9v-2.3l6.4-11.5H147z"/>
	<path class="st0" d="M160.9,18.2c-2.4,0-4.1,1.8-4.1,4.4c0,2.6,1.7,4.4,4.1,4.4c1.7,0,3.1-0.6,4.1-1.7l1.7,1.7
		c-1.2,1.6-3.2,2.6-5.9,2.6c-4.1,0-7-2.8-7-7c0-4.2,2.9-7,7-7c2.5,0,4.4,0.8,5.7,2.3l-1.6,1.9C163.8,18.7,162.5,18.1,160.9,18.2z"/>
	<path class="st0" d="M177.5,15.5v2.9c-2.8-0.2-4.5,1.5-4.8,3.8v7.2h-3V15.6h3v2.8C173.6,16.5,175.3,15.5,177.5,15.5z"/>
	<path class="st0" d="M183.2,11.7c0,1-0.8,1.8-1.7,1.8s-1.7-0.8-1.7-1.8c0-1,0.8-1.8,1.7-1.8S183.2,10.7,183.2,11.7z M182.9,15.6
		v13.8h-3V15.6H182.9z"/>
	<path class="st0" d="M191.2,17.9c-1.2,0-2,0.4-2,1.4c0,2.5,7.4,1.2,7.3,6.2c0,2.8-2.5,4.1-5.3,4.1c-2,0-4.2-0.7-5.6-1.9l1.1-2.1
		c1.2,1.1,3.1,1.7,4.6,1.7c1.3,0,2.3-0.4,2.3-1.5c0-2.8-7.3-1.2-7.3-6.2c0-2.8,2.4-4,5.1-4c1.7,0,3.6,0.5,4.8,1.4l-1.1,2.2
		C194,18.4,192.5,17.9,191.2,17.9z"/>
	<path class="st0" d="M202.8,11.7c0,1-0.8,1.8-1.7,1.8s-1.7-0.8-1.7-1.8c0-1,0.8-1.8,1.7-1.8S202.8,10.7,202.8,11.7z M202.5,15.6
		v13.8h-3V15.6H202.5z"/>
	<path class="st0" d="M210.9,17.9c-1.2,0-2,0.4-2,1.4c0,2.5,7.4,1.2,7.3,6.2c0,2.8-2.5,4.1-5.3,4.1c-2,0-4.2-0.7-5.6-1.9l1.1-2.1
		c1.2,1.1,3.1,1.7,4.6,1.7c1.3,0,2.3-0.4,2.3-1.5c0-2.8-7.3-1.2-7.3-6.2c0-2.8,2.4-4,5.1-4c1.7,0,3.6,0.5,4.8,1.4l-1.1,2.2
		C213.6,18.4,212.1,17.9,210.9,17.9z"/>
</g>
</svg>
