<?xml version="1.0" encoding="utf-8"?>
<!-- Generator: Adobe Illustrator 26.1.0, SVG Export Plug-In . SVG Version: 6.00 Build 0)  -->
<svg version="1.1" id="a" xmlns="http://www.w3.org/2000/svg" xmlns:xlink="http://www.w3.org/1999/xlink" x="0px" y="0px"
	 viewBox="0 0 75 75" style="enable-background:new 0 0 75 75;" xml:space="preserve">
<style type="text/css">
	.st0{fill:url(#SVGID_1_);}
	.st1{fill:#FFFFFF;}
</style>
<linearGradient id="SVGID_1_" gradientUnits="userSpaceOnUse" x1="-6.1845" y1="725.728" x2="81.1845" y2="781.272" gradientTransform="matrix(1 0 0 1 0 -716)">
	<stop  offset="0" style="stop-color:#F5980F"/>
	<stop  offset="1" style="stop-color:#FAC903"/>
</linearGradient>
<circle class="st0" cx="37.5" cy="37.5" r="37.5"/>
<path class="st1" d="M45.7,41.2c0,4.2-3.4,7.1-8.9,7.1c-3.2,0-6.5-1.1-8.6-2.7l2.3-4.4c1.7,1.8,3.8,2.7,5.8,2.7c2.4,0,3.7-1,3.7-2.7
	c0-1.7-1.3-2.6-3.8-2.6h-3.7v-3l5.1-4.9h-8.4l0-4.4h15.2v3.3l-5.9,5.5l1.1,0.2C43.2,35.8,45.7,37.9,45.7,41.2z"/>
</svg>
