<?xml version="1.0" encoding="UTF-8"?><svg id="a" xmlns="http://www.w3.org/2000/svg" width="50" height="50" viewBox="0 0 50 50"><path d="M37.8957,16.4192c-.2198-1.0313-.8564-1.6791-1.0704-1.8929-.3325-.3436-.8958-.9126-1.7806-.9748-.1071-.0056-.2086-.0056-.3098,0-.1633-.8338-.7605-1.4028-1.0986-1.7297-.3154-.3098-1.2845-1.2395-2.7494-1.2733-.2198-.0056-.434,.0056-.6534,.0394-.0506-.1239-.1183-.248-.1859-.3663-.6196-1.0313-1.6226-1.3916-2.0566-1.5438-.569-.2086-1.4366-.524-2.3552-.1183-.1521,.0677-.2986,.1521-.4337,.248-.4113-.6593-1.0647-.952-1.4311-1.1157-1.0197-.4619-1.9212-.3548-2.2199-.3213-.4281,.0506-.9636,.1127-1.4876,.4902-.6199,.4396-.8393,1.0424-1.0142,1.527l-.0282,.0733c-.276,.7549-.6311,1.5325-1.0647,2.3158-.3213-.0677-.7211-.09-1.1663,.0227-.9465,.231-1.4481,.9186-1.6397,1.2451l-2.8062,5.696c-.231,.4057-.3325,.8847-.2875,1.3466,.0506,.4957,.2536,.8676,.4281,1.1042l2.2593,4.3102,.0621,.0959c.5352,.6534,1.093,1.3072,1.6564,1.9327,.293,.3381,.5917,.6649,.8621,.952,.2365,.2875,.4169,.6028,.5352,.9353,.248,.6929,.1859,1.3072,.1633,1.5608-.1298,1.2451-.2704,5.3694-.4563,11.0604l-.0171,.5805,15.0267,.045c.3154,0,.569-.2536,.5634-.569l-.0844-12.3223,.1353-.0733,.1294-.1015c.8788-.8788,1.6114-1.8762,2.1919-2.9748,.5973-1.138,1.0142-2.3608,1.2395-3.6509l.3945-2.8003c.0056-.0282,.0056-.0562,.0056-.0844,0-.0506-.0056-.0959-.0227-.1409,.0621-.1692,.1294-.3492,.1971-.5408,.4737-1.3246,.7553-2.1245,.5693-2.9866v-.0003Zm-3.2452-1.7185c.1071-.0227,.2142-.0282,.3157-.0227,.4619,.0282,.7888,.3663,1.0592,.6367,.1692,.1748,.6199,.6311,.772,1.341,.0056,.0282,.0112,.0506,.0168,.0788,0,.0227,.0056,.045,.0112,.0677,.045,.4902-.1521,1.0818-.5578,2.2254-.4563,1.279-.6817,1.9212-1.0762,2.372-.2365,.2704-.9015,.9353-1.9212,1.1945-.4396,.1127-.9803,.248-1.3749-.0168-.1183-.0788-.2254-.1971-.3042-.3381-.0168-.0227-.0338-.0506-.045-.0788,.0394-.0506,.0788-.1071,.1183-.1633l2.9863-7.2965Zm-4.1581-3.0086c.1183-.0168,.2421-.0227,.3663-.0168,1.0313,.0227,1.7297,.6988,1.9945,.9577,.3269,.3154,.7776,.7494,.7944,1.3184,.0056,.0844-.0056,.1633-.0056,.1748-.0056,.0394-.0056,.0733-.0168,.1071l-2.9301,7.1894c-.1127,.1521-.2421,.2704-.3886,.3548-.3381,.1859-.8453,.0677-1.9606-.2142-1.1718-.2986-1.3016-.4846-1.3522-.5634-.0282-.0394-.0506-.0788-.0733-.1183,0,0-.09-.3945-.1071-.4281-.0168-.0394-.0112-.045-.0168-.0677,.2027-.5184,.4057-1.0368,.6084-1.5493l3.0875-7.1444Zm-4.8398-1.7806c.1294-.1409,.276-.248,.4396-.3213,.5013-.2198,1.0424-.0282,1.5211,.1465,.3663,.1294,1.0536,.3775,1.4649,1.0647,.0788,.1353,.1465,.276,.1971,.4225l-2.9074,7.1723-.5746,1.3355c-.1577,.0677-.4507,.1859-.6423,.2254-1.1042,.231-1.9383-.4113-1.9721-.4396-.0394-.0338-.0733-.0621-.1071-.09-.3436-.3325-.5746-.7605-.6761-1.279,.2536-.0733,.5013-.1804,.7549-.3269,.8453-.4902,1.3634-1.1269,1.5381-1.8874,.0788-.3607,.0788-.7438,0-1.1269l-.0621-.2875-.8509-.3548,1.8768-4.2537Zm-5.5724-.0618l.0282-.0788c.1465-.4057,.276-.7549,.6084-.9974,.2875-.2086,.6199-.2421,.9636-.2875,.2198-.0227,.8903-.1015,1.6281,.231,.3381,.1521,.7999,.3607,1.0085,.8227,.045,.0959,.0788,.1971,.0959,.3098l-1.6735,3.8822-3.7186-1.5552c.4225-.7829,.7776-1.5661,1.0592-2.3266h.0001Zm15.5615,12.9477c-.2027,1.1551-.5861,2.2648-1.1269,3.3017-.5013,.9465-1.1269,1.8141-1.8706,2.5806-.0394,.045-.09,.0844-.1465,.1127l-2.0454,1.1157c-.2704,.1465-.3775,.4846-.2309,.7549l.0056,.0112c.1465,.276,.4846,.3831,.7549,.2421l.1353-.0733c.3775-.1915,.8227,.0788,.8227,.4957l.0677,9.6292c0,.3098-.2536,.569-.5634,.569l-12.1531-.0391c-.3154,0-.569-.2648-.5578-.5861,.1577-4.9243,.293-8.705,.4113-9.8374,.0282-.276,.1127-1.1045-.2254-2.0395-.1633-.4507-.4057-.8732-.7438-1.2901-.2875-.3154-.5802-.6311-.8732-.9636-.524-.5861-1.048-1.1945-1.5493-1.803-.0227-.0338-.045-.0677-.0621-.1015l-2.2313-4.2481-.0506-.0788c-.09-.1183-.2027-.3154-.231-.5746-.0338-.3154,.0788-.5578,.1577-.7099l2.8003-5.6851c.0788-.1239,.3719-.5522,.9241-.6873,.4396-.1127,.8056,.0112,1.003,.1015l5.561,2.3269c0,.1239-.0112,.248-.0338,.3663-.1521,.6649-.7944,1.0424-1.0085,1.1663-.5746,.3381-1.1663,.3663-2.2425,.4169-.2198,.0112-.4451,.0168-.6649,.0112-.1239,0-.248-.045-.3436-.1239l-.9803-.7944c-.2309-.1804-.5578-.1577-.7605,.0506l-.0621,.0621c-.2027,.2142-.2086,.5467-.0112,.7661l.7155,.7999,.0227,.1971c-.9241,.2421-1.4593,.4563-1.3692,1.0197,.09,.5917,.7549,.5805,1.5325,.5522,.09,.0168,.2027,.0506,.3325,.1015,.6534,.248,1.0313,.7044,1.3916,1.1495,.1353,.1633,.2592,.3098,.3831,.4396,.7044,.7211,1.1889,1.003,1.6508,1.279,.4507,.2648,.9126,.5408,1.6791,1.2733,.8227,.7888,1.1663,1.1324,1.4199,1.7467,.2986,.7155,.2819,1.3355,.2142,2.5579-.045,.8732-.1692,1.7524-.3663,2.62-.0677,.2986,.1071,.5973,.4001,.6761h.0056c.3042,.0788,.6196-.1015,.6929-.4113,.2142-.9353,.3436-1.8874,.3945-2.8283,.0621-1.2001,.1071-2.0621-.2986-3.0424-.3607-.8621-.8564-1.341-1.6846-2.1298-.8564-.8282-1.4028-1.1495-1.8818-1.4311-.4396-.2592-.817-.4846-1.4199-1.0986-.1015-.1071-.2027-.231-.3154-.3663-.3607-.4396-.8393-1.0197-1.634-1.3916v-.5522c.3381,.0112,.6761,.0112,1.0142-.0056,.3042-.0171,.5861-.0282,.8453-.0506,.0056,.434,.1015,.8564,.2875,1.2339,.5352,1.093,1.5664,1.4537,1.9045,1.572,.9409,.3325,1.8141,.1915,2.389,.0171,.0112,.0227,.0227,.0506,.0338,.0733l.1748,.6988,.1577,.1183c.5917,.4396,1.5664,.9859,2.8736,1.0647,.5578,.0338,1.1101-.0227,1.6508-.1633,.1521,.2198,.3436,.4113,.5578,.5522,.3886,.2592,.7999,.3436,1.1889,.3436,.4169,0,.7999-.0959,1.0874-.1692,.9691-.2421,1.6791-.7549,2.1354-1.1774l-.0405,.2862Z"/></svg>