<?xml version="1.0" encoding="utf-8"?>
<!-- Generator: Adobe Illustrator 26.2.1, SVG Export Plug-In . SVG Version: 6.00 Build 0)  -->
<svg version="1.1" id="a" xmlns="http://www.w3.org/2000/svg" xmlns:xlink="http://www.w3.org/1999/xlink" x="0px" y="0px"
	 viewBox="0 0 50 50" style="enable-background:new 0 0 50 50;" xml:space="preserve">
<path d="M25,0.6c-9.2,0-16.7,7.5-16.8,16.7v15.2c0,9.3,7.5,16.8,16.8,16.8s16.8-7.5,16.8-16.8V17.4C41.8,8.1,34.2,0.6,25,0.6
	C25,0.6,25,0.6,25,0.6z M13.3,41.4c-1.8-2.5-3-5.6-3-8.9v-9.3c1.9,3.5,5.5,7.8,12,10.8c0.1,0.1,0.2,0.1,0.2,0.1
	C17.4,37.1,14.6,40,13.3,41.4L13.3,41.4L13.3,41.4z M21.9,13.4c0.8,0.8,1.9,1.2,3.1,1.2c1.2,0,2.3-0.4,3.1-1.2
	c0.8-0.8,1.2-1.9,1.2-3.1c0-0.3,0-0.6-0.1-0.9c1.5,1,2.6,2.5,3.1,4.4c0.1,0.5,0.5,0.8,1,0.8l0.9,0c0.6,0,1.1,0.5,1.1,1.1
	c0,0.6-0.5,1.1-1.1,1.1h-0.8c-0.5,0-0.9,0.3-1,0.8c-0.9,3.4-3.9,5.7-7.4,5.7s-6.4-2.3-7.3-5.7c-0.1-0.5-0.5-0.8-1-0.8h-0.9
	c-0.6,0-1.1-0.5-1.1-1.1c0-0.6,0.5-1.1,1.1-1.1h0.8c0.5,0,0.9-0.3,1-0.8c0.9-3.4,3.9-5.7,7.4-5.7c0.6,0,1.1,0.2,1.5,0.6
	c0.4,0.4,0.6,1,0.6,1.5c0,0.5-0.2,1.1-0.6,1.5c-0.8,0.8-2.3,0.8-3.1,0c-0.4-0.4-1.1-0.4-1.5,0C21.5,12.3,21.5,13,21.9,13.4
	L21.9,13.4L21.9,13.4z M20.5,24.4c1.4,0.7,2.9,1.1,4.4,1.1s3.1-0.4,4.4-1.1c1.9,0.1,3.6,1.2,4.3,2.9c-1.8,1.7-4.1,3.4-7.1,4.8
	c-0.6,0.3-1.1,0.5-1.7,0.8c-0.5-0.3-1.1-0.5-1.7-0.8c-3-1.4-5.3-3-7.1-4.8C17,25.6,18.6,24.5,20.5,24.4L20.5,24.4L20.5,24.4z
	 M39.6,32.5c0,8.1-6.6,14.6-14.6,14.6c-4,0-7.5-1.6-10.2-4.1c1.1-1.3,5-5.4,12.8-9c6.5-3,10.1-7.3,12-10.8
	C39.6,23.3,39.6,32.5,39.6,32.5z M35.3,25.7c-0.8-1.4-2.1-2.4-3.5-2.9c1-1,1.8-2.3,2.4-3.7c1.8,0,3.2-1.5,3.2-3.2s-1.5-3.2-3.2-3.2
	C32.8,8.7,29.1,6,25,6s-7.8,2.7-9.2,6.5c-1.8,0-3.2,1.5-3.2,3.2S14,19,15.8,19c0.5,1.4,1.4,2.7,2.4,3.7c-1.5,0.5-2.7,1.6-3.5,2.9
	c-3.3-4-4.2-7.8-4.3-8.4C10.4,9.3,17,2.8,25,2.8s14.6,6.5,14.6,14.5C39.5,17.9,38.6,21.7,35.3,25.7C35.3,25.7,35.3,25.7,35.3,25.7z"
	/>
</svg>
