<?xml version="1.0" encoding="utf-8"?>
<!-- Generator: Adobe Illustrator 26.2.1, SVG Export Plug-In . SVG Version: 6.00 Build 0)  -->
<svg version="1.1" id="a" xmlns="http://www.w3.org/2000/svg" xmlns:xlink="http://www.w3.org/1999/xlink" x="0px" y="0px"
	 viewBox="0 0 50 50" style="enable-background:new 0 0 50 50;" xml:space="preserve">
<style type="text/css">
	.st0{fill-rule:evenodd;clip-rule:evenodd;}
</style>
<path class="st0" d="M48.1,34.1l-3.5-3.5c-0.6-0.6-1.5-0.6-2.1,0L42.2,31c-3.7-5-8.1-7.3-14.6-4c-0.2,0.1-0.3,0.1-0.6,0.1H16.2
	c-3.1-2.2-6.5-7.3-10.7-6.6c-1.9,0.3-3.3,1.7-4.3,3.2c-0.3,0.5-0.3,1,0,1.5c4,6.1,8.7,12,14.1,16.8c0.3,0.3,0.6,0.4,1,0.3L31,42.1
	l-0.7,0.7c-0.6,0.6-0.6,1.5,0,2.1l3.5,3.5c0.6,0.6,1.5,0.6,2.1,0l12.3-12.3C48.7,35.6,48.7,34.7,48.1,34.1L48.1,34.1L48.1,34.1z
	 M24.8,3.2C26,1.5,27.7,0.6,30,0.6c3.6,0,6.5,2.9,6.5,6.5c0,6.2-6.7,12.5-10.8,16.6c-0.5,0.5-1.3,0.5-1.9,0
	C19.7,19.6,13,13.3,13,7.1c0-3.6,2.9-6.5,6.5-6.5C21.8,0.6,23.4,1.4,24.8,3.2L24.8,3.2L24.8,3.2z M25.9,6.4c-0.5,1-1.9,1-2.4,0
	c-0.9-1.9-1.8-3.2-4-3.2c-2.2,0-3.9,1.8-3.9,3.9c0,4.9,5.9,10.5,9.1,13.8c3.3-3.3,9.1-8.9,9.1-13.8c0-2.2-1.8-3.9-3.9-3.9
	C27.7,3.2,26.9,4.5,25.9,6.4C25.9,6.4,25.9,6.4,25.9,6.4z M40.3,32.8l-6.6,6.6v0l-17,0.3c-4.9-4.5-9.1-9.6-12.8-15.2
	c0.5-0.6,1.2-1.2,2-1.4c2.3-0.4,6.2,4.1,8.1,5.7c-1,2.2-1,4.9,0.8,6.7c0.4,0.4,0.8,0.4,1.3,0.4l10.8,0c1.7,0,1.7-2.6,0-2.6H16.4
	c-0.6-1.1-0.4-2.5,0.1-3.5h10.5c0.8,0,0.8,0,1.6-0.3C34.2,26.6,37.2,28.5,40.3,32.8L40.3,32.8L40.3,32.8z M42.2,36.5L42.2,36.5
	c-0.6-0.6-1.7-0.6-2.4,0l-3.7,3.7c-0.6,0.6-0.6,1.7,0,2.4h0c0.6,0.6,1.7,0.6,2.4,0l3.7-3.7C42.9,38.2,42.9,37.2,42.2,36.5L42.2,36.5
	z"/>
</svg>
