<?xml version="1.0" encoding="utf-8"?>
<!-- Generator: Adobe Illustrator 26.2.1, SVG Export Plug-In . SVG Version: 6.00 Build 0)  -->
<svg version="1.1" id="a" xmlns="http://www.w3.org/2000/svg" xmlns:xlink="http://www.w3.org/1999/xlink" x="0px" y="0px"
	 viewBox="0 0 50 50" style="enable-background:new 0 0 50 50;" xml:space="preserve">
<path d="M24.9,1.4c-8.9,0-16.1,7.2-16.2,16.1v14.6c0,8.9,7.2,16.2,16.2,16.2s16.2-7.2,16.2-16.2V17.6C41.1,8.7,33.8,1.4,24.9,1.4
	C24.9,1.4,24.9,1.4,24.9,1.4z M13.7,40.7c-1.8-2.4-2.9-5.4-2.9-8.5v-8.9c1.8,3.3,5.3,7.5,11.6,10.4c0.1,0.1,0.2,0.1,0.2,0.1
	C17.7,36.5,14.9,39.4,13.7,40.7L13.7,40.7L13.7,40.7z M21.9,13.8c0.8,0.8,1.8,1.2,3,1.2s2.2-0.4,3-1.2c0.8-0.8,1.2-1.8,1.2-3
	c0-0.3,0-0.6-0.1-0.8c1.5,1,2.5,2.4,3,4.2c0.1,0.5,0.5,0.8,1,0.8l0.8,0c0.6,0,1,0.5,1,1c0,0.6-0.5,1-1,1H33c-0.5,0-0.9,0.3-1,0.8
	c-0.8,3.2-3.8,5.5-7.1,5.5s-6.2-2.2-7-5.5c-0.1-0.5-0.5-0.8-1-0.8h-0.8c-0.6,0-1-0.5-1-1c0-0.6,0.5-1,1-1h0.8c0.5,0,0.9-0.3,1-0.8
	c0.9-3.2,3.8-5.5,7.1-5.5c0.6,0,1.1,0.2,1.5,0.6c0.4,0.4,0.6,0.9,0.6,1.5s-0.2,1.1-0.6,1.5c-0.8,0.8-2.2,0.8-3,0
	c-0.4-0.4-1-0.4-1.5,0C21.6,12.7,21.6,13.4,21.9,13.8L21.9,13.8L21.9,13.8z M20.6,24.3c1.3,0.7,2.8,1,4.3,1s3-0.4,4.3-1
	c1.8,0.1,3.4,1.1,4.2,2.8c-1.7,1.7-3.9,3.3-6.8,4.6c-0.6,0.3-1.1,0.5-1.7,0.8c-0.5-0.3-1.1-0.5-1.7-0.8c-2.9-1.3-5.1-2.9-6.8-4.6
	C17.2,25.5,18.8,24.4,20.6,24.3L20.6,24.3L20.6,24.3z M39,32.2c0,7.8-6.3,14.1-14.1,14.1c-3.8,0-7.2-1.5-9.8-4
	c1-1.3,4.8-5.2,12.3-8.6c6.3-2.9,9.7-7,11.6-10.4C39,23.3,39,32.2,39,32.2z M34.9,25.5c-0.8-1.3-2-2.3-3.4-2.8c1-1,1.8-2.2,2.3-3.6
	c1.7,0,3.1-1.4,3.1-3.1s-1.4-3.1-3.1-3.1c-1.3-3.7-4.8-6.3-8.9-6.3s-7.5,2.6-8.9,6.3c-1.7,0-3.1,1.4-3.1,3.1s1.4,3.1,3.1,3.1
	c0.5,1.4,1.3,2.6,2.3,3.6c-1.4,0.5-2.6,1.5-3.4,2.8c-3.2-3.8-4-7.5-4.1-8.1c0.1-7.7,6.4-14,14.1-14s14,6.3,14.1,14
	C38.9,18,38,21.7,34.9,25.5C34.9,25.5,34.9,25.5,34.9,25.5z"/>
</svg>
