<?xml version="1.0" encoding="UTF-8"?><svg id="a" xmlns="http://www.w3.org/2000/svg" width="50" height="50" viewBox="0 0 50 50"><path d="M22.0723,18.2999c3.3585,0,6.091-2.7325,6.091-6.091s-2.7325-6.091-6.091-6.091-6.091,2.7325-6.091,6.091,2.7325,6.091,6.091,6.091Zm-.6091-10.9214v1.1761h1.2182v-1.1761c2.2001,.276,3.945,2.0217,4.2216,4.2216h-1.1761v1.2182h1.1761c-.276,2.2001-2.0217,3.945-4.2216,4.2216v-1.1761h-1.2182v1.1761c-2.2001-.276-3.945-2.0217-4.2216-4.2216h1.1761v-1.2182h-1.1761c.2765-2.2001,2.0215-3.945,4.2216-4.2216Z"/><path d="M22.6814,12.4609v-2.6885h-1.2182v2.1844l-1.0399,1.0396,.8614,.8614,1.3966-1.3969Z"/><path d="M44,34.7457c0-.7929-.5109-1.463-1.2182-1.7153v-10.4668c0-1.0075-.8198-1.8273-1.8273-1.8273h-3.3593c-1.265-1.5312-3.1742-2.4364-5.1681-2.4364s-3.9031,.9052-5.1681,2.4364h-3.3593c-1.0075,0-1.8273,.8198-1.8273,1.8273v10.4668c-.7073,.2521-1.2182,.9221-1.2182,1.7153v6.7001h1.2182v.6091c0,1.0075,.8198,1.8273,1.8273,1.8273h2.4364c1.0075,0,1.8273-.8198,1.8273-1.8273v-.6091h8.5275v.6091c0,1.0075,.8198,1.8273,1.8273,1.8273h2.4364c1.0075,0,1.8273-.8198,1.8273-1.8273v-.6091h1.2182v-6.7001Zm-13.4003-6.1642c-1.2218-.1036-2.0478-.3056-2.8976-.5183-.6012-.1504-1.2152-.3027-1.9752-.4196v-1.4254c0-.3356,.2736-.6091,.6091-.6091h3.6546c.3356,0,.6091,.2736,.6091,.6091v2.3633Zm-3.1934,.664c1.234,.3086,2.5093,.6273,5.0208,.6273s3.7867-.3187,5.0208-.6273c1.1043-.276,2.1628-.536,4.1158-.5816v4.2545H23.2905v-4.2539c1.9527,.0457,3.0121,.3051,4.1158,.5811h0Zm11.7212-1.6014c-.7595,.1169-1.3734,.2692-1.9752,.4196-.8498,.2126-1.6761,.4141-2.8976,.5183v-2.3638c0-.3356,.2736-.6091,.6091-.6091h3.6546c.3356,0,.6091,.2736,.6091,.6091v1.426Zm-15.2276-5.6897h3.9592l.1827-.2436c1.03-1.373,2.6692-2.1928,4.3855-2.1928s3.3555,.8198,4.3855,2.1928l.1827,.2436h3.9592c.3356,0,.6091,.2736,.6091,.6091v4.8826c-.4435,.0103-.8497,.0299-1.2182,.059v-1.287c0-1.0075-.8198-1.8273-1.8273-1.8273h-3.6546c-1.0075,0-1.8273,.8198-1.8273,1.8273v2.4266c-.1969,.0049-.3929,.0098-.6091,.0098s-.4122-.0049-.6091-.0098v-2.4266c0-1.0075-.8198-1.8273-1.8273-1.8273h-3.6546c-1.0075,0-1.8273,.8198-1.8273,1.8273v1.287c-.3685-.0294-.7747-.0487-1.2182-.059v-4.8826c0-.3355,.2736-.6091,.6091-.6091Zm3.0455,20.1004c0,.3356-.2736,.6091-.6091,.6091h-2.4364c-.3356,0-.6091-.2736-.6091-.6091v-.6091h3.6546v.6091Zm14.6185,0c0,.3356-.2736,.6091-.6091,.6091h-2.4364c-.3356,0-.6091-.2736-.6091-.6091v-.6091h3.6546v.6091Zm1.2182-1.8273H22.0726v-5.4819c0-.3356,.2736-.6091,.6091-.6091h19.4913c.3356,0,.6091,.2736,.6091,.6091v5.4819Z"/><path d="M23.2905,37.7912h18.2731v1.2182H23.2905v-1.2182Z"/><path d="M19.8718,29.2637l-2.8427-8.5275H8.8421l-2.8421,8.5275h5.1086v10.9639h-.6091c-1.0075,0-1.8273,.8198-1.8273,1.8273v1.8273h8.5275v-1.8273c0-1.0075-.8198-1.8273-1.8273-1.8273h-.6091v-10.9639h2.4364v3.7666c-.7073,.2521-1.2182,.9221-1.2182,1.7153,0,1.0075,.8198,1.8273,1.8273,1.8273s1.8273-.8198,1.8273-1.8273c0-.7929-.5109-1.463-1.2182-1.7153v-3.7666h1.454Zm-2.0631,6.091c-.3355,0-.6091-.2736-.6091-.6091s.2736-.6091,.6091-.6091,.6091,.2736,.6091,.6091-.2736,.6091-.6091,.6091Zm-8.0882-13.4003h6.4315l2.0302,6.091H7.6896l2.0309-6.091Zm6.261,20.1004v.6091h-6.091v-.6091c0-.3356,.2736-.6091,.6091-.6091h4.8728c.3355,0,.6091,.2736,.6091,.6091Zm-2.4364-1.8273h-1.2182v-10.9639h1.2182v10.9639Z"/></svg>