<?xml version="1.0" encoding="UTF-8"?><svg id="a" xmlns="http://www.w3.org/2000/svg" width="50" height="50" viewBox="0 0 50 50"><path d="M32.9307,9.1393c-5.2426,0-9.1358,4.1935-7.5922,8.4589h-7.7401c-2.5577,.0044-4.7463,1.8372-5.1997,4.3544-.3928-.1666-.6434-.1248-1.6733-.1248-.876,0-1.5861,.7101-1.5861,1.5861v11.1026c.0029,1.5463,1.119,2.8655,2.6433,3.1246v1.6337c0,.876,.7103,1.5861,1.5861,1.5861h2.1147c.876,0,1.5861-.7101,1.5861-1.5861v-1.5861h15.8608v1.5861c0,.876,.7101,1.5861,1.5861,1.5861h2.1147c.876,0,1.5861-.7101,1.5861-1.5861v-1.6337c1.5243-.2589,2.6407-1.5783,2.6433-3.1246v-11.1026c0-.876-.7101-1.5861-1.5861-1.5861-.978,0-1.2789-.0429-1.6755,.1252-.0485-.2779-.1193-.5514-.2113-.8179,2.0948-1.1838,3.4729-3.1748,3.4729-5.428,0-3.6216-3.5576-6.5681-7.9304-6.5681l.0005,.0002Zm0,1.0575c3.7897,0,6.8728,2.4723,6.8728,5.5106s-3.0835,5.5106-6.8728,5.5106c-1.4084,0-1.725-.3073-2.066-.1237l-3.4195,1.8326,.6747-2.9115c.0443-.1927-.0228-.3939-.1735-.5218-4.1508-3.52-.9971-9.2967,4.9846-9.2967h-.0002Zm-4.2296,4.2295c-.876,0-1.5861,.7101-1.5861,1.5861s.7101,1.5861,1.5861,1.5861,1.5861-.7101,1.5861-1.5861-.7103-1.5861-1.5861-1.5861Zm4.2296,0c-.876,0-1.5861,.7101-1.5861,1.5861s.7101,1.5861,1.5861,1.5861,1.5861-.7101,1.5861-1.5861-.7101-1.5861-1.5861-1.5861Zm4.2296,0c-.876,0-1.5861,.7101-1.5861,1.5861s.7103,1.5861,1.5861,1.5861,1.5861-.7101,1.5861-1.5861-.7101-1.5861-1.5861-1.5861Zm-8.4595,1.0575c.2921,0,.5288,.2368,.5288,.5286,0,.2921-.2368,.5286-.5288,.5286s-.5286-.2368-.5286-.5286c0-.2921,.2368-.5286,.5286-.5286Zm4.2296,0c.2921,0,.5286,.2368,.5286,.5286,0,.2921-.2368,.5286-.5286,.5286-.2921,0-.5286-.2368-.5286-.5286,0-.2921,.2368-.5286,.5286-.5286Zm4.2296,0c.2921,0,.5286,.2368,.5286,.5286,0,.2921-.2368,.5286-.5286,.5286-.2921,0-.5288-.2368-.5288-.5286,0-.2921,.2368-.5286,.5288-.5286Zm-19.562,3.1722h8.2476c.3224,.5277,.7165,1.0084,1.171,1.4274l-.8634,3.7404c-.0363,.1569,.0011,.3215,.1011,.4476,.1,.1261,.252,.1996,.4129,.2,.1865,0-.1465,.1496,4.5299-2.3563,1.7573,.331,3.5729,.15,5.2304-.5218,.2792,.8767,.2036,.6831,.2036,8.1791-.4552-.3501-1.0123-.5406-1.5863-.5426h-7.9304c-.832,0-1.6155,.3917-2.1147,1.0575-.4992-.6658-1.2827-1.0575-2.1147-1.0575h-7.9304c-.574,.002-1.1312,.1925-1.5861,.5423v-6.8864c.0027-2.3349,1.8947-4.227,4.2294-4.2296v-.0002Zm-6.8728,4.2296h1.0575c.2921,0,.5286,.2368,.5286,.5286v9.5165c0,.876,.7103,1.5861,1.5861,1.5861h22.2051c.876,0,1.5861-.7101,1.5861-1.5861v-9.5165c0-.2921,.2368-.5286,.5286-.5286h1.0575c.2921,0,.5286,.2368,.5286,.5286v11.1026c0,1.1679-.9468,2.1147-2.1147,2.1147H12.3113c-1.1679,0-2.1147-.9468-2.1147-2.1147v-11.1026c0-.2921,.2368-.5286,.5286-.5286h0Zm4.2296,7.4019h7.9304c.876,0,1.5861,.7101,1.5861,1.5861v1.5861H13.8979c-.2921,0-.5286-.2368-.5286-.5286v-1.0575c0-.876,.7101-1.5861,1.5861-1.5861h-.0005Zm12.1596,0h7.9304c.876,0,1.5861,.7101,1.5861,1.5861v1.0575c0,.2921-.2368,.5286-.5286,.5286h-10.5735v-1.5861c0-.876,.7101-1.5861,1.5861-1.5861h-.0005Zm-14.2747,7.4019h3.1722v1.5861c0,.2921-.2368,.5286-.5286,.5286h-2.1147c-.2921,0-.5288-.2368-.5288-.5286v-1.5861Zm21.1481,0h3.1722v1.5861c0,.2921-.2368,.5286-.5288,.5286h-2.1147c-.2921,0-.5286-.2368-.5286-.5286v-1.5861Z"/></svg>