<?xml version="1.0" encoding="utf-8"?>
<!-- Generator: Adobe Illustrator 26.2.1, SVG Export Plug-In . SVG Version: 6.00 Build 0)  -->
<svg version="1.1" id="a" xmlns="http://www.w3.org/2000/svg" xmlns:xlink="http://www.w3.org/1999/xlink" x="0px" y="0px"
	 viewBox="0 0 50 50" style="enable-background:new 0 0 50 50;" xml:space="preserve">
<path d="M46.6,31.2c0-1.4-0.9-2.7-2.2-3.1V8.9c0-1.8-1.5-3.3-3.3-3.3h-6.1c-2.3-2.8-5.8-4.5-9.4-4.5S18.3,2.8,16,5.6H9.9
	C8,5.6,6.5,7.1,6.5,8.9v19.1c-1.3,0.5-2.2,1.7-2.2,3.1v12.2h2.2v1.1c0,1.8,1.5,3.3,3.3,3.3h4.5c1.8,0,3.3-1.5,3.3-3.3v-1.1h15.6v1.1
	c0,1.8,1.5,3.3,3.3,3.3h4.5c1.8,0,3.3-1.5,3.3-3.3v-1.1h2.2L46.6,31.2L46.6,31.2z M22.1,19.9c-2.2-0.2-3.7-0.6-5.3-0.9
	c-1.1-0.3-2.2-0.6-3.6-0.8v-2.6c0-0.6,0.5-1.1,1.1-1.1H21c0.6,0,1.1,0.5,1.1,1.1C22.1,15.6,22.1,19.9,22.1,19.9z M16.3,21.1
	c2.3,0.6,4.6,1.1,9.2,1.1s6.9-0.6,9.2-1.1c2-0.5,4-1,7.5-1.1v7.8H8.8v-7.8C12.3,20.2,14.3,20.6,16.3,21.1L16.3,21.1L16.3,21.1z
	 M37.7,18.2c-1.4,0.2-2.5,0.5-3.6,0.8c-1.6,0.4-3.1,0.8-5.3,0.9v-4.3c0-0.6,0.5-1.1,1.1-1.1h6.7c0.6,0,1.1,0.5,1.1,1.1V18.2
	L37.7,18.2z M9.9,7.8h7.2l0.3-0.4c1.9-2.5,4.9-4,8-4s6.1,1.5,8,4l0.3,0.4h7.2c0.6,0,1.1,0.5,1.1,1.1v8.9c-0.8,0-1.6,0.1-2.2,0.1
	v-2.4c0-1.8-1.5-3.3-3.3-3.3h-6.7c-1.8,0-3.3,1.5-3.3,3.3V20c-0.4,0-0.7,0-1.1,0c-0.4,0-0.8,0-1.1,0v-4.4c0-1.8-1.5-3.3-3.3-3.3
	h-6.7c-1.8,0-3.3,1.5-3.3,3.3V18c-0.7-0.1-1.4-0.1-2.2-0.1V8.9C8.8,8.3,9.3,7.8,9.9,7.8z M15.5,44.6c0,0.6-0.5,1.1-1.1,1.1H9.9
	c-0.6,0-1.1-0.5-1.1-1.1v-1.1h6.7V44.6z M42.2,44.6c0,0.6-0.5,1.1-1.1,1.1h-4.5c-0.6,0-1.1-0.5-1.1-1.1v-1.1h6.7
	C42.2,43.4,42.2,44.6,42.2,44.6z M44.4,41.2H6.6v-10c0-0.6,0.5-1.1,1.1-1.1h35.6c0.6,0,1.1,0.5,1.1,1.1
	C44.4,31.2,44.4,41.2,44.4,41.2z"/>
<path d="M8.8,36.8h33.4V39H8.8V36.8z"/>
</svg>
