<?xml version="1.0" encoding="UTF-8"?><svg id="a" xmlns="http://www.w3.org/2000/svg" width="50" height="50" viewBox="0 0 50 50"><path d="M41.3129,18.4395h-2.9716l.3758-4.8228c.1419-1.2058-.241-2.4187-1.0496-3.3264-.8086-.9077-1.9645-1.4257-3.1773-1.4257h-4.7874c-1.2129,0-2.3759,.5177-3.1773,1.4257-.8015,.9077-1.1915,2.1206-1.0496,3.2979l.3758,4.8513h-4.5251c.0781-.22,.1276-.461,.1276-.7092,0-.2767-.0567-.5462-.1561-.7943,.9006-.2482,1.5745-1.0639,1.5745-2.0426,0-1.1701-.9576-2.1278-2.1278-2.1278l-7.0924-.0003c-.2624,0-.5034,.149-.6314,.3829-.1205,.2339-.1063,.5177,.0496,.7305,.4185,.5958,.4752,1.1419,.1772,1.7235h-2.4326c-.2767,0-.5319,.1633-.6453,.4114-.1134,.2482-.0781,.5462,.1063,.759,.5106,.5958,.5744,1.0924,.1915,1.6668h-1.7802c-.39,0-.7092,.3191-.7092,.7092v21.2776c0,.39,.3191,.7092,.7092,.7092s.7092-.3191,.7092-.7092v-9.22h9.22c.39,0,.7092-.3191,.7092-.7092v-10.6388h6.6315l.3191,4.1493c.1276,1.071,1.0354,1.8796,2.1135,1.8796l2.9937-.0006v1.773h-4.2555c-.39,0-.7092,.3191-.7092,.7092v2.8369c0,.39,.3191,.7092,.7092,.7092h4.2555v5.6741h-4.2555c-.39,0-.7092,.3191-.7092,.7092v2.1278c0,.39,.3191,.7092,.7092,.7092s.7092-.3191,.7092-.7092v-1.4186h3.5464v1.4186c0,.39,.3191,.7092,.7092,.7092s.7092-.3191,.7092-.7092v-1.4186h3.5464v1.4186c0,.39,.3191,.7092,.7092,.7092s.7092-.3191,.7092-.7092v-2.1278c0-.39-.3191-.7092-.7092-.7092h-4.2555v-5.6741h4.2555c.39,0,.7092-.3191,.7092-.7092v-2.8369c0-.39-.3191-.7092-.7092-.7092h-4.2555v-1.773h2.9931c1.0782,0,1.9859-.8086,2.1135-1.9078l.3191-4.1208,2.3762-.0003v20.5686c0,.39,.3191,.7092,.7091,.7092s.7091-.3191,.7091-.7092V19.1487c.0003-.39-.3188-.7092-.7089-.7092h0ZM14.7654,14.184h5.979c.39,0,.7092,.3191,.7092,.7092s-.3191,.7092-.7092,.7092h-5.979c.1205-.4752,.1205-.9431,0-1.4183Zm-2.7377,2.8369h7.2984c.39,0,.7092,.3191,.7092,.7092s-.3191,.7092-.7092,.7092h-7.2981c.1416-.4678,.1416-.9502-.0003-1.4183h0Zm5.8798,12.7665H9.3965v-4.2555h8.511v4.2555Zm0-5.6741H9.3965v-4.2555h8.511v4.2555Zm18.44,6.3833h-8.511v-1.4186h8.511v1.4186Zm-.553-6.0285h-7.4047c-.3618,0-.6596-.2695-.702-.5958l-.8086-10.4192c-.0923-.8015,.1633-1.6101,.6952-2.2201,.5391-.6029,1.3121-.9505,2.1206-.9505h4.7874c.8086,0,1.5815,.3476,2.1206,.9505s.7943,1.4115,.6952,2.2483l-.8015,10.3622c-.0356,.3547-.3408,.6243-.7023,.6243v.0003Z"/><path d="M12.5883,22.695h2.1278c.39,0,.7092-.3191,.7092-.7092s-.3191-.7092-.7092-.7092h-2.1278c-.39,0-.7092,.3191-.7092,.7092-.0003,.3898,.3191,.7092,.7092,.7092Z"/><path d="M12.5883,28.3685h2.1278c.39,0,.7092-.3191,.7092-.7092s-.3191-.7092-.7092-.7092h-2.1278c-.39,0-.7092,.3191-.7092,.7092-.0003,.39,.3191,.7092,.7092,.7092Z"/></svg>