<?xml version="1.0" encoding="utf-8"?>
<!-- Generator: Adobe Illustrator 26.2.1, SVG Export Plug-In . SVG Version: 6.00 Build 0)  -->
<svg version="1.1" id="a" xmlns="http://www.w3.org/2000/svg" xmlns:xlink="http://www.w3.org/1999/xlink" x="0px" y="0px"
	 viewBox="0 0 50 50" style="enable-background:new 0 0 50 50;" xml:space="preserve">
<path d="M42.9,12.9c-0.3-1.4-1.2-2.3-1.5-2.6C41,9.8,40.2,9,39,8.9c-0.1,0-0.3,0-0.4,0c-0.2-1.2-1.1-2-1.5-2.4
	c-0.4-0.4-1.8-1.7-3.8-1.8c-0.3,0-0.6,0-0.9,0.1c-0.1-0.2-0.2-0.3-0.3-0.5c-0.9-1.4-2.3-1.9-2.9-2.2c-0.8-0.3-2-0.7-3.3-0.2
	c-0.2,0.1-0.4,0.2-0.6,0.3c-0.6-0.9-1.5-1.3-2-1.6c-1.4-0.6-2.7-0.5-3.1-0.4C19.5,0.4,18.8,0.5,18,1c-0.9,0.6-1.2,1.5-1.4,2.1l0,0.1
	c-0.4,1.1-0.9,2.1-1.5,3.2c-0.4-0.1-1-0.1-1.6,0c-1.3,0.3-2,1.3-2.3,1.7l-3.9,8c-0.3,0.6-0.5,1.2-0.4,1.9c0.1,0.7,0.4,1.2,0.6,1.5
	l3.2,6l0.1,0.1c0.7,0.9,1.5,1.8,2.3,2.7c0.4,0.5,0.8,0.9,1.2,1.3c0.3,0.4,0.6,0.8,0.7,1.3c0.3,1,0.3,1.8,0.2,2.2
	c-0.2,1.7-0.4,7.5-0.6,15.4l0,0.8l21,0.1c0.4,0,0.8-0.4,0.8-0.8l-0.1-17.2l0.2-0.1l0.2-0.1c1.2-1.2,2.2-2.6,3.1-4.2
	c0.8-1.6,1.4-3.3,1.7-5.1l0.6-3.9c0,0,0-0.1,0-0.1c0-0.1,0-0.1,0-0.2c0.1-0.2,0.2-0.5,0.3-0.8C42.8,15.3,43.2,14.1,42.9,12.9
	L42.9,12.9L42.9,12.9z M38.4,10.5c0.1,0,0.3,0,0.4,0c0.6,0,1.1,0.5,1.5,0.9c0.2,0.2,0.9,0.9,1.1,1.9c0,0,0,0.1,0,0.1
	c0,0,0,0.1,0,0.1c0.1,0.7-0.2,1.5-0.8,3.1c-0.6,1.8-1,2.7-1.5,3.3c-0.3,0.4-1.3,1.3-2.7,1.7c-0.6,0.2-1.4,0.3-1.9,0
	c-0.2-0.1-0.3-0.3-0.4-0.5c0,0,0-0.1-0.1-0.1c0.1-0.1,0.1-0.1,0.2-0.2L38.4,10.5L38.4,10.5z M32.6,6.3c0.2,0,0.3,0,0.5,0
	c1.4,0,2.4,1,2.8,1.3c0.5,0.4,1.1,1,1.1,1.8c0,0.1,0,0.2,0,0.2c0,0.1,0,0.1,0,0.1l-4.1,10c-0.2,0.2-0.3,0.4-0.5,0.5
	c-0.5,0.3-1.2,0.1-2.7-0.3c-1.6-0.4-1.8-0.7-1.9-0.8c0-0.1-0.1-0.1-0.1-0.2c0,0-0.1-0.6-0.1-0.6c0-0.1,0-0.1,0-0.1
	c0.3-0.7,0.6-1.4,0.8-2.2C28.3,16.3,32.6,6.3,32.6,6.3z M25.9,3.9c0.2-0.2,0.4-0.3,0.6-0.4c0.7-0.3,1.5,0,2.1,0.2
	c0.5,0.2,1.5,0.5,2,1.5c0.1,0.2,0.2,0.4,0.3,0.6l-4.1,10L26,17.6c-0.2,0.1-0.6,0.3-0.9,0.3c-1.5,0.3-2.7-0.6-2.8-0.6
	c-0.1,0-0.1-0.1-0.1-0.1c-0.5-0.5-0.8-1.1-0.9-1.8c0.4-0.1,0.7-0.3,1.1-0.5c1.2-0.7,1.9-1.6,2.1-2.6c0.1-0.5,0.1-1,0-1.6l-0.1-0.4
	l-1.2-0.5L25.9,3.9L25.9,3.9z M18.1,3.8l0-0.1c0.2-0.6,0.4-1.1,0.8-1.4c0.4-0.3,0.9-0.3,1.3-0.4c0.3,0,1.2-0.1,2.3,0.3
	c0.5,0.2,1.1,0.5,1.4,1.1c0.1,0.1,0.1,0.3,0.1,0.4l-2.3,5.4L16.6,7C17.2,5.9,17.7,4.8,18.1,3.8L18.1,3.8L18.1,3.8z M39.8,21.8
	c-0.3,1.6-0.8,3.2-1.6,4.6c-0.7,1.3-1.6,2.5-2.6,3.6c-0.1,0.1-0.1,0.1-0.2,0.2l-2.9,1.6c-0.4,0.2-0.5,0.7-0.3,1.1l0,0
	c0.2,0.4,0.7,0.5,1.1,0.3l0.2-0.1c0.5-0.3,1.1,0.1,1.1,0.7l0.1,13.4c0,0.4-0.4,0.8-0.8,0.8L17,48c-0.4,0-0.8-0.4-0.8-0.8
	c0.2-6.9,0.4-12.2,0.6-13.7c0-0.4,0.2-1.5-0.3-2.8c-0.2-0.6-0.6-1.2-1-1.8c-0.4-0.4-0.8-0.9-1.2-1.3c-0.7-0.8-1.5-1.7-2.2-2.5
	c0,0-0.1-0.1-0.1-0.1l-3.1-5.9l-0.1-0.1c-0.1-0.2-0.3-0.4-0.3-0.8c0-0.4,0.1-0.8,0.2-1L12.6,9c0.1-0.2,0.5-0.8,1.3-1
	c0.6-0.2,1.1,0,1.4,0.1l7.8,3.2c0,0.2,0,0.3,0,0.5c-0.2,0.9-1.1,1.5-1.4,1.6c-0.8,0.5-1.6,0.5-3.1,0.6c-0.3,0-0.6,0-0.9,0
	c-0.2,0-0.3-0.1-0.5-0.2l-1.4-1.1c-0.3-0.3-0.8-0.2-1.1,0.1L14.5,13c-0.3,0.3-0.3,0.8,0,1.1l1,1.1l0,0.3c-1.3,0.3-2,0.6-1.9,1.4
	c0.1,0.8,1.1,0.8,2.1,0.8c0.1,0,0.3,0.1,0.5,0.1c0.9,0.3,1.4,1,1.9,1.6c0.2,0.2,0.4,0.4,0.5,0.6c1,1,1.7,1.4,2.3,1.8
	c0.6,0.4,1.3,0.8,2.3,1.8c1.1,1.1,1.6,1.6,2,2.4c0.4,1,0.4,1.9,0.3,3.6c-0.1,1.2-0.2,2.4-0.5,3.7c-0.1,0.4,0.1,0.8,0.6,0.9h0
	c0.4,0.1,0.9-0.1,1-0.6c0.3-1.3,0.5-2.6,0.6-3.9c0.1-1.7,0.1-2.9-0.4-4.2c-0.5-1.2-1.2-1.9-2.4-3c-1.2-1.2-2-1.6-2.6-2
	c-0.6-0.4-1.1-0.7-2-1.5c-0.1-0.1-0.3-0.3-0.4-0.5c-0.5-0.6-1.2-1.4-2.3-1.9v-0.8c0.5,0,0.9,0,1.4,0c0.4,0,0.8,0,1.2-0.1
	c0,0.6,0.1,1.2,0.4,1.7c0.7,1.5,2.2,2,2.7,2.2c1.3,0.5,2.5,0.3,3.3,0c0,0,0,0.1,0,0.1l0.2,1l0.2,0.2c0.8,0.6,2.2,1.4,4,1.5
	c0.8,0,1.5,0,2.3-0.2c0.2,0.3,0.5,0.6,0.8,0.8c0.5,0.4,1.1,0.5,1.7,0.5c0.6,0,1.1-0.1,1.5-0.2c1.4-0.3,2.3-1.1,3-1.6L39.8,21.8
	L39.8,21.8z"/>
</svg>
