<?xml version="1.0" encoding="UTF-8"?><svg id="a" xmlns="http://www.w3.org/2000/svg" width="50" height="50" viewBox="0 0 50 50"><defs><style>.b{fill-rule:evenodd;}</style></defs><path class="b" d="M37.4889,30.0029l-1.8679-1.8673c-.3097-.3099-.8166-.3099-1.1265,0l-.1812,.1812c-2.0026-2.6834-4.3038-3.8978-7.7948-2.1121-.1267,.0632-.163,.0539-.3037,.0676h-5.7884c-1.6716-1.1493-3.4934-3.8801-5.7213-3.5081-.9897,.1661-1.741,.9048-2.2983,1.6941-.1705,.2428-.1661,.5566-.0132,.7907,2.1458,3.2775,4.6239,6.3872,7.5584,8.995,.151,.1343,.3436,.1922,.5304,.1756l7.8556-.1271-.3967,.3967c-.3099,.3099-.3093,.8162,0,1.1263l1.8679,1.8677c.3097,.3099,.816,.3104,1.1265,0l6.5533-6.5533c.3097-.3097,.3097-.8162,0-1.1265v-.0006ZM24.999,13.5067c.6918-.9528,1.5664-1.4222,2.7938-1.4222,1.9303,0,3.4976,1.5671,3.4976,3.4976,0,3.3161-3.5914,6.6739-5.7943,8.876-.2746,.2732-.7201,.2725-.9939-.0014-2.203-2.1983-5.7921-5.5631-5.7921-8.8749,0-1.9305,1.5675-3.4976,3.4976-3.4976,1.2158,0,2.0883,.4573,2.7915,1.4222v.0004Zm.6289,1.6908c-.2544,.5097-.9961,.5228-1.2571,0-.499-.9974-.9554-1.7018-2.1636-1.7018-1.1503,0-2.0859,.9358-2.0859,2.0863,0,2.6118,3.1325,5.6261,4.8797,7.3796,1.7468-1.7522,4.8774-4.7691,4.8774-7.3796,0-1.1503-.9356-2.0863-2.0859-2.0863-1.198,0-1.6613,.6949-2.1646,1.7018h0Zm7.6784,14.126l-3.5521,3.5521v-.0132l-9.067,.1469c-2.6444-2.3876-4.8677-5.1568-6.839-8.1154,.2767-.324,.6542-.6678,1.0885-.7399,1.2154-.2033,3.2965,2.1927,4.3478,3.0246-.5385,1.1784-.5507,2.6103,.4052,3.5868,.211,.2141,.4118,.2099,.6823,.2099l5.7932,.0025c.9282,0,.9282-1.4115,0-1.4115h-5.6361c-.3457-.5723-.2023-1.3146,.0748-1.8826h5.6292c.4314,0,.444,.0202,.8308-.1771,2.9816-1.5404,4.5906-.4885,6.2418,1.8169h.0005Zm1.0259,1.9682h-.0004c-.3467-.3467-.9139-.3467-1.2606,0l-1.9733,1.9733c-.3467,.3471-.3467,.9139,0,1.2606h.0004c.3463,.3467,.9135,.3467,1.2602,0l1.9737-1.9733c.3463-.3467,.3463-.9139,0-1.2606h0Z"/></svg>