<?xml version="1.0" encoding="UTF-8"?><svg id="a" xmlns="http://www.w3.org/2000/svg" width="50" height="50" viewBox="0 0 50 50"><path d="M16.1019,24.3003c-1.0076,0-1.8473,.8397-1.8473,1.8473s.8397,1.8473,1.8473,1.8473,1.8473-.8397,1.8473-1.8473-.7837-1.8473-1.8473-1.8473Zm0,2.631c-.3919,0-.7277-.3359-.7277-.7277s.3359-.7277,.7277-.7277,.7277,.3359,.7277,.7277c.056,.3919-.2799,.7277-.7277,.7277Z"/><path d="M34.0154,24.3003c-1.0076,0-1.8473,.8397-1.8473,1.8473s.8397,1.8473,1.8473,1.8473,1.8473-.8397,1.8473-1.8473-.8397-1.8473-1.8473-1.8473Zm0,2.631c-.3919,0-.7277-.3359-.7277-.7277s.3359-.7277,.7277-.7277,.7277,.3359,.7277,.7277-.3359,.7277-.7277,.7277Z"/><path d="M39.1655,20.7176h-2.5191v-.5038c0-3.4148-2.799-6.2137-6.2137-6.2137h-10.7481c-3.4148,0-6.2137,2.799-6.2137,6.2137v.5038h-2.5191c-.3359,0-.5598,.2239-.5598,.5598v2.4631c0,.3359,.2239,.5598,.5598,.5598h1.2316c-.112,.3359-.2239,.7277-.2239,1.1756v3.8626h-.1679c-.3359,0-.5598,.2239-.5598,.5598v2.5191c0,.3359,.2239,.5598,.5598,.5598h.3919v1.1196c0,1.0636,.8397,1.9033,1.9033,1.9033h2.4071c1.0636,0,1.9033-.8397,1.9033-1.9033v-1.1196h13.2112v1.1196c0,1.0636,.8397,1.9033,1.9033,1.9033h2.4071c1.0636,0,1.9033-.8397,1.9033-1.9033v-1.1196h.3919c.3359,0,.5598-.2239,.5598-.5598v-2.5191c0-.3359-.2239-.5598-.5598-.5598h-.2239v-3.8626c0-.3919-.056-.7837-.2239-1.1756h1.2316c.3359,0,.5598-.2239,.5598-.5598v-2.4631c.1679-.3359-.112-.5598-.3919-.5598Zm-24.5747-.5038c0-2.799,2.2952-5.0941,5.0941-5.0941h10.7481c2.799,0,5.0941,2.2952,5.0941,5.0941v1.8473c-.2799-.056-.5598-.112-.8397-.112h-.4478c0-1.9033-1.5115-3.4148-3.4148-3.4148s-3.4148,1.5115-3.4148,3.4148H15.4861c-.2799,0-.5598,.056-.8397,.112v-1.8473h-.0557Zm13.9393,1.7354c0-1.2875,1.0076-2.2952,2.2952-2.2952s2.2952,1.0076,2.2952,2.2952h-4.5903Zm-17.0178,1.2316v-1.3435h1.9593v.7277c-.2239,.1679-.4478,.3359-.6158,.5598h-1.3435v.056Zm6.3817,8.6209h-5.542v-1.3995h7.1654v1.3995h-1.6234Zm-.5598,2.2392c0,.4478-.3359,.7837-.7837,.7837h-2.4071c-.4478,0-.7837-.3359-.7837-.7837v-1.1196h4.0305v1.1196h-.056Zm3.3028-2.2392v-1.3995h8.8448v1.3995h-8.8448Zm16.9059-1.3995h.2239v1.3995h-7.1654v-1.3995h6.9415Zm-.7277,3.6387c0,.4478-.3359,.7837-.7837,.7837h-2.4071c-.4478,0-.7837-.3359-.7837-.7837v-1.1196h3.9746v1.1196Zm-6.7739-4.7583H13.1353v-3.8626c0-1.2875,1.0636-2.3511,2.3511-2.3511h19.145c1.2875,0,2.3511,1.0636,2.3511,2.3511v3.8626h-6.9415Zm8.5652-6.1018h-1.3435c-.1679-.2239-.3919-.3919-.6158-.5598v-.7277h1.9593v1.2875Z"/><path d="M28.0259,24.4122h-5.9338c-1.0636,0-1.9033,.8397-1.9033,1.9033s.8397,1.9033,1.9033,1.9033h5.9898c1.0636,0,1.9033-.8397,1.9033-1.9033s-.8957-1.9033-1.9593-1.9033Zm0,2.687h-5.9338c-.4478,0-.7837-.3359-.7837-.7837s.3359-.7837,.7837-.7837h5.9898c.4478,0,.7837,.3359,.7837,.7837s-.3919,.7837-.8397,.7837Z"/></svg>