<?xml version="1.0" encoding="utf-8"?>
<!-- Generator: Adobe Illustrator 26.2.1, SVG Export Plug-In . SVG Version: 6.00 Build 0)  -->
<svg version="1.1" id="a" xmlns="http://www.w3.org/2000/svg" xmlns:xlink="http://www.w3.org/1999/xlink" x="0px" y="0px"
	 viewBox="0 0 50 50" style="enable-background:new 0 0 50 50;" xml:space="preserve">
<path d="M10.3,23.6c-1.6,0-3,1.4-3,3c0,1.6,1.4,3,3,3c1.6,0,3-1.4,3-3C13.3,24.9,12.1,23.6,10.3,23.6z M10.3,27.8
	c-0.6,0-1.2-0.5-1.2-1.2s0.5-1.2,1.2-1.2s1.2,0.5,1.2,1.2C11.6,27.3,11.1,27.8,10.3,27.8z"/>
<path d="M39.4,23.6c-1.6,0-3,1.4-3,3c0,1.6,1.4,3,3,3c1.6,0,3-1.4,3-3C42.4,24.9,41,23.6,39.4,23.6z M39.4,27.8
	c-0.6,0-1.2-0.5-1.2-1.2s0.5-1.2,1.2-1.2c0.6,0,1.2,0.5,1.2,1.2S40,27.8,39.4,27.8z"/>
<path d="M47.8,17.8h-4.1v-0.8c0-5.5-4.5-10.1-10.1-10.1H16.2c-5.5,0-10.1,4.5-10.1,10.1v0.8H2c-0.5,0-0.9,0.4-0.9,0.9v4
	c0,0.5,0.4,0.9,0.9,0.9h2c-0.2,0.5-0.4,1.2-0.4,1.9v6.3H3.4c-0.5,0-0.9,0.4-0.9,0.9v4.1c0,0.5,0.4,0.9,0.9,0.9H4v1.8
	c0,1.7,1.4,3.1,3.1,3.1H11c1.7,0,3.1-1.4,3.1-3.1v-1.8h21.4v1.8c0,1.7,1.4,3.1,3.1,3.1h3.9c1.7,0,3.1-1.4,3.1-3.1v-1.8h0.6
	c0.5,0,0.9-0.4,0.9-0.9v-4.1c0-0.5-0.4-0.9-0.9-0.9h-0.4v-6.3c0-0.6-0.1-1.3-0.4-1.9h2c0.5,0,0.9-0.4,0.9-0.9v-4
	C48.7,18.1,48.2,17.8,47.8,17.8L47.8,17.8z M7.9,16.9c0-4.5,3.7-8.3,8.3-8.3h17.4c4.5,0,8.3,3.7,8.3,8.3v3c-0.5-0.1-0.9-0.2-1.4-0.2
	h-0.7c0-3.1-2.5-5.5-5.5-5.5s-5.5,2.5-5.5,5.5H9.3c-0.5,0-0.9,0.1-1.4,0.2L7.9,16.9L7.9,16.9L7.9,16.9z M30.5,19.8
	c0-2.1,1.6-3.7,3.7-3.7c2.1,0,3.7,1.6,3.7,3.7H30.5L30.5,19.8z M2.9,21.8v-2.2h3.2v1.2c-0.4,0.3-0.7,0.5-1,0.9L2.9,21.8
	C2.9,21.7,2.9,21.8,2.9,21.8z M13.3,35.7h-9v-2.3h11.6v2.3H13.3z M12.3,39.4c0,0.7-0.5,1.3-1.3,1.3H7.2c-0.7,0-1.3-0.5-1.3-1.3v-1.8
	h6.5L12.3,39.4L12.3,39.4z M17.7,35.7v-2.3h14.4v2.3C32.1,35.7,17.7,35.7,17.7,35.7z M45.1,33.5h0.4v2.3H33.9v-2.3H45.1z M44,39.4
	c0,0.7-0.5,1.3-1.3,1.3h-3.9c-0.7,0-1.3-0.5-1.3-1.3v-1.8H44L44,39.4L44,39.4z M33,31.7H5.5v-6.3c0-2.1,1.7-3.8,3.8-3.8h31.1
	c2.1,0,3.8,1.7,3.8,3.8v6.3L33,31.7L33,31.7z M46.9,21.8h-2.2c-0.3-0.4-0.6-0.6-1-0.9v-1.2h3.2C46.9,19.7,46.9,21.8,46.9,21.8z"/>
<path d="M29.7,23.8h-9.6c-1.7,0-3.1,1.4-3.1,3.1c0,1.7,1.4,3.1,3.1,3.1h9.7c1.7,0,3.1-1.4,3.1-3.1C32.9,25.1,31.4,23.8,29.7,23.8z
	 M29.7,28.1h-9.6c-0.7,0-1.3-0.5-1.3-1.3s0.5-1.3,1.3-1.3h9.7c0.7,0,1.3,0.5,1.3,1.3S30.4,28.1,29.7,28.1z"/>
</svg>
