<?xml version="1.0" encoding="utf-8"?>
<!-- Generator: Adobe Illustrator 26.2.1, SVG Export Plug-In . SVG Version: 6.00 Build 0)  -->
<svg version="1.1" id="a" xmlns="http://www.w3.org/2000/svg" xmlns:xlink="http://www.w3.org/1999/xlink" x="0px" y="0px"
	 viewBox="0 0 50 50" style="enable-background:new 0 0 50 50;" xml:space="preserve">
<path d="M25,0.7C11.7,0.7,0.8,11.6,0.8,24.9C0.8,29.2,2,33.3,4,37L1,47.7c-0.1,0.4,0,0.8,0.3,1.1l0.1,0.1c0.2,0.2,0.5,0.3,0.8,0.3
	c0.1,0,0.2,0,0.3-0.1l10.7-3c3.6,2,7.7,3,11.8,3c13.3,0,24.1-10.8,24.1-24.1S38.2,0.7,25,0.7L25,0.7z M25,46.9c-3.9,0-7.7-1-11-2.9
	c-0.2-0.1-0.4-0.2-0.5-0.2s-0.2,0-0.3,0.1l-9.6,2.6l2.6-9.4c0.1-0.3,0.1-0.6-0.1-0.9C4,32.9,3,29,3,24.9c0-12.1,9.9-22,22-22
	s22,9.9,22,22S37.1,46.9,25,46.9L25,46.9z"/>
<path d="M43.2,23.8h-4.9c-0.1-3.2-0.7-6.6-2.1-10.2h2.6c0.6,0,1.1-0.5,1.1-1.1s-0.5-1.1-1.1-1.1h-3.6c-0.9-1.9-2.1-3.6-3.5-5.5
	c-0.4-0.5-1-0.5-1.5-0.2c-0.5,0.4-0.5,1-0.2,1.5c1.1,1.4,2.1,2.7,2.8,4.2h-6.8V6.7c0-0.6-0.5-1.1-1.1-1.1c-0.6,0-1.1,0.5-1.1,1.1
	v4.8h-6.5C18.8,8.9,20,7.4,20,7.3c0.4-0.5,0.3-1.2-0.2-1.5c-0.5-0.4-1.2-0.3-1.5,0.2c-0.1,0.1-1.7,2.1-3.2,5.5h-4
	c-0.6,0-1.1,0.5-1.1,1.1s0.5,1.1,1.1,1.1h3c-1.2,2.8-2.1,6.4-2.3,10.2h-5c-0.6,0-1.1,0.5-1.1,1.1c0,0.6,0.5,1.1,1.1,1.1h4.9
	c0.1,3.2,0.7,6.6,2.1,10.2h-2.6c-0.6,0-1.1,0.5-1.1,1.1s0.5,1.1,1.1,1.1h3.6c0.9,1.9,2.1,3.6,3.5,5.5c0.2,0.3,0.5,0.4,0.9,0.4
	c0.2,0,0.5-0.1,0.7-0.2c0.5-0.4,0.5-1,0.2-1.5c-1.1-1.4-2.1-2.7-2.8-4.2H24V43c0,0.6,0.5,1.1,1.1,1.1c0.6,0,1.1-0.5,1.1-1.1v-4.8
	h6.5c-1.4,2.5-2.5,4.1-2.5,4.2c-0.4,0.5-0.3,1.2,0.2,1.5c0.2,0.2,0.4,0.2,0.7,0.2c0.3,0,0.7-0.2,0.9-0.4c0.1-0.1,1.7-2.1,3.2-5.5h4
	c0.6,0,1.1-0.5,1.1-1.1s-0.5-1.1-1.1-1.1h-3c1.2-2.8,2.1-6.4,2.3-10.2h5c0.6,0,1.1-0.5,1.1-1.1C44.3,24.3,43.8,23.8,43.2,23.8
	L43.2,23.8z M33.9,13.6c1.5,3.2,2.2,6.6,2.3,10.2H26.1V13.6H33.9z M14.7,18.4c0.5-1.8,1.1-3.4,1.7-4.8h7.5v10.2H13.7
	C13.8,22,14.2,20.3,14.7,18.4L14.7,18.4z M16,36.2c-1.5-3.2-2.2-6.6-2.3-10.2h10.2v10.2H16z M35.2,31.4c-0.5,1.8-1.1,3.4-1.7,4.8H26
	V25.9h10.2C36.1,27.8,35.7,29.5,35.2,31.4L35.2,31.4z"/>
</svg>
