<?xml version="1.0" encoding="utf-8"?>
<!-- Generator: Adobe Illustrator 26.2.1, SVG Export Plug-In . SVG Version: 6.00 Build 0)  -->
<svg version="1.1" id="a" xmlns="http://www.w3.org/2000/svg" xmlns:xlink="http://www.w3.org/1999/xlink" x="0px" y="0px"
	 viewBox="0 0 50 50" style="enable-background:new 0 0 50 50;" xml:space="preserve">
<path d="M20.2,20h4.9v-3.3h3.3v-4.9h-3.3V8.6h-4.9v3.3H17v4.9h3.3V20z M18.6,15.1v-1.6h3.3v-3.3h1.6v3.3h3.3v1.6h-3.3v3.3h-1.6v-3.3
	H18.6z"/>
<path d="M22.7,30.1L35,17.8c2.5-2.5,3.9-5.9,3.9-9.4c0-2.5-1.3-4.8-3.4-6.2c-2.1-1.3-4.8-1.5-7.1-0.4l-5.8,2.8l-5.8-2.8
	c-2.3-1.1-4.9-0.9-7.1,0.4C7.7,3.5,6.4,5.8,6.4,8.3V9c0,3.7,1.5,7.1,4.2,9.7L22.7,30.1L22.7,30.1z M8,8.3c0-2,1-3.8,2.6-4.8
	c1.7-1,3.7-1.2,5.5-0.3l6.5,3.1l6.5-3.1c1.8-0.8,3.8-0.7,5.5,0.3c1.7,1,2.7,2.9,2.7,4.8c0,3.1-1.2,6.1-3.4,8.3L22.6,27.8l-11-10.4
	C9.3,15.2,8,12.2,8,9L8,8.3L8,8.3z"/>
<path d="M3.9,21.8c0,3.2,1.3,6.3,3.6,8.5c2.3,2.3,5.4,3.5,8.6,3.5h5.7v12c0,0.9,0.3,1.7,0.9,2.3c0.6,0.6,1.4,1,2.3,1h1.6
	c0.9,0,1.7-0.4,2.3-1c0.6-0.6,1-1.4,0.9-2.3V42c0-0.5,0.4-0.8,0.8-0.8h7.4c0.3,1.6,1.3,3,2.9,3.7c1.5,0.7,3.3,0.5,4.6-0.4
	c1.4-0.9,2.2-2.4,2.2-4.1s-0.8-3.2-2.2-4.1c-1.4-0.9-3.1-1-4.6-0.4c-1.5,0.7-2.6,2-2.9,3.7h-7.4c-0.6,0-1.3,0.3-1.7,0.7
	c-0.5,0.5-0.7,1.1-0.7,1.7v3.9c0,0.4-0.2,0.9-0.5,1.2c-0.3,0.3-0.7,0.5-1.2,0.5h-1.6c-0.4,0-0.9-0.2-1.2-0.5
	c-0.3-0.3-0.5-0.7-0.5-1.2v-12h5.7c3.2,0,6.3-1.3,8.6-3.5c2.3-2.3,3.6-5.3,3.6-8.5c0.5-0.2,0.9-0.5,1.2-0.9c0.3-0.4,0.5-0.9,0.5-1.4
	v-1.6c0-0.9-0.5-1.7-1.2-2.1c-0.8-0.4-1.7-0.4-2.4,0c-0.8,0.4-1.2,1.2-1.2,2.1v1.6c0,0.5,0.2,1,0.4,1.4c0.3,0.4,0.7,0.7,1.2,0.9
	c0,2.8-1.2,5.4-3.1,7.4s-4.6,3-7.4,3h-13c-2.8,0-5.4-1.1-7.4-3s-3.1-4.6-3.1-7.4c0.5-0.2,0.9-0.5,1.2-0.9C7,20.5,7.2,20,7.2,19.5
	v-1.6c0-0.9-0.5-1.7-1.2-2.1c-0.8-0.4-1.7-0.4-2.4,0c-0.8,0.4-1.2,1.2-1.2,2.1v1.6c0,0.5,0.2,1,0.5,1.4C3.1,21.3,3.5,21.6,3.9,21.8
	L3.9,21.8L3.9,21.8z M43,37.1c0.9,0,1.7,0.3,2.3,1c0.6,0.6,1,1.4,1,2.3c0,0.9-0.3,1.7-1,2.3c-0.6,0.6-1.4,1-2.3,1s-1.7-0.3-2.3-1
	c-0.6-0.6-1-1.4-1-2.3c0-0.9,0.3-1.7,1-2.3C41.3,37.5,42.1,37.1,43,37.1z M39.8,17.9c0-0.4,0.4-0.8,0.8-0.8c0.4,0,0.8,0.4,0.8,0.8
	v1.6c0,0.4-0.4,0.8-0.8,0.8c-0.4,0-0.8-0.4-0.8-0.8V17.9z M3.9,17.9c0-0.4,0.4-0.8,0.8-0.8s0.8,0.4,0.8,0.8v1.6
	c0,0.4-0.4,0.8-0.8,0.8S3.9,20,3.9,19.5V17.9z"/>
<path d="M43,42c0.4,0,0.8-0.1,1.2-0.4c0.3-0.3,0.5-0.7,0.5-1.1c0-0.6-0.3-1.1-0.8-1.4s-1.1-0.3-1.6,0s-0.8,0.8-0.8,1.4
	c0,0.4,0.2,0.8,0.5,1.1C42.2,41.9,42.6,42,43,42C43,42,43,42,43,42z"/>
</svg>
