<?xml version="1.0" encoding="UTF-8"?><svg id="a" xmlns="http://www.w3.org/2000/svg" width="50" height="50" viewBox="0 0 50 50"><path d="M21.9101,21.7895h3.0882v-2.0588h2.0588v-3.0882h-2.0588v-2.0588h-3.0882v2.0588h-2.0588v3.0882h2.0588v2.0588Zm-1.0294-3.0882v-1.0294h2.0588v-2.0588h1.0294v2.0588h2.0588v1.0294h-2.0588v2.0588h-1.0294v-2.0588h-2.0588Z"/><path d="M23.4642,28.1718l7.8194-7.8235c1.5829-1.5742,2.4706-3.7165,2.4648-5.9488,0-1.588-.8132-3.0655-2.1551-3.9145-1.3419-.8493-3.0253-.952-4.4605-.2721l-3.6785,1.7429-3.6785-1.7429c-1.4352-.6799-3.1186-.5772-4.4605,.2721-1.3419,.8491-2.1551,2.3265-2.1551,3.9145v.3902c.0041,2.31,.9536,4.5177,2.6275,6.1094l7.6765,7.2728ZM14.1895,14.3995c-.0023-1.2365,.6301-2.3874,1.6749-3.0487,1.0448-.6611,2.3559-.7394,3.4722-.2077l4.1177,1.9513,4.1177-1.9513c1.1165-.5296,2.4262-.4501,3.4706,.2105,1.0441,.6606,1.6769,1.8104,1.6765,3.0459,.0057,1.9598-.7728,3.8403-2.1618,5.2227l-7.1129,7.1088-6.9482-6.5824c-1.4683-1.3961-2.3017-3.3325-2.3063-5.3587l-.0002-.3904Z"/><path d="M11.6207,22.9154c.0262,2.0299,.8504,3.9676,2.2946,5.3945,1.4439,1.4267,3.3915,2.2277,5.4214,2.2298h3.6029v7.6177c-.0016,.548,.2142,1.0745,.6002,1.4637,.386,.389,.9106,.6091,1.4586,.6121h1.0294c.548-.003,1.0726-.2231,1.4586-.6121,.386-.3892,.6018-.9156,.6002-1.4637v-2.4594c-.0028-.2872,.2275-.5225,.5147-.526h4.6788c.1735,1.0274,.8536,1.898,1.8084,2.3152,.9547,.417,2.0556,.3247,2.9274-.2459,.872-.5703,1.3975-1.5421,1.3975-2.5841s-.5255-2.0138-1.3975-2.5841c-.8718-.5705-1.9726-.6629-2.9274-.2459-.9547,.4173-1.6349,1.2879-1.8084,2.3152h-4.6788c-.4108,.0018-.8042,.1668-1.0938,.4584s-.4515,.6861-.4504,1.0969v2.4594c.0018,.2753-.1055,.54-.2983,.736-.193,.1962-.4559,.3079-.7312,.3104h-1.0294c-.2753-.0025-.5381-.1142-.7312-.3104-.1928-.196-.3001-.4607-.2983-.736v-7.6177h3.6029c2.0299-.0021,3.9775-.8031,5.4214-2.2298,1.4442-1.4269,2.2684-3.3647,2.2946-5.3945,.301-.1055,.5623-.3015,.7475-.5614,.185-.2599,.2852-.5705,.2865-.8897v-1.0294c0-.5517-.2943-1.0614-.7721-1.3371-.4777-.276-1.0664-.276-1.5441,0-.4777,.2757-.7721,.7854-.7721,1.3371v1.0294c.0009,.3176,.0997,.6271,.2831,.8862,.1836,.2592,.4426,.4554,.7417,.5616-.0246,1.7578-.7396,3.4352-1.9908,4.6698s-2.9379,1.9272-4.6958,1.9283h-8.2353c-1.7578-.0011-3.4447-.6937-4.6958-1.9283s-1.9662-2.912-1.9908-4.6698c.2992-.1062,.5581-.3024,.7417-.5616,.1834-.2592,.2822-.5687,.2831-.8862v-1.0294c0-.5517-.2943-1.0614-.7721-1.3371-.4777-.276-1.0664-.276-1.5441,0-.4777,.2757-.7721,.7854-.7721,1.3371v1.0294c.0014,.3192,.1016,.6298,.2865,.8897,.1852,.2599,.4465,.4559,.7475,.5614h0Zm24.7012,9.6831c.546,0,1.0696,.2169,1.4559,.6029,.386,.3863,.6029,.9099,.6029,1.4559s-.2169,1.0696-.6029,1.4559c-.3863,.386-.9099,.6029-1.4559,.6029s-1.0696-.2169-1.4559-.6029c-.386-.3863-.6029-.9099-.6029-1.4559s.2169-1.0696,.6029-1.4559c.3863-.386,.9099-.6029,1.4559-.6029Zm-2.0588-12.1635c0-.2842,.2305-.5147,.5147-.5147s.5147,.2305,.5147,.5147v1.0294c0,.2842-.2305,.5147-.5147,.5147s-.5147-.2305-.5147-.5147v-1.0294Zm-22.6471,0c0-.2842,.2305-.5147,.5147-.5147s.5147,.2305,.5147,.5147v1.0294c0,.2842-.2305,.5147-.5147,.5147s-.5147-.2305-.5147-.5147v-1.0294Z"/><path d="M36.3219,35.6866c.2702,.0106,.5331-.0898,.7275-.278,.1944-.188,.3035-.4474,.3019-.7178,0-.3679-.1962-.7077-.5147-.8915s-.7109-.1838-1.0294,0-.5147,.5237-.5147,.8915c-.0016,.2705,.1075,.5299,.3019,.7178,.1944,.1882,.4573,.2886,.7275,.278h0Z"/></svg>