<?xml version="1.0" encoding="utf-8"?>
<!-- Generator: Adobe Illustrator 26.2.1, SVG Export Plug-In . SVG Version: 6.00 Build 0)  -->
<svg version="1.1" id="a" xmlns="http://www.w3.org/2000/svg" xmlns:xlink="http://www.w3.org/1999/xlink" x="0px" y="0px"
	 viewBox="0 0 50 50" style="enable-background:new 0 0 50 50;" xml:space="preserve">
<path d="M48,16.3h-4.1l0.5-6.7c0.2-1.7-0.3-3.4-1.5-4.6c-1.1-1.3-2.7-2-4.4-2h-6.6c-1.7,0-3.3,0.7-4.4,2c-1.1,1.3-1.7,2.9-1.5,4.6
	l0.5,6.7h-6.3c0.1-0.3,0.2-0.6,0.2-1c0-0.4-0.1-0.8-0.2-1.1c1.3-0.3,2.2-1.5,2.2-2.8c0-1.6-1.3-3-3-3l-9.8,0c-0.4,0-0.7,0.2-0.9,0.5
	c-0.2,0.3-0.1,0.7,0.1,1c0.6,0.8,0.7,1.6,0.2,2.4H5.7c-0.4,0-0.7,0.2-0.9,0.6c-0.2,0.3-0.1,0.8,0.1,1.1c0.7,0.8,0.8,1.5,0.3,2.3H2.7
	c-0.5,0-1,0.4-1,1v29.5c0,0.5,0.4,1,1,1s1-0.4,1-1V34h12.8c0.5,0,1-0.4,1-1V18.2h9.2l0.4,5.8c0.2,1.5,1.4,2.6,2.9,2.6l4.2,0v2.5
	h-5.9c-0.5,0-1,0.4-1,1V34c0,0.5,0.4,1,1,1h5.9v7.9h-5.9c-0.5,0-1,0.4-1,1v3c0,0.5,0.4,1,1,1c0.5,0,1-0.4,1-1v-2h4.9v2
	c0,0.5,0.4,1,1,1s1-0.4,1-1v-2h4.9v2c0,0.5,0.4,1,1,1c0.5,0,1-0.4,1-1v-3c0-0.5-0.4-1-1-1h-5.9V35h5.9c0.5,0,1-0.4,1-1V30
	c0-0.5-0.4-1-1-1h-5.9v-2.5h4.2c1.5,0,2.8-1.1,2.9-2.6l0.4-5.7l3.3,0v28.6c0,0.5,0.4,1,1,1s1-0.4,1-1V17.2
	C49,16.7,48.6,16.3,48,16.3L48,16.3L48,16.3z M11.2,10.3h8.3c0.5,0,1,0.4,1,1s-0.4,1-1,1h-8.3C11.3,11.7,11.3,11,11.2,10.3
	L11.2,10.3z M7.4,14.3h10.1c0.5,0,1,0.4,1,1c0,0.5-0.4,1-1,1H7.4C7.6,15.6,7.6,14.9,7.4,14.3L7.4,14.3L7.4,14.3z M15.5,32H3.7v-5.9
	h11.8C15.5,26.1,15.5,32,15.5,32z M15.5,24.1H3.7v-5.9h11.8C15.5,18.2,15.5,24.1,15.5,24.1z M41.1,33H29.3v-2h11.8V33z M40.4,24.6
	H30.1c-0.5,0-0.9-0.4-1-0.8L28,9.3c-0.1-1.1,0.2-2.2,1-3.1c0.7-0.8,1.8-1.3,2.9-1.3h6.6c1.1,0,2.2,0.5,2.9,1.3s1.1,2,1,3.1
	l-1.1,14.4C41.3,24.3,40.9,24.6,40.4,24.6L40.4,24.6L40.4,24.6z"/>
<path d="M8.1,22.2h3c0.5,0,1-0.4,1-1s-0.4-1-1-1h-3c-0.5,0-1,0.4-1,1C7.2,21.7,7.6,22.2,8.1,22.2z"/>
<path d="M8.1,30h3c0.5,0,1-0.4,1-1s-0.4-1-1-1h-3c-0.5,0-1,0.4-1,1C7.2,29.6,7.6,30,8.1,30z"/>
</svg>
