<?xml version="1.0" encoding="UTF-8"?><svg id="a" xmlns="http://www.w3.org/2000/svg" width="50" height="50" viewBox="0 0 50 50"><path d="M29.3136,14.6681c-4.0383-4.0389-10.6079-4.0376-14.6463,0-4.0166,4.0166-4.0341,10.5368-.0599,14.5795l.0102,.0115c.0175,.0177,.0319,.0372,.0495,.0549,2.0191,2.0191,4.6709,3.0287,7.3231,3.0287,1.8128,0,3.6206-.4836,5.2313-1.4274l6.6822,6.6822c.5084,.5084,1.1766,.7632,1.8448,.7632s1.3363-.2547,1.8448-.7632c.4938-.4938,.7659-1.1501,.7659-1.8479,0-.6974-.2708-1.3524-.7642-1.8458l-6.6983-6.6512c2.3444-3.9706,1.8245-9.1774-1.5833-12.5851l.0002,.0006Zm-13.8899,.7559c1.811-1.8105,4.189-2.7161,6.5668-2.7161s4.7565,.9056,6.5673,2.7161c3.3801,3.3801,3.6025,8.7375,.6723,12.3809-.5151-1.1824-1.6953-2.0091-3.0439-2.0091h-2.1027c-.1743,0-.3376,.0852-.4374,.2276l-1.6577,2.363-1.6523-2.3614c-.0996-.1437-.2637-.2291-.4385-.2291h-2.1027c-1.3485,0-2.5288,.8264-3.0439,2.0091-2.9299-3.6438-2.7075-9.001,.6726-12.3809v-.0002Zm.1679,13.2859c.1967-1.0503,1.1161-1.845,2.2037-1.845h1.8185l1.7009,2.4229,.2366,.3381,.0019,.0017,.0044,.0061c.0086,.0121,.0198,.0213,.0292,.0324,.0142,.0163,.0267,.0328,.0426,.0474,.0434,.0411,.0927,.0735,.1466,.0979l.0109,.004c.0654,.028,.1351,.0459,.2082,.0459h.0006c.1743,0,.3376-.0852,.4374-.228l1.936-2.7681h1.8176c1.0877,0,2.007,.7947,2.2037,1.845-3.5787,3.4075-9.2202,3.4085-12.7989-.0002h0Zm21.2499,5.9515c.2898,.2898,.4493,.6765,.4493,1.0883,0,.4124-.1608,.8001-.4527,1.0921-.6003,.6003-1.5775,.6003-2.1778,0l-6.5278-6.5278c.4103-.3032,.8093-.6287,1.1808-1.0002,.0175-.0175,.0322-.0372,.0495-.0549l.0102-.0115c.3383-.3441,.6398-.7101,.9202-1.0872l6.5482,6.5012Z"/><path d="M17.8782,20.1519c.5738,3.2083,2.0285,5.0092,4.1281,5.0708,2.0636-.0614,3.5171-1.8559,4.0936-5.0524l.0002-.0008,.0035-.0175c.0017-.0088-.0017-.0169-.0006-.0257,.0046-.0351,.01-.0699,.0073-.1061-.1075-1.5236-.6122-2.6581-1.4999-3.3722-1.1965-.963-2.6372-.7659-2.6445-.7626-3.24,.1503-4.0961,2.7948-4.0961,4.1725,0,.024,.0056,.047,.009,.0704,.001,.0081-.0021,.0157-.0006,.0236h0Zm7.1072,.1525c-.3715,1.8007-1.191,3.7958-2.9792,3.8493-1.794-.0528-2.6169-1.997-2.9948-3.7789l1.1035-.4859c.1217-.0537,.2595-.0495,.379,.0109l.507,.2564c.6525,.3293,1.4401,.2082,1.9628-.3023l.2923-.2856c.1482-.1468,.3836-.1677,.5571-.0512l1.1723,.7874Zm-2.9176-3.3559c.009-.0017,1.0476-.1311,1.8725,.5329,.4151,.3335,.7166,.816,.902,1.4391l-.4333-.2907c-.5913-.3984-1.3912-.3247-1.9011,.1737l-.2923,.2856c-.1938,.19-.488,.2364-.7318,.1128l-.5063-.2558c-.2155-.1096-.4493-.1645-.6838-.1645-.2071,0-.4145,.0428-.6097,.1288l-.6066,.2673c.2531-.8868,.9682-2.1338,2.9905-2.2292h0Z"/></svg>