<?xml version="1.0" encoding="utf-8"?>
<!-- Generator: Adobe Illustrator 26.2.1, SVG Export Plug-In . SVG Version: 6.00 Build 0)  -->
<svg version="1.1" id="a" xmlns="http://www.w3.org/2000/svg" xmlns:xlink="http://www.w3.org/1999/xlink" x="0px" y="0px"
	 viewBox="0 0 50 50" style="enable-background:new 0 0 50 50;" xml:space="preserve">
<path d="M32.7,6.2C25.4-1.1,13.5-1,6.2,6.2C-1,13.5-1,25.3,6.1,32.6l0,0c0,0,0.1,0.1,0.1,0.1c3.6,3.6,8.4,5.5,13.2,5.5
	c3.3,0,6.5-0.9,9.4-2.6L41,47.6c0.9,0.9,2.1,1.4,3.3,1.4c1.2,0,2.4-0.5,3.3-1.4c0.9-0.9,1.4-2.1,1.4-3.3c0-1.3-0.5-2.4-1.4-3.3
	L35.5,29C39.8,21.8,38.8,12.4,32.7,6.2C32.7,6.2,32.7,6.2,32.7,6.2z M7.6,7.6c3.3-3.3,7.6-4.9,11.9-4.9S28,4.3,31.3,7.6
	c6.1,6.1,6.5,15.8,1.2,22.3c-0.9-2.1-3.1-3.6-5.5-3.6h-3.8c-0.3,0-0.6,0.2-0.8,0.4l-3,4.3l-3-4.3c-0.2-0.3-0.5-0.4-0.8-0.4h-3.8
	c-2.4,0-4.6,1.5-5.5,3.6C1.1,23.4,1.5,13.7,7.6,7.6L7.6,7.6L7.6,7.6z M7.9,31.6c0.4-1.9,2-3.3,4-3.3h3.3l3.1,4.4l0.4,0.6l0,0l0,0
	c0,0,0,0,0.1,0.1c0,0,0,0.1,0.1,0.1c0.1,0.1,0.2,0.1,0.3,0.2l0,0c0.1,0.1,0.2,0.1,0.4,0.1h0c0.3,0,0.6-0.2,0.8-0.4l3.5-5H27
	c2,0,3.6,1.4,4,3.3C24.6,37.7,14.4,37.7,7.9,31.6L7.9,31.6L7.9,31.6z M46.3,42.3c0.5,0.5,0.8,1.2,0.8,2c0,0.7-0.3,1.4-0.8,2
	c-1.1,1.1-2.8,1.1-3.9,0L30.5,34.5c0.7-0.5,1.5-1.1,2.1-1.8c0,0,0.1-0.1,0.1-0.1l0,0c0.6-0.6,1.2-1.3,1.7-2L46.3,42.3L46.3,42.3z"/>
<path d="M12,16.1c1,5.8,3.7,9,7.5,9.2c3.7-0.1,6.3-3.4,7.4-9.1l0,0l0,0c0,0,0,0,0,0c0-0.1,0-0.1,0-0.2c-0.2-2.8-1.1-4.8-2.7-6.1
	c-2.2-1.7-4.8-1.4-4.8-1.4c-5.8,0.3-7.4,5-7.4,7.5C12,16,12,16.1,12,16.1C12,16.1,12,16.1,12,16.1C12,16.1,12,16.1,12,16.1z
	 M24.9,16.4c-0.7,3.3-2.1,6.9-5.4,6.9c-3.2-0.1-4.7-3.6-5.4-6.8l2-0.9c0.2-0.1,0.5-0.1,0.7,0l0.9,0.5c1.2,0.6,2.6,0.4,3.5-0.5
	l0.5-0.5c0.3-0.3,0.7-0.3,1-0.1L24.9,16.4L24.9,16.4z M19.6,10.4c0,0,1.9-0.2,3.4,1c0.7,0.6,1.3,1.5,1.6,2.6l-0.8-0.5
	c-1.1-0.7-2.5-0.6-3.4,0.3l-0.5,0.5c-0.3,0.3-0.9,0.4-1.3,0.2L17.6,14c-0.4-0.2-0.8-0.3-1.2-0.3c-0.4,0-0.7,0.1-1.1,0.2l-1.1,0.5
	C14.7,12.8,15.9,10.5,19.6,10.4L19.6,10.4L19.6,10.4z"/>
</svg>
