<?xml version="1.0" encoding="utf-8"?>
<!-- Generator: Adobe Illustrator 26.2.1, SVG Export Plug-In . SVG Version: 6.00 Build 0)  -->
<svg version="1.1" id="a" xmlns="http://www.w3.org/2000/svg" xmlns:xlink="http://www.w3.org/1999/xlink" x="0px" y="0px"
	 viewBox="0 0 50 50" style="enable-background:new 0 0 50 50;" xml:space="preserve">
<path d="M37.1,0.8c-8,0-14,6.4-11.6,12.9H13.7c-3.9,0-7.3,2.8-7.9,6.7c-0.6-0.3-1-0.2-2.6-0.2c-1.3,0-2.4,1.1-2.4,2.4v17
	c0,2.4,1.7,4.4,4,4.8v2.5c0,1.3,1.1,2.4,2.4,2.4h3.2c1.3,0,2.4-1.1,2.4-2.4v-2.4h24.2v2.4c0,1.3,1.1,2.4,2.4,2.4h3.2
	c1.3,0,2.4-1.1,2.4-2.4v-2.5c2.3-0.4,4-2.4,4-4.8v-17c0-1.3-1.1-2.4-2.4-2.4c-1.5,0-2-0.1-2.6,0.2c-0.1-0.4-0.2-0.8-0.3-1.2
	c3.2-1.8,5.3-4.9,5.3-8.3C49.3,5.3,43.8,0.8,37.1,0.8L37.1,0.8L37.1,0.8z M37.1,2.4c5.8,0,10.5,3.8,10.5,8.4s-4.7,8.4-10.5,8.4
	c-2.2,0-2.6-0.5-3.2-0.2l-5.2,2.8l1-4.4c0.1-0.3,0-0.6-0.3-0.8C23.2,11.2,28,2.4,37.1,2.4L37.1,2.4L37.1,2.4z M30.7,8.9
	c-1.3,0-2.4,1.1-2.4,2.4s1.1,2.4,2.4,2.4s2.4-1.1,2.4-2.4S32,8.9,30.7,8.9z M37.1,8.9c-1.3,0-2.4,1.1-2.4,2.4s1.1,2.4,2.4,2.4
	s2.4-1.1,2.4-2.4S38.5,8.9,37.1,8.9z M43.6,8.9c-1.3,0-2.4,1.1-2.4,2.4s1.1,2.4,2.4,2.4s2.4-1.1,2.4-2.4S44.9,8.9,43.6,8.9z
	 M30.7,10.5c0.4,0,0.8,0.4,0.8,0.8c0,0.4-0.4,0.8-0.8,0.8c-0.4,0-0.8-0.4-0.8-0.8C29.9,10.8,30.2,10.5,30.7,10.5z M37.1,10.5
	c0.4,0,0.8,0.4,0.8,0.8c0,0.4-0.4,0.8-0.8,0.8c-0.4,0-0.8-0.4-0.8-0.8C36.3,10.8,36.7,10.5,37.1,10.5z M43.6,10.5
	c0.4,0,0.8,0.4,0.8,0.8c0,0.4-0.4,0.8-0.8,0.8c-0.4,0-0.8-0.4-0.8-0.8C42.8,10.8,43.1,10.5,43.6,10.5z M13.7,15.3h12.6
	c0.5,0.8,1.1,1.5,1.8,2.2l-1.3,5.7c-0.1,0.2,0,0.5,0.2,0.7c0.2,0.2,0.4,0.3,0.6,0.3c0.3,0-0.2,0.2,6.9-3.6c2.7,0.5,5.5,0.2,8-0.8
	c0.4,1.3,0.3,1,0.3,12.5c-0.7-0.5-1.5-0.8-2.4-0.8H28.2c-1.3,0-2.5,0.6-3.2,1.6c-0.8-1-2-1.6-3.2-1.6H9.7c-0.9,0-1.7,0.3-2.4,0.8
	V21.8C7.2,18.2,10.1,15.3,13.7,15.3L13.7,15.3L13.7,15.3z M3.2,21.8h1.6c0.4,0,0.8,0.4,0.8,0.8v14.5c0,1.3,1.1,2.4,2.4,2.4H42
	c1.3,0,2.4-1.1,2.4-2.4V22.6c0-0.4,0.4-0.8,0.8-0.8h1.6c0.4,0,0.8,0.4,0.8,0.8v17c0,1.8-1.4,3.2-3.2,3.2H5.6c-1.8,0-3.2-1.4-3.2-3.2
	v-17C2.4,22.1,2.8,21.8,3.2,21.8C3.2,21.8,3.2,21.8,3.2,21.8z M9.7,33.1h12.1c1.3,0,2.4,1.1,2.4,2.4v2.4H8.1c-0.4,0-0.8-0.4-0.8-0.8
	v-1.6C7.2,34.2,8.3,33.1,9.7,33.1L9.7,33.1L9.7,33.1z M28.2,33.1h12.1c1.3,0,2.4,1.1,2.4,2.4v1.6c0,0.4-0.4,0.8-0.8,0.8H25.8v-2.4
	C25.8,34.2,26.9,33.1,28.2,33.1C28.2,33.1,28.2,33.1,28.2,33.1z M6.4,44.4h4.8v2.4c0,0.4-0.4,0.8-0.8,0.8H7.2
	c-0.4,0-0.8-0.4-0.8-0.8L6.4,44.4L6.4,44.4z M38.7,44.4h4.8v2.4c0,0.4-0.4,0.8-0.8,0.8h-3.2c-0.4,0-0.8-0.4-0.8-0.8L38.7,44.4
	L38.7,44.4z"/>
</svg>
