<?xml version="1.0" encoding="UTF-8"?><svg id="a" xmlns="http://www.w3.org/2000/svg" width="50" height="50" viewBox="0 0 50 50"><path d="M25,11c-5.2888,0-9.6133,4.2934-9.6444,9.6133v8.7422c0,5.3201,4.3244,9.6444,9.6444,9.6444s9.6444-4.3244,9.6444-9.6444v-8.7111c0-5.3201-4.3244-9.6444-9.6444-9.6444h0Zm-6.6889,23.4578c-1.0579-1.431-1.7112-3.2044-1.7112-5.1022v-5.3199c1.089,1.9911,3.1422,4.4801,6.9067,6.1911,.0623,.031,.0933,.031,.1244,.0623-2.9555,1.6799-4.6044,3.3598-5.3199,4.1686h0Zm4.9154-16.0843c.4666,.4666,1.089,.7155,1.7734,.7155s1.3067-.2489,1.7734-.7155c.4666-.4666,.7155-1.089,.7155-1.7734,0-.1556,0-.3422-.0623-.4978,.8711,.5912,1.4933,1.4622,1.7734,2.5199,.0623,.2799,.3112,.4666,.5912,.4666l.4976,.0004c.3422,0,.6222,.2799,.6222,.6222s-.2799,.6222-.6222,.6222h-.4666c-.2799,0-.5289,.1866-.5912,.4666-.4978,1.9291-2.24,3.2667-4.2311,3.2667s-3.7023-1.3377-4.2001-3.2667c-.0623-.2799-.3112-.4666-.5912-.4666h-.4976c-.3422,0-.6222-.2799-.6222-.6222s.2799-.6222,.6222-.6222h.4666c.2799,0,.5289-.1866,.5912-.4666,.5289-1.9291,2.24-3.2669,4.2311-3.2669,.3422,0,.6534,.1243,.8711,.3733,.2489,.2489,.3733,.5599,.3733,.8711s-.1244,.6534-.3733,.8711c-.4666,.4666-1.3067,.4666-1.7734,0-.2489-.2489-.6222-.2489-.8711,0-.2177,.2491-.2177,.6534,0,.9023h0Zm-.7778,6.3156c.7778,.4045,1.6489,.6222,2.5512,.6222s1.7734-.2179,2.5512-.6222c1.089,.031,2.0534,.6844,2.4889,1.6799-1.0267,.9957-2.3333,1.9601-4.0755,2.7378-.3422,.1556-.6534,.3112-.9957,.4666-.3112-.1556-.6534-.3112-.9957-.4666-1.7112-.7778-3.0488-1.7422-4.0755-2.7378,.4978-.9954,1.4622-1.6487,2.551-1.6799h0Zm10.9511,4.6667c0,4.6356-3.7646,8.4-8.4,8.4-2.2711,0-4.3244-.9021-5.8489-2.3644,.6222-.7467,2.8622-3.1111,7.3422-5.1645,3.7333-1.7112,5.7867-4.2001,6.9067-6.1911v5.32Zm-2.4577-3.9509c-.4666-.7778-1.1823-1.3689-2.0221-1.6799,.5909-.5914,1.0577-1.3379,1.3687-2.1469,1.0267,0,1.8668-.8401,1.8668-1.8668s-.8401-1.8668-1.8668-1.8668c-.7778-2.209-2.8932-3.7333-5.2888-3.7333s-4.4801,1.5245-5.2888,3.7333c-1.0267,0-1.8668,.8401-1.8668,1.8668s.8401,1.8668,1.8668,1.8668c.2799,.8088,.7778,1.5556,1.3689,2.1467-.8401,.3112-1.5556,.9021-2.0221,1.6799-1.898-2.2711-2.3956-4.4798-2.4579-4.8221,.031-4.6044,3.7956-8.3378,8.4-8.3378s8.3689,3.7333,8.4,8.3378c-.0623,.3424-.5599,2.5512-2.4577,4.8225l-.0002-.0002Z"/></svg>