<?xml version="1.0" encoding="UTF-8"?> <svg xmlns="http://www.w3.org/2000/svg" id="Layer_1" data-name="Layer 1" width="301.176" height="82.4924" viewBox="0 0 301.176 82.4924"><defs><style>.cls-1{fill:#0d2333;}.cls-2{fill:#ff0e63;}.cls-3{fill:#fff;}.cls-4{fill:#00d1d6;}</style></defs><circle class="cls-1" cx="41.0789" cy="41.3674" r="40.9"></circle><path class="cls-1" d="M127.3789,61.4967c0,9.5-7,16-17.3,16h-13.4v-31.9h13.7C120.479,45.5967,127.3789,52.0967,127.3789,61.4967Zm-8.5.1c0-5.5-3.6-9.2-8.7-9.2h-5.2v18.4h5.6C115.3789,70.7967,118.8789,67.0967,118.8789,61.5967Z"></path><path class="cls-1" d="M163.3789,61.4967c0,9.3-7.4,16.3-17.3,16.3s-17.3-7-17.3-16.3,7.4-16.2,17.3-16.2S163.3789,52.2967,163.3789,61.4967Zm-25.9.1a8.965,8.965,0,0,0,8.8,9.2c4.8,0,8.6-4,8.6-9.2s-3.8-9.1-8.6-9.1a8.9856,8.9856,0,0,0-8.8,9Z"></path><path class="cls-1" d="M182.1789,52.3967a8.7139,8.7139,0,0,0-8.7,9c0,5.1,3.7,9.1,8.7,9.1a12.1117,12.1117,0,0,0,7.9-3.7l4.9,5.2a19.0589,19.0589,0,0,1-13.3,5.9c-9.6,0-16.8-7-16.8-16.4,0-9.2,7.3-16.1,17.1-16.1a18.1006,18.1006,0,0,1,12.9,5.5l-4.8,5.8C187.9789,54.0967,184.9789,52.3967,182.1789,52.3967Z"></path><path class="cls-1" d="M223.0789,45.5967v6.9h-9.6v25h-8.3v-25h-9.5v-6.9Z"></path><path class="cls-1" d="M257.379,61.4967c0,9.3-7.4,16.3-17.3,16.3s-17.3-7-17.3-16.3,7.4-16.2,17.3-16.2C249.9789,45.3967,257.379,52.2967,257.379,61.4967Zm-26,.1a8.965,8.965,0,0,0,8.8,9.2c4.8,0,8.6-4,8.6-9.2s-3.8-9.1-8.6-9.1a8.92,8.92,0,0,0-8.8,9v.1Z"></path><path class="cls-1" d="M280.6789,77.4967l-4.6-8.8h-6.2v8.8h-8.3v-31.9h14.3c8.5,0,13.3,4.1,13.3,11.2,0,4.8-2,8.4-5.7,10.2l6.6,10.4Zm-10.9-15.5h6.1c3.4,0,5.3-1.7,5.3-5s-2-4.8-5.3-4.8h-6.1Z"></path><circle class="cls-2" cx="297.1789" cy="73.8967" r="3.7"></circle><path class="cls-3" d="M34.3789,64.1675a3.2925,3.2925,0,0,1-1.9-.6,10.6974,10.6974,0,0,1-1.6-1.4l-.2-.2c-2.7-2.7-11.5-11.4-13.8-13.9a24.8733,24.8733,0,0,1-4-5.2,17.2587,17.2587,0,0,1-1.9-6.6,18.7314,18.7314,0,0,1,2.7-11.5,17.8093,17.8093,0,0,1,8.4-6.9,17.02,17.02,0,0,1,6.7-1.3,6.1436,6.1436,0,0,1,1.4.1,16.8193,16.8193,0,0,1,8.6,3l.1.1-.1.1-.9.9q-.6.6-1.2,1.2a5.4827,5.4827,0,0,0-1.4,3.2l-.3-.2-.9-.6a10.6676,10.6676,0,0,0-5.2-1.4,4.8686,4.8686,0,0,0-1.2.1,11.3942,11.3942,0,0,0-6.8,19.6c1.5,1.5,4.7,4.7,7.8,7.9,3,3,5.8,5.9,7.3,7.3a9.51,9.51,0,0,1,1.5,2,2.8644,2.8644,0,0,1,.1,2.4,3.0875,3.0875,0,0,1-1.9,1.8C35.0789,64.0674,34.6789,64.1675,34.3789,64.1675Z"></path><path class="cls-4" d="M69.5789,42.4674a5.76,5.76,0,0,0-5.5-3.6h0c.2-.6.4-1.2.6-1.7a10.47,10.47,0,0,0-1.4-8.6,10.918,10.918,0,0,0-7.4-5.1,19.4189,19.4189,0,0,0-2.4-.2,10.6579,10.6579,0,0,0-7.9,3.4l-.4.4-1.7,1.7a5.4956,5.4956,0,0,1-.9.7,3.3711,3.3711,0,0,1-1.7.5,2.875,2.875,0,0,1-1.8-.7,3.5659,3.5659,0,0,1-.7-4.7,20.4074,20.4074,0,0,1,4.2-4.1,17.1422,17.1422,0,0,1,7-3.2,19.9228,19.9228,0,0,1,4.2-.4,17.0953,17.0953,0,0,1,12.6,5.5,16.109,16.109,0,0,1,4.8,9.4A16.7789,16.7789,0,0,1,69.5789,42.4674Z"></path><path class="cls-3" d="M41.2789,70.6675a3.2271,3.2271,0,0,1-3.3-3.1v-.2a3.0294,3.0294,0,0,1,1-2.2l22.3-22.3a4.9545,4.9545,0,0,1,3.1-1.4,2.64,2.64,0,0,1,1.9.7,3.0364,3.0364,0,0,1,1.2,2.1,2.8552,2.8552,0,0,1-.8,2.3c-.6.5-1.2,1.2-1.8,1.8l-.9.9-20.2,20.2a3.3374,3.3374,0,0,1-2.5,1.2Z"></path><path class="cls-1" d="M223.0934,9.4169a4.6,4.6,0,1,1,9.2,0,4.5672,4.5672,0,0,1-4.5,4.6h-.1A4.5877,4.5877,0,0,1,223.0934,9.4169Zm.5,0a4.1183,4.1183,0,0,0,4.1,4.1,3.8425,3.8425,0,0,0,3.9-3.9v-.2a3.8425,3.8425,0,0,0-3.9-3.9,4.0114,4.0114,0,0,0-4.1,3.9Zm4,.5h-1v2h-.7v-5.2h2.2a1.5572,1.5572,0,0,1,.3,3.1l1.4,2h-.8Zm-1-2.5v2h1.5a.9192.9192,0,0,0,1-.9v-.1a.9192.9192,0,0,0-.9-1h-1.6Z"></path><path class="cls-4" d="M101.585,12.2014v2.7417h6.05v3.7425h-6.05v18.542H96.6234V18.6856H93.577V14.9431h3.0464V12.6793c0-5.3968,3.9608-7.9642,7.9654-7.9642a8.8319,8.8319,0,0,1,5.2225,1.61l-1.9152,3.83a5.5866,5.5866,0,0,0-3.1769-1.0886A2.9,2.9,0,0,0,101.585,12.2014Z"></path><path class="cls-4" d="M132.0045,14.0726v23.155H127V32.7012c-1.5677,3.2208-4.4837,4.6568-8.27,4.7007-5.31,0-8.4872-3.3951-8.4872-8.9223V14.0726h5.0055V27.0862c0,3.4816,2.0456,5.615,5.3968,5.615C124.65,32.6134,127,29.5243,127,25.4758V14.0726Z"></path><path class="cls-4" d="M152.5,35.7476a11.1117,11.1117,0,0,1-5.7016,1.6982c-3.4817,0-6.4842-2.0029-6.4842-6.7463V18.6856h-3.2647V14.9431h3.2647V8.5881h4.9616v6.355h6.8328v3.7425h-6.8328v11.1c0,2.393.9131,3.133,2.4808,3.133a8.0715,8.0715,0,0,0,3.4816-1.0009Z"></path><path class="cls-4" d="M178.1317,14.0726v23.155h-5.0043V32.7012c-1.5677,3.2208-4.4837,4.6568-8.27,4.7007-5.31,0-8.4871-3.3951-8.4871-8.9223V14.0726h5.0055V27.0862c0,3.4816,2.0456,5.615,5.3968,5.615,4.0046-.0878,6.3549-3.1769,6.3549-7.2254V14.0726Z"></path><path class="cls-4" d="M198.5391,13.8983v4.7873c-4.6569-.2609-7.6168,2.482-8.0081,6.4427V37.2276h-5.0055V14.0726h5.0055v4.613A8.4182,8.4182,0,0,1,198.5391,13.8983Z"></path><path class="cls-4" d="M223.0411,27.5653H205.5439a7.0489,7.0489,0,0,0,7.1815,5.7881,9.0047,9.0047,0,0,0,6.5293-2.6978L221.91,33.485a12.6012,12.6012,0,0,1-9.5757,3.9169c-7.1377,0-11.8384-4.7446-11.8384-11.7079,0-7.0084,4.8312-11.7518,11.7079-11.7957C220.3421,13.8983,223.6506,19.2086,223.0411,27.5653Zm-4.3521-3.656c-.1743-3.7437-2.6551-6.0064-6.4427-6.0064a6.5584,6.5584,0,0,0-6.789,6.0064Z"></path></svg> 