<?xml version="1.0" encoding="utf-8"?>
<!-- Generator: Adobe Illustrator 16.0.0, SVG Export Plug-In . SVG Version: 6.00 Build 0)  -->
<!DOCTYPE svg PUBLIC "-//W3C//DTD SVG 1.1//EN" "http://www.w3.org/Graphics/SVG/1.1/DTD/svg11.dtd">
<svg version="1.1" id="Layer_1" xmlns="http://www.w3.org/2000/svg" xmlns:xlink="http://www.w3.org/1999/xlink" x="0px" y="0px"
	 width="432px" height="130px" viewBox="0 0 432 130" enable-background="new 0 0 432 130" xml:space="preserve">
<g>
	<path d="M126.221,78.642h-4.084l-1.678-21.409h-0.063l-10.829,21.409h-4.022l-2.279-23.749h2.786l1.868,21.722h0.063l10.988-21.722
		h3.958l1.742,21.722h0.063l11.178-21.722h2.85L126.221,78.642z"/>
	<path d="M149.936,68.065l-0.253,1.234l-0.316,1.617h-11.97l-0.189,0.979l-0.063,0.256c-0.286,1.107-0.318,1.9-0.318,2.342
		c0,0.824,0.222,1.424,0.665,1.805c0.57,0.35,1.742,0.537,3.547,0.537c2.153,0,3.545-0.221,4.147-0.727
		c0.475-0.412,0.792-1.234,1.045-2.469h2.533c-0.348,1.961-1.077,3.293-2.153,4.02c-0.506,0.35-1.045,0.604-1.583,0.791
		c-0.571,0.16-1.172,0.256-1.805,0.318c-0.634,0.031-1.425,0.063-2.375,0.063c-1.521,0-2.787-0.096-3.736-0.316
		c-0.982-0.219-1.742-0.666-2.216-1.361c-0.316-0.475-0.539-1.297-0.603-2.471c0.032-0.506,0.063-0.98,0.127-1.457
		c0.063-0.473,0.159-1.043,0.285-1.74s0.221-1.141,0.252-1.33c0.697-3.418,1.71-5.668,3.04-6.776
		c0.76-0.605,1.615-1.047,2.596-1.237c1.014-0.221,2.186-0.318,3.579-0.318c2.628,0,4.37,0.414,5.161,1.236
		c0.539,0.571,0.792,1.49,0.792,2.729C150.126,66.577,150.095,67.337,149.936,68.065z M147.276,64.677
		c-0.19-0.349-0.538-0.571-1.077-0.664c-0.506-0.097-1.171-0.16-1.963-0.16h-0.475c-2.09,0-3.515,0.317-4.212,0.984
		c-0.412,0.379-0.728,0.887-0.95,1.455c-0.222,0.572-0.475,1.426-0.792,2.564h9.404c0.222-1.676,0.317-2.627,0.317-2.818
		C147.53,65.407,147.435,64.964,147.276,64.677z"/>
	<path d="M167.669,70.601c-0.316,1.645-0.791,3.006-1.203,4.115c-0.443,1.076-1.076,2.025-1.995,2.752
		c-1.172,0.922-2.913,1.363-5.161,1.363c-1.33,0-2.375-0.158-3.198-0.477c-0.792-0.314-1.33-0.887-1.615-1.707l-0.063,0.061
		l-0.443,1.934h-2.534l5.099-23.749h2.47l-1.932,9.278h0.063c0.538-0.953,1.33-1.587,2.375-1.902
		c1.044-0.285,2.217-0.444,3.514-0.444c2.217,0,3.705,0.54,4.496,1.648c0.443,0.634,0.697,1.588,0.697,2.852
		C168.239,67.052,168.081,68.478,167.669,70.601z M165.39,65.089c-0.19-0.539-0.634-0.887-1.267-1.013
		c-0.603-0.16-1.361-0.223-2.249-0.223c-1.995,0-3.388,0.413-4.148,1.3c-0.443,0.506-0.76,1.139-1.014,1.898
		c-0.252,0.762-0.538,1.836-0.854,3.23c-0.349,1.551-0.538,2.756-0.538,3.609c0,0.824,0.159,1.395,0.348,1.709
		c0.444,0.824,1.552,1.301,3.357,1.234c1.013-0.029,1.804-0.156,2.375-0.283c0.569-0.096,1.108-0.379,1.646-0.822
		c0.506-0.443,0.919-1.139,1.204-2.027c0.285-0.887,0.633-2.025,0.887-3.42c0.348-1.932,0.443-3.197,0.443-3.705
		C165.579,65.978,165.547,65.47,165.39,65.089z"/>
	<path d="M185.465,66.39h-2.597c0.033-0.129,0.063-0.352,0.095-0.602c0.063-0.256,0.095-0.412,0.095-0.508
		c0-0.316-0.127-0.57-0.317-0.793c-0.189-0.19-0.507-0.317-1.013-0.381c-0.475-0.03-1.297-0.064-2.438-0.064h-0.792
		c-1.583,0-2.628,0.16-3.102,0.508c-0.254,0.127-0.475,0.287-0.603,0.51c-0.158,0.221-0.285,0.473-0.379,0.729
		c-0.064,0.283-0.127,0.602-0.19,0.949c-0.063,0.379-0.095,0.631-0.126,0.822c0.031,0.539,0.19,0.887,0.475,1.043
		c0.254,0.16,0.728,0.285,1.33,0.318l3.008,0.125c1.108,0.033,2.026,0.127,2.786,0.254c0.729,0.096,1.393,0.414,1.932,0.887
		c0.569,0.443,0.854,1.174,0.854,2.09c0,1.141-0.221,2.217-0.633,3.23c-0.412,1.045-1.045,1.807-1.899,2.342
		c-0.476,0.318-1.014,0.541-1.615,0.666c-0.57,0.158-1.171,0.254-1.742,0.285c-0.602,0.031-1.361,0.031-2.279,0.031
		c-0.982,0-1.805-0.031-2.502-0.063c-0.696-0.033-1.361-0.158-1.995-0.318c-0.633-0.188-1.139-0.475-1.487-0.854
		c-0.381-0.412-0.634-0.949-0.697-1.615c0.032-0.252,0.096-0.73,0.222-1.426c0.159-0.727,0.222-1.105,0.222-1.17h2.596
		c-0.031,0.221-0.094,0.57-0.189,1.014c-0.095,0.475-0.159,0.76-0.19,0.918c0.063,0.379,0.253,0.633,0.507,0.791
		c0.221,0.127,0.506,0.221,0.886,0.285c0.38,0.063,0.792,0.127,1.266,0.158c0.507,0.031,0.982,0.063,1.52,0.063
		c0.507,0.033,0.919,0.033,1.204,0.033c1.203,0,2.122-0.158,2.755-0.508c0.633-0.348,1.076-1.045,1.266-2.121
		c0.096-0.568,0.126-0.98,0.126-1.141c0-0.633-0.253-1.045-0.759-1.234c-0.475-0.189-1.14-0.283-1.963-0.283h-0.792
		c-0.506,0-1.204-0.033-2.09-0.064c-0.918-0.031-1.678-0.127-2.343-0.285c-0.665-0.158-1.234-0.475-1.709-0.951
		c-0.444-0.439-0.697-1.078-0.729-1.867c0.158-1.426,0.475-2.629,0.95-3.643c0.443-0.981,1.203-1.679,2.28-2.122
		c0.949-0.381,2.691-0.604,5.256-0.604c1.077,0,1.995,0.064,2.786,0.159c0.792,0.095,1.488,0.349,2.09,0.791
		c0.602,0.443,0.918,1.112,0.918,1.999C185.718,65.06,185.624,65.597,185.465,66.39z"/>
	<path d="M202.85,70.155c-0.665,3.484-1.743,5.889-3.199,7.189c-0.633,0.537-1.329,0.951-2.154,1.17
		c-0.823,0.221-1.867,0.316-3.102,0.316c-2.851,0-4.434-0.695-4.781-2.123h-0.063l-1.963,9.184h-2.47l5.066-23.877h2.47
		l-0.443,2.028l0.064,0.064c1.107-1.523,3.071-2.282,5.889-2.282c1.045,0,1.962,0.128,2.755,0.38c0.76,0.286,1.33,0.634,1.678,1.109
		c0.506,0.667,0.76,1.618,0.76,2.885C203.356,67.116,203.166,68.415,202.85,70.155z M200.442,64.964
		c-0.475-0.731-1.615-1.111-3.388-1.111c-2.026,0-3.451,0.413-4.274,1.236c-0.38,0.381-0.665,0.889-0.918,1.426
		c-0.221,0.57-0.412,1.203-0.57,1.9s-0.317,1.361-0.444,2.057c-0.316,1.68-0.443,2.818-0.474,3.42
		c0.095,0.699,0.158,1.141,0.221,1.359c0.539,1.047,1.774,1.584,3.736,1.584c1.804,0,3.071-0.379,3.832-1.17
		c0.349-0.348,0.633-0.791,0.886-1.33c0.254-0.506,0.442-1.109,0.634-1.74c0.158-0.635,0.284-1.299,0.442-1.994
		c0.412-1.838,0.634-3.201,0.634-4.086C200.759,65.817,200.665,65.312,200.442,64.964z"/>
	<path d="M220.964,67.497l-2.345,11.145h-2.532l0.379-1.678l-0.064-0.063c-0.569,0.789-1.297,1.297-2.247,1.549
		c-0.918,0.256-2.092,0.381-3.454,0.381c-2.563,0-4.241-0.381-4.939-1.172c-0.474-0.506-0.695-1.234-0.758-2.184
		c0.095-0.92,0.254-1.742,0.411-2.406c0.158-0.697,0.413-1.363,0.761-1.965c0.347-0.633,0.854-1.139,1.488-1.551
		c1.043-0.666,2.786-0.98,5.13-0.98c1.044,0,2.12,0.092,3.166,0.283c1.172,0.316,1.741,0.793,1.741,1.426h0.159l0.633-2.945
		c0.126-0.6,0.126-1.045,0.126-1.359c0-0.918-0.412-1.521-1.235-1.745c-0.824-0.253-1.868-0.38-3.167-0.38
		c-1.488,0-2.565,0.223-3.199,0.634c-0.38,0.254-0.666,0.539-0.824,0.855s-0.252,0.762-0.349,1.361h-2.596
		c0.286-1.867,1.077-3.232,2.407-4.024c0.633-0.38,1.393-0.602,2.249-0.697c0.887-0.095,1.869-0.159,2.945-0.159
		c1.488,0,2.661,0.097,3.61,0.285c0.917,0.191,1.614,0.538,2.057,1.077c0.413,0.509,0.634,1.301,0.634,2.346
		C221.153,66.198,221.09,66.829,220.964,67.497z M216.941,71.517c-0.286-0.412-0.728-0.664-1.393-0.762
		c-0.665-0.092-1.583-0.154-2.818-0.154c-1.046,0-1.837,0.029-2.438,0.125c-0.57,0.096-1.046,0.316-1.394,0.666
		c-0.413,0.41-0.728,0.854-0.855,1.391c-0.159,0.539-0.285,1.236-0.379,2.152c0.032,0.258,0.094,0.51,0.189,0.857
		c0.222,0.41,0.569,0.697,1.077,0.855c0.538,0.127,1.33,0.188,2.438,0.188c1.236,0,2.217-0.094,2.946-0.252
		c0.727-0.158,1.362-0.506,1.9-1.043c0.667-0.666,0.982-1.617,0.982-2.85C217.196,72.116,217.101,71.741,216.941,71.517z"/>
	<path d="M238.76,67.433h-2.469c0.159-0.537,0.254-1.043,0.254-1.521c0-0.6-0.19-1.074-0.57-1.361
		c-0.378-0.317-0.791-0.508-1.33-0.57c-0.506-0.094-1.107-0.127-1.804-0.127c-1.045,0-1.869,0.063-2.47,0.189
		c-0.633,0.128-1.172,0.35-1.615,0.73c-0.381,0.316-0.695,0.76-0.95,1.299c-0.254,0.506-0.442,1.045-0.603,1.615
		c-0.125,0.57-0.316,1.359-0.537,2.373c-0.443,1.965-0.729,3.326-0.761,4.117c0.062,0.791,0.222,1.363,0.507,1.68
		c0.348,0.441,0.855,0.695,1.55,0.822c0.666,0.096,1.49,0.156,2.472,0.156c0.95,0,1.708-0.061,2.217-0.156
		c0.506-0.127,0.979-0.35,1.361-0.635c0.665-0.504,1.14-1.613,1.425-3.387h2.531c-0.377,2.277-1.17,3.895-2.405,4.811
		c-1.202,0.887-3.134,1.363-5.889,1.363c-1.427,0-2.629-0.125-3.548-0.35c-0.951-0.219-1.649-0.633-2.092-1.201
		c-0.412-0.666-0.665-1.457-0.728-2.406c0.063-0.982,0.316-2.438,0.697-4.338c0.412-1.996,0.759-3.484,1.172-4.402
		c0.381-0.949,0.951-1.771,1.649-2.469c1.235-1.237,3.229-1.841,5.952-1.841c1.266,0,2.343,0.064,3.262,0.223
		c0.95,0.157,1.645,0.443,2.121,0.886c0.57,0.508,0.854,1.333,0.854,2.475C239.014,66.038,238.92,66.704,238.76,67.433z"/>
	<path d="M256.462,68.065L256.21,69.3l-0.316,1.617h-11.972l-0.188,0.979l-0.063,0.256c-0.286,1.107-0.317,1.9-0.317,2.342
		c0,0.824,0.223,1.424,0.667,1.805c0.568,0.35,1.739,0.537,3.543,0.537c2.156,0,3.548-0.221,4.149-0.727
		c0.476-0.412,0.793-1.234,1.045-2.469h2.533c-0.348,1.961-1.076,3.293-2.152,4.02c-0.507,0.35-1.046,0.604-1.583,0.791
		c-0.57,0.16-1.173,0.256-1.807,0.318c-0.633,0.031-1.424,0.063-2.372,0.063c-1.521,0-2.788-0.096-3.738-0.316
		c-0.981-0.219-1.743-0.666-2.215-1.361c-0.316-0.475-0.539-1.297-0.602-2.471c0.031-0.506,0.063-0.98,0.125-1.457
		c0.063-0.473,0.16-1.043,0.286-1.74c0.128-0.697,0.22-1.141,0.253-1.33c0.697-3.418,1.71-5.668,3.038-6.776
		c0.759-0.605,1.617-1.047,2.599-1.237c1.014-0.221,2.184-0.318,3.576-0.318c2.629,0,4.37,0.414,5.163,1.236
		c0.536,0.571,0.79,1.49,0.79,2.729C256.652,66.577,256.621,67.337,256.462,68.065z M253.802,64.677
		c-0.188-0.349-0.537-0.571-1.076-0.664c-0.505-0.097-1.17-0.16-1.963-0.16h-0.475c-2.089,0-3.516,0.317-4.212,0.984
		c-0.411,0.379-0.726,0.887-0.948,1.455c-0.222,0.572-0.478,1.426-0.792,2.564h9.403c0.22-1.676,0.316-2.627,0.316-2.818
		C254.056,65.407,253.959,64.964,253.802,64.677z"/>
	<path d="M266.867,71.169h-8.233l0.476-2.375h8.299L266.867,71.169z"/>
	<path d="M276.318,78.642h-3.831l-3.483-23.749h2.913l2.849,21.722h0.126l12.001-21.722h2.911L276.318,78.642z"/>
	<path d="M300.73,68.065l-0.256,1.234l-0.314,1.617h-11.972L288,71.896l-0.065,0.256c-0.283,1.107-0.314,1.9-0.314,2.342
		c0,0.824,0.221,1.424,0.663,1.805c0.572,0.35,1.745,0.537,3.547,0.537c2.154,0,3.547-0.221,4.151-0.727
		c0.472-0.412,0.788-1.234,1.042-2.469h2.534c-0.349,1.961-1.078,3.293-2.152,4.02c-0.508,0.35-1.047,0.604-1.585,0.791
		c-0.571,0.16-1.169,0.256-1.807,0.318c-0.631,0.031-1.422,0.063-2.372,0.063c-1.521,0-2.786-0.096-3.736-0.316
		c-0.981-0.219-1.745-0.666-2.217-1.361c-0.317-0.475-0.539-1.297-0.604-2.471c0.033-0.506,0.065-0.98,0.128-1.457
		c0.065-0.473,0.159-1.043,0.287-1.74c0.126-0.697,0.221-1.141,0.252-1.33c0.696-3.418,1.71-5.668,3.04-6.776
		c0.759-0.605,1.615-1.047,2.597-1.237c1.013-0.221,2.186-0.318,3.578-0.318c2.627,0,4.369,0.414,5.162,1.236
		c0.537,0.571,0.791,1.49,0.791,2.729C300.919,66.577,300.888,67.337,300.73,68.065z M298.066,64.677
		c-0.187-0.349-0.535-0.571-1.076-0.664c-0.504-0.097-1.17-0.16-1.963-0.16h-0.475c-2.089,0-3.516,0.317-4.21,0.984
		c-0.411,0.379-0.728,0.887-0.95,1.455c-0.221,0.572-0.474,1.426-0.791,2.564h9.404c0.22-1.676,0.316-2.627,0.316-2.818
		C298.322,65.407,298.226,64.964,298.066,64.677z"/>
	<path d="M315.992,67.749h-2.345c0.225-1.045,0.316-1.771,0.316-2.217c0-1.109-0.822-1.679-2.436-1.679
		c-1.237,0-2.188,0.284-2.946,0.824c-0.443,0.318-0.822,0.73-1.107,1.234c-0.254,0.508-0.571,1.299-0.825,2.471l-2.151,10.26h-2.532
		l3.576-16.627h2.406l-0.537,2.092l0.031,0.064c0.665-0.918,1.425-1.554,2.28-1.838c0.852-0.285,1.806-0.475,2.88-0.508
		c1.11-0.03,2.028,0.254,2.757,0.792c0.728,0.54,1.076,1.332,1.076,2.348C316.436,65.532,316.277,66.448,315.992,67.749z"/>
	<path d="M323.592,69.679l6.554,8.963h-3.291l-5.383-7.979h-0.983l-1.739,7.979h-2.534l5.098-23.749h2.471l-2.914,13.745h1.043
		l7.411-6.624h3.104L323.592,69.679z"/>
	<path d="M347.815,67.497l-2.343,11.145h-2.534l0.38-1.678l-0.063-0.063c-0.571,0.789-1.297,1.297-2.247,1.549
		c-0.921,0.256-2.091,0.381-3.454,0.381c-2.563,0-4.242-0.381-4.938-1.172c-0.474-0.506-0.698-1.234-0.759-2.184
		c0.094-0.92,0.251-1.742,0.41-2.406c0.158-0.697,0.412-1.363,0.762-1.965c0.347-0.633,0.854-1.139,1.485-1.551
		c1.047-0.666,2.788-0.98,5.131-0.98c1.045,0,2.121,0.092,3.165,0.283c1.173,0.316,1.745,0.793,1.745,1.426h0.157l0.632-2.945
		c0.128-0.6,0.128-1.045,0.128-1.359c0-0.918-0.411-1.521-1.235-1.745c-0.824-0.253-1.869-0.38-3.167-0.38
		c-1.488,0-2.565,0.223-3.199,0.634c-0.378,0.254-0.663,0.539-0.822,0.855c-0.157,0.316-0.254,0.762-0.349,1.361h-2.597
		c0.285-1.867,1.076-3.232,2.406-4.024c0.635-0.38,1.395-0.602,2.25-0.697c0.886-0.095,1.867-0.159,2.943-0.159
		c1.489,0,2.66,0.097,3.61,0.285c0.919,0.191,1.615,0.538,2.058,1.077c0.413,0.509,0.634,1.301,0.634,2.346
		C348.005,66.198,347.939,66.829,347.815,67.497z M343.795,71.517c-0.287-0.412-0.73-0.664-1.396-0.762
		c-0.663-0.092-1.581-0.154-2.817-0.154c-1.046,0-1.837,0.029-2.438,0.125c-0.57,0.096-1.046,0.316-1.395,0.666
		c-0.411,0.41-0.728,0.854-0.854,1.391c-0.159,0.539-0.285,1.236-0.382,2.152c0.033,0.258,0.097,0.51,0.19,0.857
		c0.223,0.41,0.569,0.697,1.078,0.855c0.537,0.127,1.328,0.188,2.438,0.188c1.234,0,2.218-0.094,2.945-0.252
		c0.727-0.158,1.361-0.506,1.898-1.043c0.665-0.666,0.984-1.617,0.984-2.85C344.049,72.116,343.952,71.741,343.795,71.517z"/>
	<path d="M363.395,78.642h-2.531l0.505-2.152h-0.063c-0.667,0.885-1.458,1.486-2.439,1.836c-0.979,0.348-2.09,0.506-3.323,0.506
		c-1.965,0-3.295-0.381-4.021-1.107c-0.539-0.57-0.856-1.426-0.919-2.66c0.031-0.316,0.063-0.602,0.093-0.887
		c0.033-0.285,0.064-0.633,0.096-1.045l2.406-11.118h2.473l-2.282,10.864c-0.127,0.572-0.222,1.268-0.314,2.057
		c0.062,0.572,0.188,0.922,0.378,1.109c0.19,0.285,0.474,0.508,0.887,0.604c0.411,0.127,0.982,0.221,1.772,0.188
		c1.204-0.029,2.121-0.156,2.788-0.283c0.696-0.127,1.297-0.475,1.836-1.012c0.728-0.73,1.233-1.838,1.55-3.389l2.154-10.137h2.469
		L363.395,78.642z"/>
	<path d="M379.955,56.822c-0.125,0-0.41,0-0.822-0.03c-0.411-0.033-0.728-0.033-0.983-0.033c-0.789,0-1.454,0.095-1.898,0.348
		c-0.568,0.319-1.076,1.077-1.298,2.312l-0.506,2.596h4.4l-0.442,2.028h-4.433l-3.104,14.6h-2.469l3.103-14.6h-2.565l0.444-2.028
		h2.532l0.57-2.5c0.191-0.824,0.411-1.553,0.76-2.184c0.349-0.666,0.762-1.173,1.204-1.521c0.95-0.727,2.374-1.109,4.338-1.109
		c0.665,0,1.17,0.033,1.552,0.064L379.955,56.822z"/>
	<path d="M378.132,78.642h-2.851l0.762-3.229h2.783L378.132,78.642z"/>
	<path d="M395.367,78.642h-2.471l0.413-2.027l-0.033-0.063c-1.074,1.518-3.006,2.279-5.763,2.279c-2.279,0-3.799-0.477-4.526-1.424
		c-0.537-0.699-0.854-1.711-0.919-2.977c0.031-0.98,0.252-2.248,0.57-3.768c0.254-1.236,0.508-2.217,0.729-2.977
		c0.19-0.76,0.507-1.553,0.889-2.311c0.378-0.793,0.886-1.428,1.454-1.904c0.665-0.571,1.395-0.982,2.217-1.234
		c0.824-0.255,1.836-0.414,3.04-0.414c3.134-0.03,4.78,0.759,4.939,2.282h0.063l1.932-9.213h2.532L395.367,78.642z M394.925,65.407
		c-0.38-1.045-1.615-1.554-3.578-1.554c-0.919,0-1.712,0.063-2.406,0.223c-0.696,0.126-1.235,0.474-1.679,1.013
		c-0.444,0.537-0.824,1.141-1.076,1.9c-0.253,0.76-0.507,1.838-0.824,3.166c-0.318,1.33-0.505,2.598-0.57,3.863
		c0.095,0.855,0.191,1.426,0.382,1.711c0.506,0.76,1.645,1.105,3.386,1.105c1.995,0,3.327-0.441,4.086-1.295
		c0.506-0.572,0.921-1.236,1.204-2.063c0.283-0.82,0.603-1.865,0.822-3.133c0.316-1.707,0.442-2.881,0.442-3.449
		C395.113,66.292,395.084,65.788,394.925,65.407z"/>
	<path d="M416.013,68.065l-0.252,1.234l-0.319,1.617h-11.967l-0.188,0.979l-0.067,0.256c-0.283,1.107-0.314,1.9-0.314,2.342
		c0,0.824,0.223,1.424,0.665,1.805c0.568,0.35,1.741,0.537,3.547,0.537c2.152,0,3.545-0.221,4.147-0.727
		c0.474-0.412,0.79-1.234,1.044-2.469h2.534c-0.351,1.961-1.078,3.293-2.154,4.02c-0.506,0.35-1.045,0.604-1.582,0.791
		c-0.572,0.16-1.172,0.256-1.806,0.318c-0.634,0.031-1.424,0.063-2.374,0.063c-1.52,0-2.788-0.096-3.736-0.316
		c-0.981-0.219-1.743-0.666-2.217-1.361c-0.317-0.475-0.537-1.297-0.603-2.471c0.033-0.506,0.065-0.98,0.126-1.457
		c0.065-0.473,0.159-1.043,0.285-1.74c0.128-0.697,0.223-1.141,0.256-1.33c0.694-3.418,1.708-5.668,3.04-6.776
		c0.759-0.605,1.612-1.047,2.597-1.237c1.011-0.221,2.184-0.318,3.574-0.318c2.631,0,4.371,0.414,5.162,1.236
		c0.539,0.571,0.791,1.49,0.791,2.729C416.201,66.577,416.17,67.337,416.013,68.065z M413.353,64.677
		c-0.188-0.349-0.539-0.571-1.076-0.664c-0.508-0.097-1.171-0.16-1.961-0.16h-0.477c-2.089,0-3.516,0.317-4.212,0.984
		c-0.411,0.379-0.728,0.887-0.948,1.455c-0.225,0.572-0.476,1.426-0.793,2.564h9.404c0.222-1.676,0.314-2.627,0.314-2.818
		C413.604,65.407,413.512,64.964,413.353,64.677z"/>
</g>
<g>
	<polygon fill="#BF202E" points="42.556,109.071 42.556,59.044 0,29.783 0,79.437 	"/>
	<polygon fill="#F8AE3F" points="42.556,-0.001 85.113,29.783 42.556,59.044 0,29.783 	"/>
	<g>
		<polygon fill="#EA5826" points="42.556,59.044 42.556,109.071 85.113,79.437 85.113,59.044 		"/>
		<path fill="#EA5826" d="M42.556,59.044"/>
	</g>
	<path fill="#EA5826" d="M42.556,59.044"/>
</g>
<g>
	<g>
		<path fill="#B4B4B4" d="M104.314,94.313h3.983l1.991,7.764c0.511,1.813,0.843,3.498,1.354,5.336h0.103
			c0.485-1.838,0.843-3.523,1.328-5.336l1.966-7.764h3.83l-5.005,16.648h-4.52L104.314,94.313z"/>
		<path fill="#B4B4B4" d="M125.303,97.991c3.191,0,6.154,2.426,6.154,6.639s-2.962,6.639-6.154,6.639
			c-3.217,0-6.18-2.426-6.18-6.639S122.085,97.991,125.303,97.991z M125.303,108.231c1.532,0,2.324-1.406,2.324-3.602
			s-0.792-3.6-2.324-3.6c-1.558,0-2.324,1.404-2.324,3.6S123.745,108.231,125.303,108.231z"/>
		<path fill="#B4B4B4" d="M134.034,98.298h3.064l0.255,1.609h0.102c1.073-1.021,2.349-1.916,4.06-1.916
			c2.758,0,3.932,1.941,3.932,5.107v7.863h-3.753v-7.379c0-1.838-0.485-2.4-1.558-2.4c-0.945,0-1.532,0.434-2.349,1.227v8.553
			h-3.753V98.298z"/>
		<path fill="#B4B4B4" d="M162.068,107.005h-5.081l-1.021,3.957h-3.83l5.209-16.648h4.52l5.208,16.648h-3.982L162.068,107.005z
			 M161.303,104.067l-0.383-1.531c-0.46-1.658-0.92-3.625-1.354-5.361h-0.103c-0.409,1.762-0.842,3.703-1.302,5.361l-0.409,1.531
			H161.303z"/>
		<path fill="#B4B4B4" d="M168.579,98.298h3.063l0.255,1.609H172c1.072-1.021,2.349-1.916,4.06-1.916
			c2.758,0,3.932,1.941,3.932,5.107v7.863h-3.753v-7.379c0-1.838-0.485-2.4-1.558-2.4c-0.945,0-1.533,0.434-2.35,1.227v8.553h-3.753
			V98.298z"/>
		<path fill="#B4B4B4" d="M190.333,95.974c-0.435-0.152-0.893-0.256-1.302-0.256c-0.919,0-1.455,0.512-1.455,1.814v0.766h2.272
			v2.936h-2.272v9.729h-3.754v-9.729h-1.685v-2.781l1.685-0.129v-0.689c0-2.682,1.251-4.877,4.673-4.877
			c1.046,0,1.966,0.256,2.527,0.459L190.333,95.974z"/>
		<path fill="#B4B4B4" d="M198.043,102.817c-0.077-1.123-0.639-1.838-1.992-1.838c-1.073,0-2.146,0.434-3.371,1.148l-1.327-2.477
			c1.608-0.971,3.421-1.66,5.413-1.66c3.243,0,5.03,1.84,5.03,5.719v7.252h-3.063l-0.281-1.301h-0.077
			c-1.072,0.943-2.272,1.607-3.702,1.607c-2.298,0-3.754-1.684-3.754-3.83C190.919,104.784,193.039,103.329,198.043,102.817z
			 M195.949,108.358c0.868,0,1.43-0.408,2.094-1.072v-2.223c-2.681,0.357-3.55,1.125-3.55,2.096
			C194.494,107.976,195.056,108.358,195.949,108.358z"/>
		<path fill="#B4B4B4" d="M205.013,98.298h3.064l0.255,1.609h0.103c1.073-1.021,2.349-1.916,4.061-1.916
			c2.759,0,3.933,1.941,3.933,5.107v7.863h-3.754v-7.379c0-1.838-0.486-2.4-1.558-2.4c-0.945,0-1.533,0.434-2.35,1.227v8.553h-3.753
			V98.298z"/>
		<path fill="#B4B4B4" d="M220.64,110.579v-0.102c-0.664-0.436-1.175-1.098-1.175-2.145c0-0.92,0.613-1.814,1.43-2.375v-0.102
			c-0.894-0.613-1.71-1.814-1.71-3.295c0-3.037,2.501-4.57,5.233-4.57c0.717,0,1.407,0.102,1.969,0.307h4.623v2.732h-2.017
			c0.229,0.383,0.407,0.996,0.407,1.658c0,2.912-2.195,4.266-4.982,4.266c-0.459,0-0.97-0.076-1.532-0.254
			c-0.332,0.279-0.459,0.51-0.459,0.943c0,0.639,0.511,0.943,1.916,0.943h2.045c3.116,0,4.826,0.945,4.826,3.219
			c0,2.631-2.731,4.545-7.076,4.545c-2.962,0-5.311-0.971-5.311-3.217C218.827,112.087,219.465,111.243,220.64,110.579z
			 M224.726,114.001c1.688,0,2.914-0.689,2.914-1.557c0-0.793-0.689-0.996-1.941-0.996h-1.305c-0.867,0-1.379-0.053-1.787-0.154
			c-0.459,0.408-0.69,0.793-0.69,1.252C221.917,113.491,223.041,114.001,224.726,114.001z M226.159,102.562
			c0-1.328-0.742-2.043-1.74-2.043c-0.996,0-1.736,0.689-1.736,2.043c0,1.404,0.74,2.119,1.736,2.119
			C225.417,104.681,226.159,103.966,226.159,102.562z"/>
		<path fill="#B4B4B4" d="M245.23,102.817c-0.076-1.123-0.638-1.838-1.991-1.838c-1.071,0-2.144,0.434-3.372,1.148l-1.327-2.477
			c1.609-0.971,3.421-1.66,5.414-1.66c3.242,0,5.03,1.84,5.03,5.719v7.252h-3.063l-0.281-1.301h-0.076
			c-1.072,0.943-2.272,1.607-3.703,1.607c-2.298,0-3.753-1.684-3.753-3.83C238.107,104.784,240.226,103.329,245.23,102.817z
			 M243.138,108.358c0.867,0,1.43-0.408,2.093-1.072v-2.223c-2.682,0.357-3.549,1.125-3.549,2.096
			C241.682,107.976,242.242,108.358,243.138,108.358z"/>
		<path fill="#B4B4B4" d="M252.201,98.298h3.064l0.254,1.609h0.103c1.072-1.021,2.349-1.916,4.061-1.916
			c2.758,0,3.933,1.941,3.933,5.107v7.863h-3.754v-7.379c0-1.838-0.486-2.4-1.558-2.4c-0.944,0-1.533,0.434-2.35,1.227v8.553h-3.753
			V98.298z"/>
		<path fill="#B4B4B4" d="M272.115,98.298h3.063l0.256,2.221h0.103c0.919-1.711,2.298-2.527,3.6-2.527
			c0.715,0,1.149,0.102,1.508,0.256l-0.614,3.242c-0.458-0.127-0.842-0.203-1.379-0.203c-0.944,0-2.119,0.611-2.784,2.322v7.354
			h-3.752V98.298z"/>
		<path fill="#B4B4B4" d="M281.97,94.468c0-1.148,0.921-1.941,2.17-1.941c1.277,0,2.172,0.793,2.172,1.941s-0.895,1.967-2.172,1.967
			C282.891,96.435,281.97,95.616,281.97,94.468z M282.277,98.298h3.753v12.664h-3.753V98.298z"/>
		<path fill="#B4B4B4" d="M295.171,97.991c1.558,0,2.86,0.588,3.702,1.455l-1.712,2.324c-0.611-0.512-1.174-0.74-1.761-0.74
			c-1.813,0-2.963,1.404-2.963,3.6s1.2,3.602,2.835,3.602c0.919,0,1.661-0.434,2.272-0.92l1.507,2.375
			c-1.226,1.072-2.835,1.582-4.214,1.582c-3.523,0-6.254-2.426-6.254-6.639S291.673,97.991,295.171,97.991z"/>
		<path fill="#B4B4B4" d="M301.248,93.063h3.751v4.393l-0.177,2.271c0.944-0.842,2.195-1.736,3.905-1.736
			c2.758,0,3.933,1.941,3.933,5.107v7.863h-3.754v-7.379c0-1.838-0.484-2.4-1.558-2.4c-0.944,0-1.531,0.434-2.35,1.227v8.553h-3.751
			V93.063z"/>
		<path fill="#B4B4B4" d="M316.337,101.233H314.6v-2.781l1.939-0.154l0.436-3.371h3.116v3.371h3.037v2.936h-3.037v5.082
			c0,1.43,0.637,2.018,1.633,2.018c0.409,0,0.869-0.127,1.2-0.256l0.588,2.732c-0.665,0.203-1.584,0.459-2.81,0.459
			c-3.14,0-4.365-1.965-4.365-4.902V101.233z"/>
		<path fill="#B4B4B4" d="M325.298,94.468c0-1.148,0.919-1.941,2.17-1.941c1.276,0,2.17,0.793,2.17,1.941s-0.894,1.967-2.17,1.967
			C326.217,96.435,325.298,95.616,325.298,94.468z M325.604,98.298h3.754v12.664h-3.754V98.298z"/>
		<path fill="#B4B4B4" d="M333.673,110.579v-0.102c-0.665-0.436-1.177-1.098-1.177-2.145c0-0.92,0.614-1.814,1.431-2.375v-0.102
			c-0.894-0.613-1.71-1.814-1.71-3.295c0-3.037,2.503-4.57,5.233-4.57c0.716,0,1.404,0.102,1.967,0.307h4.621v2.732h-2.017
			c0.23,0.383,0.41,0.996,0.41,1.658c0,2.912-2.198,4.266-4.981,4.266c-0.459,0-0.97-0.076-1.53-0.254
			c-0.333,0.279-0.461,0.51-0.461,0.943c0,0.639,0.512,0.943,1.916,0.943h2.042c3.116,0,4.826,0.945,4.826,3.219
			c0,2.631-2.732,4.545-7.072,4.545c-2.963,0-5.312-0.971-5.312-3.217C331.859,112.087,332.496,111.243,333.673,110.579z
			 M337.757,114.001c1.687,0,2.912-0.689,2.912-1.557c0-0.793-0.689-0.996-1.94-0.996h-1.304c-0.866,0-1.378-0.053-1.787-0.154
			c-0.458,0.408-0.69,0.793-0.69,1.252C334.947,113.491,336.073,114.001,337.757,114.001z M339.188,102.562
			c0-1.328-0.74-2.043-1.737-2.043c-0.996,0-1.735,0.689-1.735,2.043c0,1.404,0.739,2.119,1.735,2.119
			C338.447,104.681,339.188,103.966,339.188,102.562z"/>
	</g>
</g>
</svg>
