<?xml version="1.0" encoding="utf-8"?>
<!-- Generator: Adobe Illustrator 26.1.0, SVG Export Plug-In . SVG Version: 6.00 Build 0)  -->
<svg version="1.1"
	 id="Capa_1" xmlns:cc="http://creativecommons.org/ns#" xmlns:dc="http://purl.org/dc/elements/1.1/" xmlns:rdf="http://www.w3.org/1999/02/22-rdf-syntax-ns#" xmlns:svg="http://www.w3.org/2000/svg"
	 xmlns="http://www.w3.org/2000/svg" xmlns:xlink="http://www.w3.org/1999/xlink" x="0px" y="0px" viewBox="0 0 95 95"
	 style="enable-background:new 0 0 95 95;" xml:space="preserve">
<style type="text/css">
	.st0{fill:#FF3399;}
	.st1{fill:#F5980F;}
</style>
<g id="g6" transform="translate(0,0.49500275)">
</g>
<g id="g8" transform="translate(0,0.49500275)">
</g>
<g id="g10" transform="translate(0,0.49500275)">
</g>
<g id="g12" transform="translate(0,0.49500275)">
</g>
<g id="g14" transform="translate(0,0.49500275)">
</g>
<g id="g16" transform="translate(0,0.49500275)">
</g>
<g id="g18" transform="translate(0,0.49500275)">
</g>
<g id="g20" transform="translate(0,0.49500275)">
</g>
<g id="g22" transform="translate(0,0.49500275)">
</g>
<g id="g24" transform="translate(0,0.49500275)">
</g>
<g id="g26" transform="translate(0,0.49500275)">
</g>
<g id="g28" transform="translate(0,0.49500275)">
</g>
<g id="g30" transform="translate(0,0.49500275)">
</g>
<g id="g32" transform="translate(0,0.49500275)">
</g>
<g id="g34" transform="translate(0,0.49500275)">
</g>
<path id="path2" class="st0" d="M74.1,59.6c0.1-0.2,0.1-0.4,0.1-0.7V34.3c0-1.2-0.9-2.1-2.1-2.1H60.3v26.2c0,0.4-0.1,0.8-0.2,1.2
	h-1.4c0.1-0.2,0.1-0.4,0.1-0.7V25.1c0-1.2-0.9-2.1-2.1-2.1H38.3c-1.2,0-2.1,0.9-2.1,2.1v33.8c0,0.2,0,0.5,0.1,0.7h-1.4
	c-0.1-0.4-0.2-0.8-0.2-1.2V32.2H23.2c-1.2,0-2.1,0.9-2.1,2.1v24.6c0,0.2,0,0.5,0.1,0.7h-3.6V64h59.9v-4.4H74.1z M27.4,51h-3v-3h3V51
	z M27.4,45.7h-3v-3h3V45.7z M27.4,40.5h-3v-3h3V40.5z M32.1,51h-3v-3h3V51z M32.1,45.7h-3v-3h3V45.7z M32.1,40.5h-3v-3h3V40.5z
	 M52.2,59.5h-8.9V48.4h8.9V59.5z M47.5,38.9c-4.1,0-7.5-3.3-7.5-7.5c0-4.1,3.3-7.5,7.5-7.5c4.1,0,7.5,3.3,7.5,7.5
	S51.6,38.9,47.5,38.9z M66.7,51h-3v-3h3V51z M66.7,45.7h-3v-3h3V45.7z M66.7,40.5h-3v-3h3V40.5z M71.5,51h-3v-3h3V51z M71.5,45.7h-3
	v-3h3V45.7z M71.5,40.5h-3v-3h3V40.5z M49.3,29.6h2.9v3.7h-2.9v2.9h-3.7v-2.9h-2.9v-3.7h2.9v-2.9h3.7V29.6z"/>
<circle id="path4552" class="st1" cx="47.5" cy="47.5" r="40.7"/>
</svg>
