<?xml version="1.0" encoding="UTF-8"?><svg id="a" xmlns="http://www.w3.org/2000/svg" width="16" height="16" viewBox="0 0 16 16"><defs><style>.b{fill:#f5980f;fill-rule:evenodd;}</style></defs><path class="b" d="M8,3.293l6,6v4.207c0,.8284-.6716,1.5-1.5,1.5H3.5c-.8284,0-1.5-.6716-1.5-1.5v-4.207L8,3.293Zm5-.793v3.5l-2-2v-1.5c0-.2761,.2239-.5,.5-.5h1c.2761,0,.5,.2239,.5,.5Z"/><path class="b" d="M7.293,1.5c.3905-.3904,1.0235-.3904,1.414,0l6.647,6.646c.1955,.1955,.1955,.5125,0,.708s-.5125,.1955-.708,0L8,2.207,1.354,8.854c-.1955,.1955-.5125,.1955-.708,0-.1955-.1955-.1955-.5125,0-.708L7.293,1.5Z"/></svg>