<?xml version="1.0" encoding="UTF-8"?><svg id="a" xmlns="http://www.w3.org/2000/svg" width="16" height="16" viewBox="0 0 16 16"><defs><style>.b{fill:#32bd69;}</style></defs><path class="b" d="M15.1234,5.0872h-.3056c-.3485,.017-.678,.1642-.9234,.4124-.3881-.9864-.891-2.0974-1.1967-2.5486-.5515-.7924-1.3552-1.0139-1.9114-1.111h0c-.919-.1416-1.8486-.2027-2.7781-.1826-.9279-.0209-1.8559,.0393-2.7733,.1795-.5563,.097-1.36,.3234-1.9114,1.111-.3105,.4463-.8085,1.5589-1.1999,2.5389h-.0001c-.2453-.2483-.5748-.3954-.9234-.4124h-.3056c-.2136,.0025-.4178,.0884-.569,.2396-.151,.151-.2371,.3552-.2396,.569v.587c.0012,.2223,.0893,.4355,.2456,.5938,.1562,.1584,.3681,.2493,.5905,.2536h.4027c-.0421,.0549-.0819,.1089-.1197,.1618h-.0001c-.3912,.5946-.5899,1.2951-.5692,2.0067v3.9521c-.0017,.2197,.0841,.4311,.2386,.5873,.1545,.1563,.3648,.2447,.5845,.2455h1.0689c.2192,0,.4294-.087,.5843-.242,.155-.155,.2421-.3651,.2421-.5843v-.6291H12.6623v.621c-.0021,.2205,.0839,.4328,.2391,.5895,.1552,.1568,.3666,.2449,.5872,.2449h1.0689c.2192,0,.4293-.087,.5843-.242,.155-.155,.242-.3651,.242-.5843v-3.9587c.0194-.712-.181-1.4127-.574-2.0068-.0388-.0572-.0787-.111-.1197-.1618h.4027c.221-.0033,.432-.0923,.5887-.2483,.1566-.156,.2464-.3667,.2505-.5877v-.587c-.0029-.2134-.0891-.4171-.2401-.5679-.151-.1507-.355-.2364-.5684-.239h0ZM4.9068,9.9044h-1.5137c-.1716,0-.336-.0681-.4574-.1894-.1213-.1214-.1894-.2858-.1894-.4574v-.393c.0016-.1991,.0949-.3863,.2528-.5077,.1579-.1213,.3629-.163,.5558-.1133l1.5135,.3962c.1959,.0602,.3518,.2097,.4201,.403,.0682,.1932,.0408,.4074-.0739,.5773-.1146,.1699-.3031,.2753-.5078,.2843h0Zm8.3586-.6468h-.0001c0,.1716-.0681,.336-.1894,.4574-.1214,.1213-.2858,.1894-.4574,.1894h-1.5088c-.2047-.0089-.3932-.1144-.5078-.2843-.1147-.1699-.1421-.3841-.0739-.5773,.0682-.1933,.2241-.3428,.4201-.403l1.5135-.3962c.1929-.0497,.3978-.008,.5558,.1133,.1579,.1214,.2512,.3086,.2528,.5077l-.0047,.393Z"/></svg>