<?xml version="1.0" encoding="UTF-8"?><svg id="a" xmlns="http://www.w3.org/2000/svg" width="16" height="16" viewBox="0 0 16 16"><defs><style>.b{fill:#009db2;}</style></defs><path class="b" d="M.3375,1.7487V9.9767c0,.7562,.6152,1.3714,1.3714,1.3714h6.381l4.3405,4.3405c.0661,.0664,.1539,.1004,.2426,.1004,.0656,0,.1316-.0187,.1894-.0573,.136-.0902,.1894-.2637,.1278-.4148l-1.6156-3.9692h3.0188c.7562,0,1.3714-.6152,1.3714-1.3714V1.7483c0-.7562-.6152-1.3714-1.3714-1.3714H1.7085C.9524,.377,.3372,.9922,.3372,1.7483l.0003,.0003ZM7.1942,5.8627H3.3079l1.0302,1.0302c.1339,.1339,.1339,.3509,0,.4847-.0668,.0671-.1546,.1004-.2424,.1004s-.1754-.0335-.2424-.1004l-1.6153-1.6151c-.0159-.0159-.0301-.0332-.0427-.0519l-.0079-.0143c-.0086-.0143-.0171-.0288-.0237-.0444l-.0063-.0204c-.005-.0142-.0103-.0285-.0132-.0435-.0047-.0224-.0071-.0452-.0071-.0682s.0024-.0456,.0068-.0679c.0031-.0151,.0083-.0293,.0132-.0435l.0063-.0204c.0065-.0155,.0151-.03,.0237-.0444l.0079-.0143c.0126-.0187,.0268-.036,.0427-.0519l1.6153-1.6153c.1337-.1339,.3511-.1339,.4847,0,.1339,.1339,.1339,.3509,0,.4847l-1.03,1.0302h3.8863c.1893,0,.3428,.1536,.3428,.3428,0,.1893-.1535,.3428-.3428,.3428h0Zm6.7643-.2751c-.0031,.0151-.0084,.0293-.0132,.0435l-.0063,.0204c-.0065,.0155-.0151,.03-.0238,.0444l-.0078,.0143c-.0126,.0187-.0268,.036-.0427,.0519l-1.6154,1.6153c-.0671,.0671-.1546,.1004-.2424,.1004s-.1754-.0335-.2424-.1004c-.1339-.1339-.1339-.3509,0-.4847l1.0303-1.03h-3.8863c-.1893,0-.3428-.1536-.3428-.3428,0-.1893,.1536-.3428,.3428-.3428h3.8863l-1.0303-1.0302c-.1339-.1339-.1339-.3509,0-.4847,.1339-.1339,.3509-.1339,.4847,0l1.6154,1.6151c.0159,.0159,.0301,.0332,.0427,.0519l.0078,.0143c.0087,.0143,.0173,.0288,.0238,.0444l.0063,.0204c.0048,.0142,.0103,.0285,.0132,.0435,.0044,.0221,.0068,.045,.0068,.0679,0,.0231-.0024,.0458-.0068,.0679h0Z"/></svg>