<?xml version="1.0" encoding="utf-8"?>
<!-- Generator: Adobe Illustrator 26.2.1, SVG Export Plug-In . SVG Version: 6.00 Build 0)  -->
<svg version="1.1" id="a" xmlns="http://www.w3.org/2000/svg" xmlns:xlink="http://www.w3.org/1999/xlink" x="0px" y="0px"
	 viewBox="0 0 50 50" style="enable-background:new 0 0 50 50;" xml:space="preserve">
<style type="text/css">
	.st0{fill:#ED0061;}
</style>
<g>
	<path class="st0" d="M42,13.2V7.5h-8.5l-8.2-5.6l-8.2,5.6H8.5v5.7l-7.3,4.9v28.8h48.3V18.1L42,13.2z M5.1,19.1l3.3-2.2v4.6
		L5.1,19.1z M22.6,7.5l2.7-1.9L28,7.5H22.6z M42,21.5v-4.6l3.3,2.2L42,21.5z M4.3,42.3V22.2l13.5,9.5L4.3,42.3z M43.1,43.8H7.4
		l17.9-13.8L43.1,43.8z M38.9,23.7l-8.8,6L25.3,26l-5,3.8l-8.8-6V10.5h27.3V23.7z M32.7,31.7l13.5-9.5v20.1L32.7,31.7z"/>
	<path class="st0" d="M17.2,17.5h16.2c1.1,0,1.7-0.8,1.7-1.5s-0.6-1.5-1.7-1.5H17.2c-1.2,0-1.8,0.8-1.8,1.5S16,17.5,17.2,17.5z"/>
	<path class="st0" d="M17.2,23.5h16.2c1.1,0,1.7-0.8,1.7-1.5s-0.6-1.5-1.7-1.5H17.2c-1.2,0-1.8,0.8-1.8,1.5S16,23.5,17.2,23.5z"/>
</g>
</svg>
