<?xml version="1.0" encoding="utf-8"?>
<!-- Generator: Adobe Illustrator 26.2.1, SVG Export Plug-In . SVG Version: 6.00 Build 0)  -->
<svg version="1.1" id="a" xmlns="http://www.w3.org/2000/svg" xmlns:xlink="http://www.w3.org/1999/xlink" x="0px" y="0px"
	 viewBox="0 0 50 50" style="enable-background:new 0 0 50 50;" xml:space="preserve">
<style type="text/css">
	.st0{fill:#ED0061;}
</style>
<path class="st0" d="M49.5,19.4c-0.2-0.8-1-1.3-1.8-1.3L31.9,18l-5.1-15c-0.3-0.8-1-1.3-1.8-1.3c-0.8,0-1.5,0.5-1.8,1.3l-5.1,15
	L2.3,18.1c-0.8,0-1.5,0.5-1.8,1.3c-0.3,0.8,0,1.6,0.7,2.1L14,31L9.2,46.1c-0.2,0.8,0,1.6,0.7,2.1c0.3,0.2,0.7,0.4,1.1,0.4
	c0.4,0,0.8-0.1,1.1-0.4L25.1,39L38,48.2c0.6,0.5,1.6,0.5,2.2,0c0.7-0.5,0.9-1.3,0.7-2.1L36.1,31l12.7-9.5
	C49.5,21,49.8,20.2,49.5,19.4z M18,30.9c0-0.1,0.1-0.2,0.1-0.4c0-0.3,0-0.5-0.1-0.8c-0.1-0.3-0.2-0.5-0.4-0.7
	c-0.1-0.1-0.2-0.2-0.3-0.2L8,21.8l11.6-0.1c0.8,0,1.5-0.5,1.8-1.3l3.7-11l3.7,11c0.3,0.8,1,1.3,1.8,1.3l11.6,0.1l-9.3,6.9
	c-0.1,0.1-0.2,0.1-0.3,0.2c-0.2,0.2-0.3,0.5-0.4,0.7C32,30,32,30.2,32,30.5c0,0.1,0,0.2,0.1,0.4l3.5,11l-9.4-6.7
	C26.1,35.1,26,35,25.9,35c-0.3-0.1-0.5-0.2-0.8-0.2c-0.3,0-0.6,0.1-0.8,0.2c-0.1,0.1-0.2,0.1-0.3,0.2l-9.4,6.7L18,30.9z"/>
</svg>
