<?xml version="1.0" encoding="UTF-8"?><svg id="a" xmlns="http://www.w3.org/2000/svg" width="50" height="50" viewBox="0 0 50 50"><defs><style>.b{fill:#ed0061;}</style></defs><path class="b" d="M11.8873,13.2871C5.5106,13.2871,.2498,18.4682,.2498,24.9246c0,6.3767,5.1811,11.5582,11.6375,11.5582,6.3767,0,11.5582-5.1811,11.5582-11.5582,.0797-6.4564-5.1014-11.6375-11.5582-11.6375Zm5.6593,15.5427l-1.4348,1.5145-3.9854-3.6666-3.7463,3.9854-2.1521-2.1521,3.9057-3.6666-3.9057-3.6666,2.1521-2.1521,3.7463,3.9854,3.9057-3.6666,1.4348,1.4348-3.7463,3.9854,3.826,4.0651Z"/><path class="b" d="M48.1543,12.889L36.9951,1.9685c-.6377-.6377-1.5145-1.0362-2.471-1.0362h-14.9051c-5.1014,0-9.2462,4.1448-9.2462,9.2462v1.6739c.4783-.0797,1.0362-.0797,1.5942-.0797s1.0362,0,1.5942,.0797v-1.6739c0-3.3478,2.7101-6.1376,6.1376-6.1376h14.9051c.0797,0,.1594,0,.2391,.0797l.1594,.1594v4.9419c.0797,.6377,.2391,1.2753,.4783,1.913,1.0362,2.3116,3.1883,3.9057,5.6593,4.2246,.3188,0,.558,.0797,.8768,.0797l4.2246,.1594c.0797,.1594,.0797,.3188,.0797,.3985v23.7532c0,3.3478-2.7101,6.1376-6.1376,6.1376H19.6186c-3.3478,0-6.1376-2.7101-6.1376-6.1376v-1.7536c-.4783,.0797-1.0362,.0797-1.5942,.0797s-1.0362,0-1.5942-.0797v1.7536c0,5.1014,4.1448,9.2462,9.2462,9.2462h20.5648c5.1014,0,9.2462-4.1448,9.2462-9.2462V15.918c.0797-1.1159-.3985-2.2318-1.1956-3.0289Z"/></svg>