<?xml version="1.0" encoding="UTF-8"?><svg id="a" xmlns="http://www.w3.org/2000/svg" width="50" height="50" viewBox="0 0 50 50"><defs><style>.b,.c{fill:#ed0061;}.c{fill-rule:evenodd;}</style></defs><path class="c" d="M22.8343,34.0004V15.9924c0-2.0379-2.0379-3.69-3.69-3.69-2.0379,0-3.69,1.652-3.69,3.69v18.008c0,2.0379,2.0379,3.69,3.69,3.69,2.0379,0,3.69-1.652,3.69-3.69Z"/><path class="c" d="M34.5067,34.0004V15.9924c0-2.0379-2.0379-3.69-3.69-3.69-2.0379,0-3.69,1.652-3.69,3.69v18.008c0,2.0379,2.0379,3.69,3.69,3.69,2.0379,0,3.69-1.652,3.69-3.69Z"/><path class="b" d="M24.9521,.1772C11.2773,.1772,.1514,11.3032,.1514,24.9785c0,13.709,11.126,24.8618,24.8008,24.8618,13.709,0,24.8623-11.1528,24.8623-24.8618C49.8145,11.3032,38.6611,.1772,24.9521,.1772Zm21.3379,24.8013c0,11.7656-9.5713,21.3379-21.3369,21.3379S3.6152,36.7441,3.6152,24.9785,13.1875,3.6406,24.9531,3.6406s21.3369,9.5723,21.3369,21.3379Z"/></svg>