<?xml version="1.0" encoding="UTF-8"?><svg id="a" xmlns="http://www.w3.org/2000/svg" width="50" height="50" viewBox="0 0 50 50"><defs><style>.b{fill:#ed0061;}</style></defs><path class="b" d="M48.3635,42.3079c0,1.3164-1.0975,2.5234-2.5234,2.5234h-8.1195c-1.3164,0-2.5234-1.0975-2.5234-2.5234v-8.1195c0-1.3164,1.0975-2.5234,2.5234-2.5234,1.4266,0,2.5234,1.0975,2.5234,2.5234v1.6455c5.0475-7.3512,4.3884-17.5556-2.1942-24.1384-7.3512-7.3512-19.4206-7.3512-26.7716,0-7.3512,7.3512-7.3512,19.4206,0,26.7716,4.6082,4.6082,11.1916,6.4733,17.6649,5.0475,1.3164-.3291,2.6335,.5488,2.9626,1.8651,.3291,1.3164-.5488,2.6335-1.8651,2.9626-1.7557,.4385-3.6208,.6582-5.3765,.6582-6.2544,0-12.2884-2.4138-16.7871-7.0221C-1.4496,32.652-1.4496,17.5111,7.877,8.1849,17.2036-1.1417,32.3445-1.1417,41.6707,8.1849c8.5581,8.5581,9.2163,22.1634,1.8651,31.5993h2.4138c1.3164,.1094,2.4138,1.207,2.4138,2.5234v.0003ZM22.2502,12.4641v11.5208l-6.1441,4.7176c-1.0975,.8779-1.3164,2.4138-.4385,3.5114,.4385,.6582,1.207,.9873,1.9746,.9873,.5488,0,1.0975-.2197,1.536-.5488l7.0221-5.486c.6582-.4385,.9873-1.207,.9873-1.9746V12.4641c0-1.3164-1.0975-2.5234-2.5234-2.5234-1.3164,0-2.4138,1.0975-2.4138,2.5234h-.0001Z"/></svg>