<?xml version="1.0" encoding="utf-8"?>
<!-- Generator: Adobe Illustrator 26.2.1, SVG Export Plug-In . SVG Version: 6.00 Build 0)  -->
<svg version="1.1" id="a" xmlns="http://www.w3.org/2000/svg" xmlns:xlink="http://www.w3.org/1999/xlink" x="0px" y="0px"
	 viewBox="0 0 50 50" style="enable-background:new 0 0 50 50;" xml:space="preserve">
<style type="text/css">
	.st0{fill:#ED0061;}
</style>
<g>
	<path class="st0" d="M24.9,14.7L24.9,14.7c-2.7,0-5.3,1.1-7.2,3s-3,4.5-3,7.2c0,2.7,1.1,5.3,3,7.2c1.9,1.9,4.5,3,7.2,3l0.6,0l0,0
		c2.5-0.1,4.9-1.2,6.6-3c1.9-1.9,3-4.5,3-7.2c0-2.7-1.1-5.3-3-7.2S27.6,14.7,24.9,14.7z M31.4,24.9c0,1.7-0.7,3.4-1.9,4.6
		c-1.2,1.2-2.8,1.9-4.6,1.9c0,0,0,0,0,0c-1.7,0-3.3-0.7-4.5-1.9c-1.2-1.2-1.9-2.9-1.9-4.6c0-1.7,0.7-3.4,1.9-4.6
		c1.2-1.2,2.9-1.9,4.6-1.9l0.2,0c1.7,0,3.2,0.7,4.4,1.9C30.7,21.6,31.4,23.2,31.4,24.9z"/>
	<path class="st0" d="M49.5,24.1l0-0.1l-0.1-0.2c-0.1-0.2-0.1-0.4-0.2-0.5c-0.2-0.5-0.4-1-0.7-1.5c-0.6-1.1-1.7-2-2.9-2.5
		c-0.9-0.3-1.7-0.9-2.3-1.7c-0.2-0.3-0.3-0.6-0.2-1c0-0.7,0.1-1.4,0.4-2c0.7-1.6,0.7-3.5,0-5.1c-0.7-1.6-2-2.8-3.6-3.3
		c-1.5-0.5-3.1-0.5-4.6,0.2c-0.8,0.4-1.7,0.5-2.5,0.4c-0.5-0.1-0.9-0.4-1.2-0.8c-0.4-0.5-0.8-1-1-1.6c-0.7-1.8-2.3-3.2-4.2-3.7
		c-1.9-0.5-4-0.1-5.5,1.2c-0.8,0.7-1.5,1.5-1.9,2.5c-0.3,0.9-0.9,1.6-1.6,2.2c-0.3,0.2-0.6,0.3-1,0.3c-0.7,0-1.4-0.1-2-0.4
		c-1.6-0.7-3.5-0.7-5.1,0C7.8,7,6.6,8.3,6.1,9.9c-0.5,1.5-0.5,3.1,0.2,4.5c0.4,0.8,0.5,1.8,0.4,2.6c-0.1,0.4-0.4,0.8-0.8,1.1
		c-0.5,0.4-1,0.8-1.6,1c-1.8,0.7-3.2,2.3-3.7,4.2c-0.5,1.9-0.1,4,1.2,5.5c0.7,0.8,1.5,1.5,2.5,1.9c0.9,0.3,1.6,0.9,2.2,1.6
		c0.2,0.3,0.3,0.7,0.2,1.1c0,0.7-0.2,1.5-0.5,2.1c-0.7,1.5-0.7,3.3,0,4.8c0.6,1.5,1.9,2.8,3.4,3.4c1.5,0.6,3.3,0.6,4.8-0.1
		c0.8-0.3,1.6-0.5,2.5-0.4c0.1,0,0.6,0,1.3,0.9c0.4,0.5,0.7,1,0.9,1.6c0.8,1.8,2.3,3.1,4.2,3.6l0.8,0.2l1.5,0l0.3,0
		c1.2-0.3,2.2-0.8,3.1-1.6c0.7-0.6,1.2-1.4,1.6-2.2c0.3-0.9,0.9-1.6,1.6-2.2c0.3-0.2,0.7-0.3,1.1-0.3c0.7,0,1.4,0.1,2,0.4
		c1.8,0.8,3.9,0.7,5.6-0.3c1.7-1,2.8-2.7,3-4.6c0.2-1.1,0-2.3-0.5-3.3c-0.3-0.8-0.5-1.7-0.4-2.5c0.1-0.4,0.3-0.8,0.6-1
		c0.5-0.5,1-0.9,1.6-1.1c2-0.7,3.5-2.4,3.9-4.5c0,0,0-0.1,0-0.1l0.1-0.4C49.6,25.2,49.6,24.6,49.5,24.1z M40.2,36.9
		c0.2,0.4,0.3,0.9,0.2,1.4c-0.1,0.8-0.5,1.5-1.2,1.8c-0.7,0.4-1.5,0.4-2.3,0.1c-1.1-0.5-2.3-0.7-3.5-0.7c0,0-0.1,0-0.1,0
		c-1.2-0.1-2.4,0.3-3.3,1c-1.3,1-2.2,2.3-2.8,3.8c-0.1,0.3-0.3,0.6-0.6,0.8c-0.4,0.3-0.9,0.6-1.4,0.7l-0.5,0l-0.3-0.1
		c-0.8-0.2-1.5-0.8-1.9-1.6c-0.4-0.8-0.8-1.6-1.4-2.3c-0.9-1.3-2.3-2.2-3.9-2.3c-1.5-0.1-3,0.1-4.3,0.7c-0.6,0.3-1.3,0.3-2,0.1
		c-0.6-0.2-1.1-0.7-1.4-1.4c-0.3-0.6-0.3-1.3,0-1.9c0.5-1.1,0.8-2.3,0.8-3.6c0-1.1-0.3-2.3-1-3.2c-1-1.3-2.3-2.3-3.8-2.8
		c-0.4-0.2-0.7-0.4-1-0.8c-0.5-0.6-0.7-1.4-0.5-2.2c0.2-0.8,0.7-1.4,1.5-1.7c1-0.4,2-1,2.8-1.7c1-0.8,1.7-2,2-3.3
		c0.2-1.6,0-3.2-0.7-4.6c-0.3-0.6-0.3-1.3,0-1.9c0.2-0.6,0.7-1.1,1.3-1.4c0.7-0.3,1.4-0.3,2.1,0c1.1,0.5,2.4,0.8,3.6,0.7
		c1.1,0,2.2-0.3,3.1-0.9c1.3-1,2.3-2.3,2.9-3.8c0.2-0.4,0.4-0.8,0.8-1c0.6-0.5,1.4-0.7,2.2-0.5c0.8,0.2,1.4,0.8,1.7,1.5
		c0.4,1,1,2,1.7,2.8c0.9,1.1,2.2,1.8,3.6,2c1.5,0.1,3-0.1,4.4-0.7c0.6-0.3,1.3-0.3,1.9,0c0.6,0.2,1.1,0.7,1.4,1.3
		c0.3,0.7,0.3,1.4,0,2.1c-0.5,1.1-0.8,2.4-0.7,3.6c0,1.1,0.3,2.2,0.9,3.1c1,1.4,2.3,2.4,3.9,3c0.4,0.2,0.8,0.5,1,0.9
		c0.2,0.3,0.3,0.7,0.4,1c0,0.1,0.1,0.3,0.2,0.4v0c0,0,0,0.1,0,0.1c0,0.1-0.1,0.2-0.1,0.4c-0.2,0.9-0.8,1.7-1.7,2
		c-1.1,0.4-2.1,1.1-2.9,1.9c-0.9,0.9-1.5,2-1.7,3.3C39.3,34,39.6,35.5,40.2,36.9z"/>
</g>
</svg>
